<svg width="24" height="24" viewBox="0 0 24 24" fill="none" xmlns="http://www.w3.org/2000/svg">
<path d="M19.064 1.93628H4.93604C3.27918 1.93628 1.93604 3.27943 1.93604 4.93628V19.0643C1.93604 20.7211 3.27918 22.0643 4.93604 22.0643H19.064C20.7209 22.0643 22.064 20.7211 22.064 19.0643V4.93628C22.064 3.27943 20.7209 1.93628 19.064 1.93628Z" fill="#543287"/>
<path d="M16.1655 5.01123C16.1169 5.01571 15.6855 5.09251 15.6327 5.10307L9.64874 6.31011H9.6465C9.51025 6.33421 9.38213 6.39183 9.2737 6.47779C9.15946 6.57379 9.09642 6.70883 9.07242 6.86627C9.06287 6.93336 9.05838 7.00107 9.05898 7.06883V14.5568C9.05898 14.7319 9.0449 14.9018 8.9265 15.0464C8.8081 15.1911 8.66154 15.2349 8.4897 15.2704L8.09898 15.3491C7.60458 15.4487 7.2833 15.5162 6.9921 15.6291C6.71338 15.737 6.50506 15.8746 6.33898 16.049C6.05185 16.3578 5.89896 16.7679 5.91383 17.1892C5.92871 17.6106 6.11015 18.0089 6.41834 18.2967C6.62191 18.4853 6.87361 18.6141 7.1457 18.6688C7.44394 18.7287 7.76138 18.7079 8.22538 18.6141C8.47132 18.5685 8.70767 18.4813 8.92426 18.3562C9.14237 18.2281 9.33023 18.0545 9.47498 17.8471C9.61859 17.6392 9.71833 17.4042 9.7681 17.1565C9.81679 16.9128 9.8391 16.6645 9.83466 16.416V9.92003C9.83466 9.57219 9.9329 9.48035 10.2139 9.41219C10.2139 9.41219 15.1863 8.40931 15.4187 8.36387C15.7422 8.30179 15.8948 8.39587 15.8948 8.73347V13.1677C15.8948 13.3434 15.8948 13.5197 15.7735 13.6666C15.6523 13.8135 15.5086 13.8547 15.3367 13.8906L14.946 13.9693C14.4519 14.0688 14.1303 14.1363 13.8391 14.2493C13.5607 14.3575 13.3521 14.4947 13.186 14.6695C13.0405 14.8206 12.9268 14.9994 12.8518 15.1954C12.7768 15.3913 12.7419 15.6003 12.7493 15.81C12.7567 16.0196 12.8062 16.2257 12.8949 16.4158C12.9836 16.606 13.1095 16.7764 13.2654 16.9168C13.4691 17.1042 13.7204 17.2319 13.9918 17.2861C14.2897 17.3459 14.6071 17.3245 15.0715 17.2311C15.3172 17.1863 15.5535 17.0997 15.77 16.9751C15.9878 16.8471 16.1754 16.6737 16.3201 16.4666C16.4638 16.2587 16.5638 16.0238 16.6139 15.776C16.6676 15.52 16.6699 15.2896 16.6699 15.0346V5.54019C16.6699 5.19587 16.4891 4.98339 16.1655 5.01123Z" fill="white"/>
</svg>
