<svg width="24" height="24" viewBox="0 0 24 24" fill="none" xmlns="http://www.w3.org/2000/svg">
<path d="M9.47595 18.0546L9.52486 18.5H9.97296H11H11.5V18V13.5H12.5V18V18.5H13H14.027H14.4751L14.524 18.0546C14.6391 17.0063 15.1708 16.111 16.1344 15.0621C16.1683 15.0255 16.2592 14.9304 16.3732 14.811C16.4422 14.7387 16.5196 14.6576 16.598 14.5753C16.7904 14.3733 17.0141 14.1375 17.074 14.0628L17.0743 14.0624C17.8395 13.1065 18.319 11.954 18.4579 10.7374C18.5967 9.52091 18.389 8.28992 17.8589 7.18623C17.3288 6.08253 16.4977 5.15102 15.4613 4.49895C14.425 3.84689 13.2256 3.5008 12.0011 3.50054C10.7767 3.50028 9.57714 3.84585 8.54053 4.49747C7.50391 5.1491 6.67242 6.08026 6.14181 7.18373C5.6112 8.2872 5.40306 9.5181 5.54135 10.7347C5.67964 11.9513 6.15874 13.104 6.92348 14.0603L6.92424 14.0612C6.98451 14.1362 7.20888 14.3724 7.40161 14.5747C7.46838 14.6447 7.53425 14.7137 7.59468 14.777C7.72411 14.9125 7.82858 15.0219 7.86351 15.06L7.86378 15.0603C8.82886 16.1106 9.36081 17.0061 9.47595 18.0546ZM9.99996 19.5H9.49996V20V21V21.5H9.99996H14H14.5V21V20V19.5H14H9.99996ZM6.14395 14.6871C5.26122 13.584 4.708 12.254 4.54801 10.8503C4.38799 9.44641 4.62782 8.02586 5.23987 6.7523C5.85192 5.47874 6.81129 4.40398 8.00747 3.65183C9.20364 2.89969 10.588 2.50075 12.001 2.50098C13.414 2.5012 14.7982 2.90058 15.9941 3.65311C17.19 4.40564 18.149 5.48071 18.7607 6.75446C19.3723 8.02822 19.6117 9.44885 19.4512 10.8527C19.2908 12.2564 18.7371 13.5862 17.854 14.689C17.7272 14.8469 17.5484 15.0311 17.325 15.2615C17.3078 15.2791 17.2905 15.297 17.2728 15.3152C17.0333 15.5622 16.759 15.848 16.5026 16.1612C15.9992 16.776 15.5 17.5718 15.5 18.5V21C15.5 21.3978 15.3419 21.7793 15.0606 22.0606C14.7793 22.3419 14.3978 22.5 14 22.5H9.99996C9.60214 22.5 9.22061 22.3419 8.9393 22.0606C8.658 21.7793 8.49996 21.3978 8.49996 21V18.5C8.49996 17.5717 8.00039 16.7759 7.49664 16.1609C7.24006 15.8476 6.96552 15.5616 6.72587 15.3144C6.70886 15.2969 6.69209 15.2796 6.67556 15.2625C6.45097 15.031 6.27134 14.8458 6.14395 14.6871Z" fill="#363B53" stroke="#543287"/>
</svg>
