<svg width="24" height="24" viewBox="0 0 24 24" fill="none" xmlns="http://www.w3.org/2000/svg">
<path fill-rule="evenodd" clip-rule="evenodd" d="M11.9623 0.363281C14.1257 0.387969 16.0802 0.919677 17.8256 1.9584C19.5503 2.9764 20.9849 4.41982 21.9924 6.15065C23.0248 7.90663 23.5533 9.87293 23.5779 12.0495C23.5166 15.0277 22.5773 17.5713 20.7599 19.6804C18.9426 21.7895 16.615 23.0943 14.2055 23.5945V15.2447H16.4835L16.9987 11.9635H13.5493V9.81436C13.5301 9.36883 13.671 8.93115 13.9465 8.58046C14.2224 8.22881 14.7081 8.04399 15.4038 8.02599H17.4868V5.15169C17.4569 5.14207 17.1733 5.10405 16.636 5.03761C16.0267 4.96632 15.4139 4.92824 14.8004 4.92354C13.4119 4.92995 12.3137 5.32162 11.506 6.09857C10.6982 6.8753 10.2856 7.99907 10.2681 9.46986V11.9635H7.64306V15.2447H10.2681V23.5945C7.30955 23.0943 4.98197 21.7895 3.16463 19.6804C1.34728 17.5713 0.408002 15.0277 0.34668 12.0495C0.371214 9.87283 0.899708 7.90653 1.93216 6.15065C2.93963 4.41982 4.3743 2.9764 6.09896 1.9584C7.84438 0.919877 9.79882 0.388169 11.9623 0.363281Z" fill="#543287"/>
</svg>
