<svg width="24" height="24" viewBox="0 0 24 24" fill="none" xmlns="http://www.w3.org/2000/svg">
<g clip-path="url(#clip0_1463_167002)">
<path d="M19.3279 14.6717C19.3075 16.596 18.5291 18.4347 17.1614 19.7886C15.7937 21.1424 13.9473 21.9022 12.0228 21.9031C10.0984 21.9039 8.25127 21.1456 6.88246 19.7929C5.51365 18.4402 4.73361 16.6022 4.71167 14.6778C4.71167 10.7328 7.68344 7.92784 10.7461 7.47696C13.2008 7.11608 15.3961 7.7099 17.1934 9.49932C17.8748 10.1766 18.4144 10.9828 18.7809 11.8708C19.1474 12.7589 19.3333 13.711 19.3279 14.6717ZM10.1823 14.6284C10.1823 15.3899 10.1779 16.1514 10.1823 16.912C10.1823 17.4184 10.3711 17.5296 10.7999 17.2702C12.0234 16.5302 13.2446 15.7846 14.4634 15.0334C14.8649 14.7864 14.8684 14.5614 14.4732 14.3178C13.2526 13.5649 12.029 12.8181 10.8026 12.0776C10.372 11.8173 10.1849 11.924 10.1849 12.4305C10.177 13.1637 10.1823 13.8961 10.1823 14.6284Z" fill="#543287"/>
<path d="M17.0768 4.07878L17.0766 4.07868C15.9608 3.3095 14.7452 2.80553 13.4062 2.68558C13.1761 2.68589 12.9453 2.68654 12.7141 2.68721C12.2352 2.68858 11.7545 2.68996 11.2747 2.68819L11.2674 2.68816L11.2674 2.68811C11.0511 2.68416 10.8351 2.70882 10.6252 2.76143L10.3584 2.82828L10.2315 2.70758C10.2279 2.70851 10.2242 2.70951 10.2203 2.71056L10.2195 2.71079C10.165 2.72541 10.1111 2.73983 10.0576 2.75414C9.70692 2.84786 9.37507 2.93656 9.0468 3.04378L9.04569 3.04414C8.28449 3.2908 7.5651 3.65146 6.91205 4.11384L17.0768 4.07878ZM17.0768 4.07878C17.9685 4.69306 18.7105 5.39374 19.2989 6.18378C17.3873 4.04873 14.6154 2.80928 11.5467 2.96737C8.65888 3.11345 6.37308 4.28766 4.67765 6.28484M17.0768 4.07878L4.67765 6.28484M4.67765 6.28484C5.26511 5.47397 6.01186 4.75219 6.91196 4.11391L4.67765 6.28484ZM21.3378 10.8811L21.3672 10.864L21.3378 10.8811Z" fill="#543287" stroke="#543287"/>
<path d="M5.76089 8.75977C6.01942 8.86565 5.85883 8.97947 5.79707 9.06418C5.32589 9.71271 4.89265 10.3798 4.57942 11.1236C3.3203 14.1095 3.63618 16.9471 5.36118 19.6568C5.48648 19.8545 5.63207 20.0389 5.76001 20.2348C5.81824 20.323 5.97795 20.4051 5.87207 20.5251C5.76618 20.6451 5.65765 20.5206 5.56324 20.4615C4.85511 20.0155 4.2451 19.4301 3.7703 18.7409C1.58471 15.643 2.30648 11.1527 5.33118 9.03506C5.4706 8.93359 5.62324 8.84624 5.76089 8.75977Z" fill="#543287"/>
<path d="M20.2138 14.6673C20.2226 12.614 19.5079 10.8096 18.3238 9.16668C18.2497 9.06433 18.0335 8.96021 18.1826 8.81374C18.3097 8.68933 18.4526 8.86227 18.5638 8.93815C20.302 10.1267 21.2788 11.7996 21.4817 13.8661C21.7359 16.4611 20.8888 18.644 18.772 20.2579C18.6053 20.3849 18.3732 20.6523 18.2267 20.5155C18.03 20.3302 18.3476 20.1493 18.457 19.9914C19.5688 18.389 20.2217 16.6384 20.2138 14.6673Z" fill="#543287"/>
<path d="M2.35928 12.2019C1.23516 13.8643 1.28369 15.5116 2.3884 17.1678C1.6031 16.934 0.960751 15.8981 0.887515 14.7969C0.816927 13.7275 1.44075 12.5857 2.35928 12.2019Z" fill="#543287"/>
<path d="M23.1581 14.647C23.1087 15.5144 22.8484 16.2547 22.2272 16.8432C22.1275 16.9376 21.9325 17.0329 21.9008 17.0003C21.7966 16.8979 21.8858 16.762 21.9502 16.6473C22.7284 15.2223 22.6861 13.8238 21.7931 12.4641C21.749 12.397 21.6299 12.3326 21.7049 12.2488C21.8019 12.1447 21.8699 12.2612 21.9546 12.3176C22.8069 12.8823 23.0893 13.725 23.1581 14.647Z" fill="#543287"/>
<path d="M13.4275 2.18558C12.7102 2.18558 11.9937 2.19087 11.2764 2.18558C11.016 2.18083 10.7561 2.21049 10.5034 2.27381C10.5158 2.21293 10.5431 2.16175 10.6102 2.15205C11.5508 2.0144 12.4905 1.95175 13.4275 2.18558Z" fill="#543287"/>
</g>
<defs>
<clipPath id="clip0_1463_167002">
<rect width="22.2759" height="19.9509" fill="white" transform="translate(0.882324 2.0293)"/>
</clipPath>
</defs>
</svg>
