<svg width="24" height="24" viewBox="0 0 24 24" fill="none" xmlns="http://www.w3.org/2000/svg">
<path d="M20.1081 3.31399C20.1082 3.31402 20.1083 3.31404 20.1084 3.31406C20.3375 3.36535 20.5 3.56813 20.5 3.802V13.789C20.5 15.6278 19.5805 17.3457 18.0508 18.3649L18.0506 18.365L12 22.3991L5.94937 18.365L5.94929 18.3649C4.41843 17.3447 3.5 15.6278 3.5 13.79V3.802C3.5 3.56812 3.6625 3.36534 3.89163 3.31406C3.89172 3.31404 3.89182 3.31401 3.89192 3.31399L12 1.5122L20.1081 3.31399ZM12.5 2.64883V2.42574L11.8916 2.5609L4.89157 4.1159L4.5 4.20288V4.604V13.789C4.5 15.2931 5.25149 16.6983 6.50365 17.533L11.7226 21.013L12 21.198L12.2774 21.013L17.4964 17.533C18.7484 16.6983 19.5 15.2942 19.5 13.79V4.604V4.20283L19.1084 4.11588L12.5 2.64883ZM11.8556 13.5246L16.4516 8.92848L17.1598 9.63612L11.503 15.2929L7.96711 11.757L8.674 11.0501L11.1484 13.5246L11.502 13.8781L11.8556 13.5246Z" fill="#363B53" stroke="#543287"/>
</svg>
