<svg width="24" height="24" viewBox="0 0 24 24" fill="none" xmlns="http://www.w3.org/2000/svg">
<path d="M12.2441 17.8237L11.9999 17.687L11.7557 17.8237L5.64854 21.2423L7.01233 14.3774L7.06687 14.1029L6.86137 13.9129L1.72227 9.16085L8.6728 8.33652L8.95071 8.30356L9.06793 8.04944L11.9999 1.69364L14.9319 8.04944L15.0491 8.30356L15.327 8.33652L22.2776 9.16085L17.1385 13.9129L16.933 14.1029L16.9875 14.3774L18.3513 21.2423L12.2441 17.8237ZM16.7373 18.2475L15.8429 13.749L19.2104 10.6341L20.0061 9.89808L18.9298 9.77048L14.3747 9.23043L12.454 5.0656L11.9999 4.08099L11.5459 5.06564L9.62509 9.23137L5.07015 9.77047L3.99353 9.89789L4.78939 10.6341L8.15693 13.749L7.26251 18.2475L7.0511 19.3108L7.99711 18.7813L11.9999 16.541L16.0027 18.7813L16.9487 19.3108L16.7373 18.2475Z" fill="#363B53" stroke="#543287"/>
</svg>
