<svg width="24" height="24" viewBox="0 0 24 24" fill="none" xmlns="http://www.w3.org/2000/svg">
<path d="M12.9374 16.4419L12.5 16.4971V16.938V19V19.5H13H17.5V20.5H6.5V19.5H11H11.5V19V16.938V16.4971L11.0626 16.4419C9.25007 16.2134 7.58329 15.3312 6.37502 13.961C5.16675 12.5909 4.50003 10.8268 4.5 9C4.5 9 4.5 8.99999 4.5 8.99999V3.5H19.5V9C19.5 10.8268 18.8333 12.5909 17.625 13.961C16.4167 15.3312 14.7499 16.2134 12.9374 16.4419ZM6 4.5H5.5V5V9C5.5 10.7239 6.18482 12.3772 7.40381 13.5962C8.62279 14.8152 10.2761 15.5 12 15.5C13.7239 15.5 15.3772 14.8152 16.5962 13.5962C17.8152 12.3772 18.5 10.7239 18.5 9V5V4.5H18H6ZM1.5 5.5H2.5V8.5H1.5V5.5ZM21.5 5.5H22.5V8.5H21.5V5.5Z" fill="#363B53" stroke="#543287"/>
</svg>
