<svg width="24" height="24" viewBox="0 0 24 24" fill="none" xmlns="http://www.w3.org/2000/svg">
<path d="M21 7.48001V9.48001C20.9986 9.61984 20.9409 9.7532 20.84 9.85001C20.7389 9.94092 20.6057 9.98772 20.47 9.98001C18.8358 9.87665 17.274 9.26869 16 8.24001V16C16 19.3137 13.3137 22 10 22C6.68629 22 4 19.3137 4 16C4 12.6863 6.68629 10 10 10C10.1832 9.99006 10.3668 9.99006 10.55 10C10.8049 10.0209 11.0009 10.2343 11 10.49V12.49C11.001 12.6325 10.9388 12.768 10.83 12.86C10.7212 12.9577 10.5746 13.0017 10.43 12.98C10.2864 12.9767 10.1427 12.9834 10 13C8.34315 13 7 14.3432 7 16C7 17.6569 8.34315 19 10 19C11.6569 19 13 17.6569 13 16V2.50001C13 2.22386 13.2239 2.00001 13.5 2.00001H15.5C15.7577 1.99871 15.9742 2.19356 16 2.45001C16.2096 4.87077 18.1292 6.79038 20.55 7.00001C20.799 7.02487 20.9912 7.22995 21 7.48001Z" fill="#543287"/>
</svg>
