<svg width="38" height="34" viewBox="0 0 38 34" fill="none" xmlns="http://www.w3.org/2000/svg">
<path fill-rule="evenodd" clip-rule="evenodd" d="M36.4775 14.1457C36.9068 12.7627 35.3084 8.90135 34.0022 8.26089C33.6557 8.13115 33.2979 8.03481 32.9336 7.97314C33.5547 9.35618 34.5229 11.686 35.9203 15.3988C36.1297 14.9924 36.3157 14.574 36.4775 14.1457V14.1457Z" fill="#DD1A5D"/>
<path fill-rule="evenodd" clip-rule="evenodd" d="M15.4788 12.8462C12.2181 14.2756 9.65151 15.3431 6.34511 16.7354C3.33098 18.0256 2.40847 20.2255 3.60499 23.2328C3.9612 24.1611 4.31742 25.0336 4.6919 25.9247C5.15574 26.7672 5.84401 27.4598 6.67767 27.9228C7.51134 28.3858 8.4566 28.6005 9.4049 28.5422C10.1897 28.5119 10.9555 28.7913 11.5422 29.3219C12.6656 30.3986 13.5333 31.7631 14.6203 32.8862C15.7072 34.0094 17.8719 33.6381 19.0867 32.4592C20.3014 31.2804 19.2145 30.5007 18.6208 29.6189C18.3978 29.3265 18.2418 28.9872 18.1641 28.6257C18.0363 27.5583 18.018 26.4909 17.9358 25.0521C18.9405 24.5973 19.315 24.4117 20.3654 24.0218C19.4495 20.0151 17.7911 16.2223 15.4788 12.8462V12.8462Z" fill="#DD1A5D"/>
<path fill-rule="evenodd" clip-rule="evenodd" d="M37.2812 23.001C36.6509 21.0332 35.7102 19.1675 35.0617 17.209C35.0565 17.1379 35.0565 17.0665 35.0617 16.9955C33.0614 11.5376 31.8557 8.83652 31.262 7.62056C31.2436 7.59802 31.2282 7.57304 31.2164 7.54631L31.1342 7.35138C30.915 6.9244 30.8145 6.75733 30.8145 6.75733C30.0381 4.94732 29.3805 3.04449 28.5402 1.29018C28.3693 1.0354 28.1366 0.829772 27.8646 0.69318C27.5925 0.556587 27.2904 0.493658 26.9875 0.510481C26.5582 0.640431 26.2202 1.43869 26.0284 2.0049C25.9219 2.78559 25.7755 3.56013 25.59 4.32542C24.2277 7.5342 21.7313 10.1075 18.5936 11.5376L17.5889 11.9924C19.9403 15.3713 21.6474 19.1683 22.6215 23.1866C26.0163 21.8131 29.8044 21.8398 33.1801 23.2609C33.8378 23.5208 34.3858 24.0684 35.0069 24.3933C35.628 24.7182 36.5413 25.4607 36.9798 25.1544C37.4182 24.8481 37.4821 23.6136 37.2812 23.001Z" fill="#DD1A5D"/>
<path fill-rule="evenodd" clip-rule="evenodd" d="M1.84223 21.4507C1.84223 21.4507 0.0154853 22.054 0.810119 24.8851C1.60475 27.7161 3.55024 27.1499 3.80598 27.1406C3.80598 27.1406 1.68696 22.9173 1.84223 21.4507Z" fill="#DD1A5D"/>
</svg>
