<svg width="38" height="28" viewBox="0 0 38 28" fill="none" xmlns="http://www.w3.org/2000/svg">
<path d="M14.9151 26.9835C14.9151 26.9835 6.94343 23.0875 3.69047 23.2766C3.69047 23.2766 3.41624 24.383 1.74248 24.2033C0.0687212 24.0236 -0.479742 22.8132 1.00489 22.1608C2.48953 21.5083 5.82759 18.8227 9.9978 16.8747C9.9978 16.8747 8.97652 7.22931 16.9576 3.61702C16.9576 3.61702 19.5581 2.32151 23.8229 1.76359C23.8229 1.76359 23.6337 0.373523 25.4021 0.468085C27.1609 0.562648 27.2555 1.95272 27.2555 1.95272C27.2555 1.95272 33.3737 3.99527 35.4162 7.513C37.4588 11.0402 38.0167 17.5272 37.8276 18.643C37.8276 18.643 37.1751 19.5697 36.1633 19.4752C35.142 19.3806 30.1396 19.6643 30.1396 19.6643C30.1396 19.6643 27.1704 24.3924 20.5888 26.9929C20.5699 26.9835 17.0711 28.2317 14.9151 26.9835Z" fill="#DD1A5D"/>
</svg>
