<svg width="48" height="29" viewBox="0 0 48 29" fill="none" xmlns="http://www.w3.org/2000/svg">
<path d="M23.5093 3.78316C22.2327 4.81389 19.9537 6.98883 18.6487 8.0763C15.5187 10.6862 19.7929 14.3836 22.5636 12.1236C23.7646 11.178 26.7717 8.41673 28.3981 10.081L37.3438 18.0054L40.5116 16.0101L35.0743 3.89663C30.904 4.24651 27.5187 0.51129 23.5093 3.78316Z" fill="#DD1A5D"/>
<path d="M22.261 2.90377L17.6085 7.178C14.592 10.1284 16.5684 12.1047 18.1854 13.3435C22.1475 16.36 24.8048 10.8659 27.0459 10.7619L36.3603 18.9038C36.5068 19.034 36.6802 19.1303 36.8682 19.1859C37.0561 19.2415 37.254 19.2549 37.4478 19.2253C36.6818 21.3246 35.0364 21.6839 33.6653 20.8423C34.2137 22.6106 31.4998 24.6248 29.7031 23.0456C29.7696 23.4927 29.708 23.9495 29.5256 24.3631C29.3431 24.7767 29.0473 25.1301 28.6722 25.3825C28.2972 25.6348 27.8583 25.7757 27.4065 25.7889C26.9546 25.8021 26.5083 25.687 26.1192 25.457C26.2043 27.5846 23.7173 28.9085 22.2705 27.5846L25.1074 25.0787C26.6582 23.5468 24.7764 19.8589 22.0435 20.7667C22.043 20.3175 21.9314 19.8755 21.7187 19.4799C21.5059 19.0843 21.1987 18.7475 20.8242 18.4994C20.4498 18.2513 20.0198 18.0997 19.5726 18.0581C19.1254 18.0165 18.6748 18.0861 18.261 18.2607C18.212 17.8482 18.0744 17.4512 17.8577 17.0968C17.641 16.7424 17.3503 16.4389 17.0055 16.2073C16.6607 15.9756 16.2699 15.8212 15.8599 15.7545C15.4498 15.6878 15.0303 15.7105 14.6298 15.821C14.3934 13.769 12.1239 12.1236 10.053 14.0243L7.40523 16.4262L6.76221 16.0196L12.1617 3.95341C16.3981 4.06689 18.2516 1.49479 22.261 2.90377Z" fill="#DD1A5D"/>
<path d="M11.0409 14.9097L8.06214 17.5707C7.38844 18.1726 7.33018 19.2066 7.93203 19.8803C8.53387 20.554 9.56791 20.6123 10.2416 20.0105L13.2203 17.3495C13.8941 16.7476 13.9523 15.7136 13.3505 15.0399C12.7486 14.3662 11.7146 14.3079 11.0409 14.9097Z" fill="#DD1A5D"/>
<path d="M14.4088 17.456L11.4434 20.098C10.7727 20.6956 10.7134 21.7237 11.311 22.3944C11.9085 23.0651 12.9367 23.1244 13.6074 22.5268L16.5727 19.8848C17.2434 19.2872 17.3027 18.2591 16.7051 17.5884C16.1076 16.9177 15.0795 16.8584 14.4088 17.456Z" fill="#DD1A5D"/>
<path d="M18.0186 20.0175L15.0533 22.6595C14.3826 23.2571 14.3233 24.2852 14.9208 24.9559C15.5184 25.6266 16.5465 25.6859 17.2172 25.0883L20.1826 22.4463C20.8533 21.8487 20.9126 20.8206 20.315 20.1499C19.7174 19.4792 18.6893 19.4199 18.0186 20.0175Z" fill="#DD1A5D"/>
<path d="M21.6192 22.579L18.6538 25.2211C17.9832 25.8186 17.9239 26.8468 18.5214 27.5174C19.119 28.1881 20.1471 28.2474 20.8178 27.6499L23.7832 25.0078C24.4539 24.4102 24.5132 23.3821 23.9156 22.7114C23.318 22.0407 22.2899 21.9815 21.6192 22.579Z" fill="#DD1A5D"/>
<path d="M5.9623 1.14605L0.426427 13.5974C0.190918 14.1271 0.429414 14.7474 0.959123 14.9829L4.06115 16.3621C4.59086 16.5976 5.21119 16.3591 5.4467 15.8294L10.9826 3.37806C11.2181 2.84836 10.9796 2.22802 10.4499 1.99251L7.34785 0.613349C6.81814 0.37784 6.19781 0.616336 5.9623 1.14605Z" fill="#DD1A5D"/>
<path d="M41.9579 2.51112C41.3363 1.12427 39.7101 0.502985 38.3257 1.12345C36.9412 1.74392 36.3227 3.37117 36.9442 4.75803L41.1248 14.0863C41.7463 15.4732 43.3725 16.0944 44.757 15.474C46.1415 14.8535 46.76 13.2263 46.1384 11.8394L41.9579 2.51112Z" fill="#DD1A5D"/>
</svg>
