<svg width="24" height="41" viewBox="0 0 24 41" fill="none" xmlns="http://www.w3.org/2000/svg">
<path d="M23.565 17.5524V14.4243C23.565 14.1781 23.4688 13.942 23.2975 13.768C23.1262 13.5939 22.8939 13.4961 22.6516 13.4961C22.4094 13.4961 22.1771 13.5939 22.0058 13.768C21.8345 13.942 21.7383 14.1781 21.7383 14.4243V17.6359C21.7323 18.9491 21.4716 20.2481 20.971 21.4588C20.4704 22.6694 19.7398 23.7678 18.821 24.6912C17.9023 25.6146 16.8133 26.3447 15.6165 26.8399C14.4197 27.3351 13.1386 27.5856 11.8464 27.577H11.6912C10.3954 27.5782 9.11216 27.3198 7.91481 26.8164C6.71746 26.3131 5.62953 25.5747 4.7133 24.6436C3.79706 23.7125 3.0705 22.6069 2.57519 21.3901C2.07989 20.1733 1.82556 18.8692 1.82676 17.5524V14.4243C1.82676 14.1781 1.73053 13.942 1.55924 13.768C1.38795 13.5939 1.15563 13.4961 0.913385 13.4961C0.671143 13.4961 0.438823 13.5939 0.267532 13.768C0.0962417 13.942 1.23739e-05 14.1781 1.23739e-05 14.4243V17.6359C-0.00410436 20.5151 1.01912 23.2981 2.88001 25.4692C4.7409 27.6402 7.31323 29.0519 10.1202 29.4427V37.4253H3.63523C3.42619 37.4241 3.21898 37.465 3.02562 37.5457C2.83225 37.6265 2.65657 37.7454 2.50875 37.8956C2.36093 38.0458 2.24391 38.2244 2.16447 38.4209C2.08504 38.6174 2.04475 38.828 2.04597 39.0404V39.0404C2.04475 39.2528 2.08504 39.4634 2.16447 39.6599C2.24391 39.8564 2.36093 40.035 2.50875 40.1852C2.65657 40.3354 2.83225 40.4543 3.02562 40.5351C3.21898 40.6158 3.42619 40.6567 3.63523 40.6555H19.8202C20.0292 40.6567 20.2364 40.6158 20.4298 40.5351C20.6232 40.4543 20.7989 40.3354 20.9467 40.1852C21.0945 40.035 21.2115 39.8564 21.291 39.6599C21.3704 39.4634 21.4107 39.2528 21.4095 39.0404V39.0404C21.4095 38.8283 21.3684 38.6183 21.2885 38.4223C21.2086 38.2264 21.0916 38.0483 20.944 37.8984C20.7964 37.7484 20.6212 37.6294 20.4284 37.5483C20.2356 37.4671 20.0289 37.4253 19.8202 37.4253H13.3261V29.4334C16.16 29.0509 18.7606 27.6351 20.6441 25.4496C22.5275 23.264 23.5656 20.4576 23.565 17.5524Z" fill="#DD1A5D"/>
<path d="M3.77246 17.5339C3.84893 18.8062 4.22481 20.0413 4.86851 21.1353V21.1353C4.8935 21.1881 4.92413 21.2379 4.95984 21.2838L5.04205 21.4231L5.13339 21.553L5.22472 21.683L5.31606 21.8036L5.4074 21.9243L5.50787 22.045L5.60834 22.1563L5.69968 22.2677L5.80015 22.3698L5.90062 22.4812L6.01022 22.5926C6.0455 22.6315 6.08539 22.6658 6.12896 22.6947L6.2477 22.8061C6.52171 23.0381 6.80486 23.2516 7.09714 23.4558L7.21587 23.5301L7.32548 23.5858H7.38028L7.48075 23.6415H7.54469L7.63603 23.6972L8.03791 24.1334H8.12925H8.20232L8.30279 24.1798H8.37586H8.46719H8.5494H8.64074H8.72294H8.81428H8.89648H8.98782H9.07915H9.17049H9.26183H9.35316H9.4445H9.53584H9.62718H9.71851H9.81899H9.90119H10.0017H10.093H10.1935H10.2848H10.3853H10.4766H10.5771H12.8788H12.9793H13.0706H13.1711H13.2624H13.3629H13.4451H13.5455H13.6369H13.7374H13.8196H13.92H14.0022H14.1027H14.1849H14.2854H14.3676H14.4589H14.5411H14.6416H14.7238L14.8151 24.1334H14.8973H14.9887H15.0709H15.1531H15.2353L15.3266 24.087H15.4088H15.491L15.5732 24.0406H15.6554L15.8107 23.9478H15.8929L15.9751 23.8921H16.0482L16.1304 23.8364H16.2035L16.2857 23.7807L16.3587 23.725L16.4409 23.6693C16.4582 23.6488 16.4802 23.6329 16.5049 23.6229L16.5871 23.5579L16.651 23.5022L16.7332 23.4373L16.7971 23.3909L16.8794 23.3166L16.9342 23.2702L17.0164 23.1959L17.0712 23.1402L17.1716 22.9268L17.2264 22.8711L17.3086 22.7968L17.3634 22.7411L17.4365 22.6576L17.4913 22.6019L17.5644 22.5276L17.6192 22.4719L17.6923 22.3884L17.7379 22.3327L17.811 22.2492V22.1935L17.8841 22.1007V22.045L17.9571 21.9521C17.9844 21.9204 18.0089 21.8862 18.0302 21.85V21.8036L18.1033 21.7015L18.1855 21.5809C18.3487 21.3359 18.4981 21.0818 18.633 20.8197V20.8197L18.7061 20.6805L18.9984 20.4206V20.235C18.9945 20.1917 18.9945 20.1482 18.9984 20.105V20.105L19.0532 19.9751V19.9286C19.0643 19.884 19.0796 19.8404 19.0988 19.7987V19.743V19.6223V19.5666C19.1029 19.5234 19.1029 19.4799 19.0988 19.4367V19.381C19.1028 19.3409 19.1028 19.3005 19.0988 19.2603V19.1954V19.0654V19.0097V18.8798V18.8241C19.1032 18.7809 19.1032 18.7373 19.0988 18.6941V18.6384C19.0988 18.6384 19.0988 18.5456 19.0988 18.4992V18.4435V18.3043C19.1039 18.2549 19.1039 18.2051 19.0988 18.1558C19.0988 18.1001 19.0988 18.0537 19.0988 17.998C19.0988 17.9423 19.0988 17.8866 19.0988 17.8309C19.0988 17.636 19.0988 17.4318 19.0988 17.2368V7.19362C19.0988 7.05439 19.0988 6.91516 19.0988 6.78521C19.0988 6.65526 19.0988 6.64598 19.0988 6.581C19.0944 6.55958 19.0944 6.53745 19.0988 6.51603C19.0946 6.47282 19.0946 6.42929 19.0988 6.38608C19.0944 6.35841 19.0944 6.3302 19.0988 6.30254C19.0988 6.30254 19.0988 6.219 19.0988 6.18187C19.0988 6.14474 19.0988 6.12618 19.0988 6.09833C19.0988 6.07049 19.0988 6.02408 19.0988 5.98695C19.0988 5.94982 19.0988 5.93126 19.0988 5.89413C19.0937 5.86029 19.0937 5.82586 19.0988 5.79202C19.0988 5.79202 19.0988 5.72705 19.0988 5.6992C19.0988 5.67136 19.0988 5.63423 19.0988 5.5971C19.0937 5.56638 19.0937 5.535 19.0988 5.50428V5.40218C19.1031 5.3745 19.1031 5.34631 19.0988 5.31864V5.21653C19.1031 5.18575 19.1031 5.1545 19.0988 5.12371V5.03089V4.93807V4.83597V4.75243V4.65961V4.56679C19.0952 4.53596 19.0952 4.5048 19.0988 4.47397V4.38115V4.28833C19.0954 4.26059 19.0954 4.23252 19.0988 4.20479V4.11197V4.02843V3.93561V3.85207V3.75925V3.67571V3.59217L19.0532 3.50863C19.0562 3.48087 19.0562 3.45285 19.0532 3.42509V3.34155C19.0077 3.25836 19.0077 3.25836 18.9621 3.17495L18.907 3.09094V3.0074L18.8522 2.92386C18.855 2.89919 18.855 2.87427 18.8522 2.8496L18.3773 2.78463V2.71037L18.3225 2.62683L18.2677 2.55257L18.2129 2.46904L18.085 2.3855V2.30196L18.0393 2.2277C18.0134 2.2075 17.9917 2.18226 17.9754 2.15344L17.9206 2.08847L17.8475 2.00493L17.8019 1.93996L17.6923 1.85642L17.6375 1.80072L17.5644 1.71719L17.5096 1.66149L17.4274 1.56867C17.4274 1.56867 17.4274 1.56867 17.3817 1.56867L17.2538 1.44801L17.1168 1.31806L17.0255 1.2438L16.9707 1.18811L16.8794 1.11385L16.7697 0.928209H16.6875L16.6145 0.872516L16.5323 0.807542L16.4683 0.761131L16.3861 0.696157L16.3131 0.649746L16.2583 0.556926H16.1852L16.103 0.501233L16.0299 0.454822L15.9477 0.39913L15.8655 0.352719L15.7833 0.306309H15.7102L15.6189 0.250617H15.5367L15.4545 0.204206L15.3449 0H15.2536H15.1805H15.0891H15.0069H14.9156H14.8334H14.7421H14.6599H14.5594H14.4772H14.3858H14.2945H14.2032H14.1118H14.0205H13.9292H13.8378H13.7465H13.646H13.5547H13.4633H13.372H13.2715H13.1802H13.0797H12.9884H12.8788H12.7966H10.568H10.4675H10.3761H10.2757H10.1843H10.0839H9.99253H9.89205H9.80985H9.70938H9.61804H9.52671H9.43537H9.34403H9.2527H9.16136H9.07002H8.97868H8.88735H8.80514H8.7138H8.6316H8.54026H8.45806H8.36672H8.29365L8.19318 0.0464106H8.12011L8.02878 0.0928212H7.95571L7.86437 0.148513H7.80043L7.69996 0.204206H7.64516L7.53556 0.269181L7.41682 0.343437C7.12192 0.54034 6.83831 0.754176 6.56738 0.983902V0.983902L6.44864 1.09529C6.40507 1.12421 6.36518 1.1585 6.3299 1.19739V1.19739L6.2203 1.30877L6.11983 1.42016L6.01936 1.52226L5.92802 1.63365L5.82755 1.75432L5.73621 1.87498L5.64487 1.99565L5.55354 2.11632L5.4622 2.24627L5.37086 2.37622L5.28866 2.52473C5.25295 2.57068 5.22231 2.62048 5.19732 2.67324V2.67324C4.55363 3.76729 4.17775 5.00237 4.10128 6.27469C4.10128 6.44177 4.10128 6.60885 4.10128 6.77592V16.6149C4.10128 16.782 4.10128 16.9491 4.10128 17.1162L3.77246 17.5339ZM7.24327 7.94547C7.24566 7.68527 7.34843 7.43641 7.52948 7.25242C7.71053 7.06842 7.95541 6.96399 8.21145 6.96157H15.2353C15.4921 6.96157 15.7383 7.06523 15.9199 7.24974C16.1015 7.43426 16.2035 7.68452 16.2035 7.94547V7.94547C16.2047 8.07502 16.1805 8.20352 16.1322 8.32345C16.084 8.44339 16.0128 8.55234 15.9226 8.64395C15.8325 8.73557 15.7252 8.80799 15.6072 8.857C15.4892 8.90601 15.3628 8.93061 15.2353 8.92937H8.21145C7.95467 8.92937 7.70841 8.82571 7.52685 8.64119C7.34528 8.45667 7.24327 8.20641 7.24327 7.94547V7.94547ZM7.24327 12.1038C7.24806 11.8461 7.35217 11.6006 7.53323 11.4201C7.71428 11.2396 7.95781 11.1385 8.21145 11.1385H15.2353C15.4835 11.1358 15.7231 11.231 15.9036 11.4041C16.0842 11.5772 16.1917 11.8147 16.2035 12.0667C16.2047 12.1963 16.1805 12.3248 16.1322 12.4447C16.084 12.5646 16.0128 12.6736 15.9226 12.7652C15.8325 12.8568 15.7252 12.9292 15.6072 12.9782C15.4892 13.0273 15.3628 13.0519 15.2353 13.0506H8.21145C7.95467 13.0506 7.70841 12.947 7.52685 12.7624C7.34528 12.5779 7.24327 12.3277 7.24327 12.0667V12.1038ZM7.24327 16.2622C7.24327 16.0013 7.34528 15.751 7.52685 15.5665C7.70841 15.382 7.95467 15.2783 8.21145 15.2783H15.2353C15.3628 15.2771 15.4892 15.3017 15.6072 15.3507C15.7252 15.3997 15.8325 15.4721 15.9226 15.5637C16.0128 15.6553 16.084 15.7643 16.1322 15.8842C16.1805 16.0042 16.2047 16.1327 16.2035 16.2622C16.2035 16.5232 16.1015 16.7734 15.9199 16.9579C15.7383 17.1425 15.4921 17.2461 15.2353 17.2461H8.21145C7.95541 17.2437 7.71053 17.1393 7.52948 16.9553C7.34843 16.7713 7.24566 16.5224 7.24327 16.2622V16.2622Z" fill="#DD1A5D"/>
</svg>
