<svg width="38" height="38" viewBox="0 0 38 38" fill="none" xmlns="http://www.w3.org/2000/svg">
<path d="M37.1656 16.2482C37.1656 16.0496 37.1562 15.8511 37.1278 15.6525C37.0332 14.9905 36.5982 14.5083 35.9552 14.3475C35.7945 14.3097 35.6337 14.2908 35.4729 14.2908C35.246 14.2908 35.0191 14.3286 34.7921 14.3948C33.5439 14.773 32.2956 15.1607 31.0474 15.539C28.8252 16.2198 26.6124 16.9007 24.3902 17.5721C23.0285 17.9882 22.0261 19.3404 22.0356 20.8061C22.0734 24.1442 22.0451 26.3664 22.0451 29.591C22.0451 29.7518 22.0451 29.9031 22.0451 30.0733C22.0451 30.1678 22.0451 30.2624 22.0451 30.3853C21.8843 30.3286 21.7519 30.2719 21.6195 30.234C21.3453 30.1584 21.0711 30.1111 20.7968 30.0827C20.6739 30.0733 20.5604 30.0638 20.4375 30.0638C20.0592 30.0638 19.6904 30.1111 19.3122 30.1773C18.6881 30.3002 18.1018 30.5083 17.5722 30.792C16.8252 31.1891 16.1822 31.747 15.6715 32.513C15.1987 33.2128 14.9718 33.9882 15.1136 34.8392C15.3122 36.0118 16.0687 36.7116 17.1467 37.0804C17.7141 37.2695 18.272 37.3641 18.8299 37.3641C19.7188 37.3641 20.5888 37.1276 21.4209 36.6927C23.0569 35.8321 23.9363 34.5177 23.9079 32.5981C23.889 31.3593 23.889 29.9976 23.889 28.6359C23.889 26.773 23.8985 24.8723 23.9079 23.1797C23.9079 22.9811 23.9269 22.773 24.0025 22.5934C24.2011 22.1111 24.6077 21.8558 25.0711 21.7045C26.8583 21.1371 28.6455 20.5792 30.4328 20.0213C31.681 19.6336 32.9387 19.2364 34.1869 18.8487C34.3666 18.792 34.5273 18.7636 34.6597 18.7636C35.0852 18.7636 35.2838 19.0473 35.2838 19.643C35.2838 22.0071 35.2838 24.9763 35.2838 27.3404C35.2838 27.4255 35.2838 27.5106 35.2838 27.6241C34.4233 27.3688 33.941 27.2553 33.4115 27.2553C33.0994 27.2553 32.7685 27.2931 32.324 27.3688C30.8299 27.6241 29.5912 28.3428 28.7306 29.6194C28.2011 30.4042 27.9836 31.2648 28.2295 32.2009C28.5037 33.2411 29.2413 33.8747 30.2247 34.2057C30.8394 34.4137 31.4446 34.5083 32.0309 34.5083C33.1751 34.5083 34.2625 34.13 35.2933 33.4208C36.551 32.5603 37.1845 31.3782 37.1656 29.799C37.1467 24.8723 37.1656 21.1749 37.1656 16.2482Z" fill="#DD1A5D"/>
<path d="M15.9363 0.654846C7.58643 0.654846 0.825195 7.42553 0.825195 15.766C0.825195 23.9267 7.29328 30.5745 15.3784 30.8676C16.3335 29.8747 17.5722 29.2222 19.0758 28.9196C19.5581 28.8251 20.012 28.7778 20.4469 28.7778C20.5604 28.7778 20.6644 28.7778 20.7779 28.7872C20.7779 28.2199 20.7779 27.6903 20.7779 27.1702C20.7874 25.0709 20.7874 23.2459 20.759 20.8156C20.7401 18.8014 22.1113 16.9196 24.0214 16.3428C25.941 15.7565 27.8512 15.1702 29.7614 14.5839C30.168 14.461 30.5652 14.3381 30.9718 14.2151C30.1964 6.59338 23.7661 0.654846 15.9363 0.654846Z" fill="#DD1A5D"/>
<path d="M19.804 17.8274C19.0286 19.1418 17.648 19.8321 16.1539 19.8321C14.6598 19.8321 13.3549 19.104 12.5795 17.8369C12.1823 17.2033 11.9932 16.513 11.9932 15.747C11.9932 14.2435 12.8537 12.8912 14.1019 12.2009C14.726 11.8511 15.4069 11.6808 16.1539 11.6808C17.648 11.6808 18.953 12.409 19.7284 13.6856L18.1776 14.5839C18.1019 14.4232 17.9695 14.2624 17.8182 14.1206C17.3927 13.7139 16.901 13.487 16.343 13.4492C15.2083 13.3735 14.1586 14.2435 14.0168 15.3782C13.8277 16.8629 14.7449 18.0733 16.1728 18.0733C16.8159 18.0733 17.3643 17.8842 17.8088 17.487C17.979 17.3357 18.1397 17.156 18.2816 16.9385L19.804 17.8274Z" fill="white"/>
</svg>
