<svg width="30" height="38" viewBox="0 0 30 38" fill="none" xmlns="http://www.w3.org/2000/svg">
<path d="M28.3331 4.78725C28.2291 4.78725 28.1156 4.78725 28.0022 4.78725C25.1464 4.78725 19.7847 4.3428 15.9738 1.32626L14.9998 0.550842L14.0258 1.32626C10.2244 4.33335 4.86269 4.78725 1.99744 4.78725C1.88396 4.78725 1.77049 4.78725 1.66647 4.78725L0.0683594 4.76834V19.8605C0.0683594 25.0237 3.7563 29.4586 6.83904 32.2577C9.93124 35.0662 13.2031 36.9007 14.5364 37.3073L14.9998 37.4492L15.4632 37.3073C16.7965 36.9007 20.0589 35.0662 23.1606 32.2577C26.2528 29.4586 29.9312 25.0237 29.9312 19.8605V4.76834L28.3331 4.78725Z" fill="#DD1A5D"/>
<path d="M20.8249 22.0827C19.6713 24.0402 17.6098 25.0709 15.3781 25.0709C13.1464 25.0709 11.1984 23.9929 10.0542 22.0922C9.45849 21.1466 9.1748 20.1158 9.1748 18.9811C9.1748 16.7305 10.4609 14.7163 12.3237 13.6856C13.2505 13.1655 14.2717 12.9102 15.3876 12.9102C17.6192 12.9102 19.5672 13.9882 20.7114 15.8983L18.3947 17.2317C18.2717 16.9953 18.0921 16.7589 17.8557 16.5414C17.1653 15.8605 16.3332 15.5295 15.3876 15.5295C13.4396 15.5295 12.1441 17.0331 12.1441 18.9811C12.1441 20.9291 13.449 22.4326 15.3876 22.4326C16.3521 22.4326 17.1653 22.1489 17.8178 21.5532C18.0731 21.3357 18.3096 21.0615 18.527 20.7399L20.8249 22.0827Z" fill="white"/>
</svg>
