<svg width="24" height="24" viewBox="0 0 24 24" fill="none" xmlns="http://www.w3.org/2000/svg">
<path d="M14.25 10.125H17.25" stroke="#543287" stroke-width="2" stroke-linecap="round" stroke-linejoin="round"/>
<path d="M6.75 10.125H9.75" stroke="#543287" stroke-width="2" stroke-linecap="round" stroke-linejoin="round"/>
<path d="M8.25 8.625V11.625" stroke="#543287" stroke-width="2" stroke-linecap="round" stroke-linejoin="round"/>
<path d="M16.1267 5.22559L7.87544 5.24998C6.72928 5.25006 5.61977 5.65388 4.74168 6.39053C3.86359 7.12718 3.27304 8.1496 3.0737 9.2783L3.0745 9.27844L1.54034 17.1687C1.44344 17.7185 1.52433 18.2849 1.77125 18.7855C2.01818 19.2862 2.41829 19.6952 2.91347 19.9529C3.40865 20.2107 3.97311 20.3039 4.52488 20.219C5.07665 20.1341 5.58698 19.8756 5.98177 19.4809L5.98162 19.4807L10.035 15L16.1267 14.9756C17.4197 14.9756 18.6596 14.462 19.5739 13.5477C20.4881 12.6335 21.0017 11.3935 21.0017 10.1006C21.0017 8.80766 20.4881 7.56768 19.5739 6.65344C18.6596 5.7392 17.4197 5.22559 16.1267 5.22559V5.22559Z" stroke="#543287" stroke-width="2" stroke-linecap="round" stroke-linejoin="round"/>
<path d="M20.9277 9.25391L22.4606 17.1686C22.5575 17.7184 22.4766 18.2847 22.2297 18.7854C21.9827 19.2861 21.5826 19.695 21.0874 19.9528C20.5923 20.2106 20.0278 20.3038 19.476 20.2189C18.9243 20.134 18.4139 19.8754 18.0191 19.4807L18.0193 19.4805L13.9688 14.9841" stroke="#543287" stroke-width="2" stroke-linecap="round" stroke-linejoin="round"/>
</svg>
