<svg width="34" height="24" viewBox="0 0 34 24" fill="none" xmlns="http://www.w3.org/2000/svg">
<path d="M13.4252 23.3605C13.4252 23.3605 6.45007 19.9515 3.60373 20.117C3.60373 20.117 3.36378 21.0851 1.89924 20.9279C0.434704 20.7707 -0.0452014 19.7116 1.25385 19.1406C2.55291 18.5697 5.47371 16.2198 9.12265 14.5153C9.12265 14.5153 8.22903 6.07563 15.2125 2.91487C15.2125 2.91487 17.4879 1.7813 21.2196 1.29312C21.2196 1.29312 21.0541 0.0768132 22.6014 0.159555C24.1404 0.242298 24.2231 1.45861 24.2231 1.45861C24.2231 1.45861 29.5765 3.24584 31.3638 6.32386C33.151 9.41015 33.6392 15.0863 33.4737 16.0626C33.4737 16.0626 32.9028 16.8735 32.0174 16.7908C31.1238 16.708 26.7468 16.9562 26.7468 16.9562C26.7468 16.9562 24.1486 21.0934 18.3898 23.3688C18.3732 23.3605 15.3118 24.4527 13.4252 23.3605Z" fill="#DD1A5D"/>
</svg>
