<svg width="56" height="56" viewBox="0 0 56 56" fill="none" xmlns="http://www.w3.org/2000/svg">
<path d="M14.8715 49.6963C12.404 49.6963 10.395 47.6873 10.395 45.2198V32.6198C10.395 32.2138 10.724 31.8848 11.13 31.8848C11.536 31.8848 11.865 32.2138 11.865 32.6198V45.2233C11.865 46.8823 13.2125 48.2298 14.8715 48.2298C16.5305 48.2298 17.878 46.8823 17.878 45.2233V32.6198C17.878 32.2138 18.207 31.8848 18.613 31.8848C19.019 31.8848 19.348 32.2138 19.348 32.6198V45.2233C19.348 47.6908 17.339 49.6963 14.8715 49.6963V49.6963Z" fill="white"/>
<path d="M22.5225 33.3555H9.28548C6.94048 33.3555 5.02948 31.448 5.02948 29.0995V17.6544C5.02948 15.3094 6.93698 13.3984 9.28548 13.3984H22.519C22.925 13.3984 23.254 13.7274 23.254 14.1334V32.6205C23.2575 33.0265 22.9285 33.3555 22.5225 33.3555V33.3555ZM9.28548 14.8719C7.74898 14.8719 6.49948 16.1214 6.49948 17.6579V29.1029C6.49948 30.6395 7.74898 31.889 9.28548 31.889H21.784V14.8719H9.28548Z" fill="white"/>
<path d="M41.9265 40.453C41.8425 40.453 41.755 40.439 41.6745 40.4075L22.2705 33.3095C21.98 33.2045 21.7875 32.928 21.7875 32.62V14.1365C21.7875 13.8285 21.98 13.552 22.2705 13.447L41.6745 6.34898C41.8985 6.26498 42.1505 6.29998 42.3465 6.43648C42.5425 6.57298 42.6615 6.80048 42.6615 7.03848V39.718C42.6615 39.9595 42.546 40.1835 42.3465 40.32C42.2205 40.4075 42.0735 40.453 41.9265 40.453ZM23.2575 32.1055L41.1915 38.668V8.08848L23.2575 14.651V32.1055Z" fill="white"/>
<path d="M38.0344 39.0286C37.6284 39.0286 37.2994 38.6996 37.2994 38.2936V8.45961C37.2994 8.05361 37.6284 7.72461 38.0344 7.72461C38.4404 7.72461 38.7694 8.05361 38.7694 8.45961V38.2936C38.7694 38.6996 38.4404 39.0286 38.0344 39.0286Z" fill="white"/>
<path d="M41.9229 27.8528C41.5274 27.8528 41.2019 27.5378 41.1879 27.1423C41.1739 26.7363 41.4924 26.3968 41.8984 26.3828C43.5224 26.3303 44.828 24.9618 44.8035 23.3343C44.7825 21.7593 43.4874 20.4328 41.9159 20.3733C41.9124 20.3733 41.9089 20.3733 41.9054 20.3733C41.5064 20.3663 41.1879 20.0408 41.1879 19.6383C41.1879 19.2323 41.5169 18.9033 41.9229 18.9033H41.9544H41.9649C43.1129 18.9453 44.1875 19.4248 44.996 20.2508C45.8045 21.0803 46.2595 22.1653 46.2735 23.3133C46.291 24.4963 45.85 25.6198 45.031 26.4738C44.2155 27.3243 43.1199 27.8143 41.9439 27.8528C41.9404 27.8528 41.9334 27.8528 41.9229 27.8528V27.8528Z" fill="white"/>
<path d="M5.76448 28.0348H3.88498C2.41848 28.0348 1.22498 26.8413 1.22498 25.3748V21.3778C1.22498 19.9113 2.41848 18.7178 3.88498 18.7178H5.76448C6.17048 18.7178 6.49948 19.0468 6.49948 19.4528V27.2998C6.49948 27.7058 6.17048 28.0348 5.76448 28.0348ZM3.88498 20.1878C3.23048 20.1878 2.69498 20.7233 2.69498 21.3778V25.3748C2.69498 26.0293 3.23048 26.5648 3.88498 26.5648H5.02948V20.1878H3.88498Z" fill="white"/>
<path d="M54.04 24.1116H49.924C49.518 24.1116 49.189 23.7826 49.189 23.3766C49.189 22.9706 49.518 22.6416 49.924 22.6416H54.04C54.446 22.6416 54.775 22.9706 54.775 23.3766C54.775 23.7826 54.446 24.1116 54.04 24.1116Z" fill="white"/>
<path d="M47.95 19.1557C47.761 19.1557 47.5755 19.0822 47.432 18.9387C47.145 18.6517 47.145 18.1861 47.432 17.8991L50.3405 14.9906C50.6275 14.7036 51.093 14.7036 51.38 14.9906C51.667 15.2776 51.667 15.7431 51.38 16.0301L48.4715 18.9387C48.328 19.0822 48.139 19.1557 47.95 19.1557Z" fill="white"/>
<path d="M50.7255 31.9232C50.5365 31.9232 50.351 31.8532 50.2075 31.7062L47.299 28.7977C47.012 28.5107 47.012 28.0452 47.299 27.7582C47.586 27.4712 48.0515 27.4712 48.3385 27.7582L51.247 30.6667C51.534 30.9537 51.534 31.4192 51.247 31.7062C51.1 31.8532 50.9145 31.9232 50.7255 31.9232Z" fill="white"/>
</svg>
