<svg width="56" height="56" viewBox="0 0 56 56" fill="none" xmlns="http://www.w3.org/2000/svg">
<path d="M51.8933 12.922H36.05V6.37934C36.05 6.07134 35.798 5.81934 35.49 5.81934H20.51C20.202 5.81934 19.95 6.07134 19.95 6.37934V12.9267H4.10663C3.79863 12.9267 3.54663 13.1787 3.54663 13.4867V49.6253C3.54663 49.9333 3.79863 50.1853 4.10663 50.1853H51.8933C52.2013 50.1853 52.4533 49.9333 52.4533 49.6253V13.482C52.4533 13.174 52.2013 12.922 51.8933 12.922V12.922ZM46.9886 14.042V49.0607H9.0113V14.042H46.9886ZM32.0973 12.922H23.9026V9.69734H32.102V12.922H32.0973ZM21.07 6.93934H34.9346V12.9267H33.222V9.142C33.222 8.834 32.97 8.582 32.662 8.582H23.3426C23.0346 8.582 22.7826 8.834 22.7826 9.142V12.9267H21.07V6.93934ZM4.66663 14.042H7.8913V49.0607H4.66663V14.042ZM51.3333 49.0607H48.1086V14.042H51.3333V49.0607Z" fill="white"/>
<path d="M24.7706 34.8878C25.0926 35.3824 25.5406 35.7511 26.1099 35.9938C26.4833 36.1524 26.9126 36.2598 27.4026 36.3158V37.8791C27.4026 38.1871 27.6546 38.4391 27.9626 38.4391C28.2706 38.4391 28.5226 38.1871 28.5226 37.8791V36.3531C29.0686 36.3204 29.5679 36.2038 30.0206 35.9984C30.5526 35.7558 30.9586 35.4151 31.2433 34.9764C31.5279 34.5378 31.6679 34.0711 31.6679 33.5764C31.6679 33.0771 31.5373 32.6384 31.2806 32.2511C31.0239 31.8684 30.6226 31.5511 30.0813 31.3038C29.7079 31.1358 29.0219 30.9351 28.0233 30.7111C28.0046 30.7064 27.9859 30.7018 27.9673 30.6971C27.0013 30.4731 26.3993 30.2584 26.1659 30.0484C25.9233 29.8338 25.8019 29.5584 25.8019 29.2224C25.8019 28.8351 25.9746 28.5084 26.3153 28.2331C26.6559 27.9624 27.1973 27.8224 27.9439 27.8224H27.9673C28.6719 27.8271 29.2039 27.9764 29.5679 28.2751C29.8293 28.4898 30.0113 28.7744 30.1186 29.1338C30.2026 29.4091 30.4593 29.5911 30.7439 29.5678C31.1266 29.5398 31.3833 29.1664 31.2806 28.7978C31.2059 28.5318 31.0893 28.2844 30.9399 28.0558C30.6553 27.6218 30.2493 27.2951 29.7266 27.0758C29.3673 26.9264 28.9706 26.8238 28.5366 26.7771V25.2231C28.5366 24.9151 28.2846 24.6631 27.9766 24.6631C27.6686 24.6631 27.4166 24.9151 27.4166 25.2231V26.7631C26.9779 26.8051 26.5719 26.9031 26.1939 27.0571C25.6806 27.2671 25.2933 27.5798 25.0273 27.9858C24.7613 28.3918 24.6259 28.8351 24.6259 29.3018C24.6259 29.7311 24.7333 30.1138 24.9526 30.4591C25.1719 30.8044 25.5033 31.0938 25.9466 31.3271C26.2873 31.5091 26.8893 31.7004 27.7433 31.9058C27.8226 31.9244 27.9019 31.9431 27.9766 31.9618C28.6999 32.1391 29.1759 32.2698 29.4046 32.3584C29.7919 32.5078 30.0719 32.6898 30.2399 32.9091C30.4079 33.1284 30.4919 33.3804 30.4919 33.6744C30.4919 33.9638 30.4033 34.2298 30.2306 34.4724C30.0533 34.7151 29.7873 34.9064 29.4279 35.0464C29.0686 35.1864 28.6533 35.2564 28.1819 35.2564C28.1119 35.2564 28.0419 35.2564 27.9766 35.2518C27.5286 35.2331 27.1226 35.1398 26.7539 34.9811C26.3293 34.7944 26.0166 34.5564 25.8159 34.2578C25.6899 34.0711 25.5919 33.8518 25.5219 33.5951C25.4473 33.3151 25.1766 33.1331 24.8873 33.1564C24.5233 33.1891 24.2666 33.5344 24.3506 33.8891C24.4299 34.2484 24.5699 34.5798 24.7706 34.8878V34.8878Z" fill="white"/>
<path d="M20.4727 39.0782C22.484 41.0896 25.158 42.1956 28 42.1956C30.842 42.1956 33.516 41.0896 35.5274 39.0782C37.5387 37.0669 38.6447 34.3929 38.6447 31.5509C38.6447 28.7089 37.5387 26.0349 35.5274 24.0236C33.516 22.0122 30.842 20.9062 28 20.9062C25.158 20.9062 22.484 22.0122 20.4727 24.0236C18.4613 26.0349 17.3553 28.7089 17.3553 31.5509C17.3553 34.3976 18.4613 37.0669 20.4727 39.0782V39.0782ZM28 22.0309C33.25 22.0309 37.5247 26.3009 37.5247 31.5556C37.5247 36.8056 33.2547 41.0802 28 41.0802C22.75 41.0802 18.4753 36.8102 18.4753 31.5556C18.4753 26.3009 22.75 22.0309 28 22.0309V22.0309Z" fill="white"/>
</svg>
