<svg width="34" height="36" viewBox="0 0 34 36" fill="none" xmlns="http://www.w3.org/2000/svg">
<path fill-rule="evenodd" clip-rule="evenodd" d="M28.5548 20.4407C29.7774 21.6834 31.7512 21.6834 32.9658 20.4407C34.1884 19.1981 34.1884 17.192 32.9658 15.9575C31.7432 14.7148 29.7695 14.7148 28.5548 15.9575C27.3322 17.192 27.3322 19.2062 28.5548 20.4407ZM14.9864 34.2316C16.209 35.4742 18.1827 35.4742 19.3973 34.2316C20.6199 32.989 20.6199 30.9829 19.3973 29.7483C18.1747 28.5057 16.201 28.5057 14.9864 29.7483C13.7637 30.9829 13.7637 32.989 14.9864 34.2316ZM23.9761 18.1016C24.0001 19.9291 24.6953 21.7808 25.9818 23.056C27.2124 24.2824 27.2044 26.3047 25.9818 27.5392C24.7592 28.7819 22.8174 28.7412 21.5708 27.5392C16.6245 22.7636 11.9258 28.5707 10.016 28.4651C8.298 28.3676 6.8916 27.0438 6.8916 25.2895C6.8916 23.5351 8.29 22.1138 10.016 22.1138C11.9258 22.1138 16.6245 28.0752 21.5708 23.0397C22.7375 21.8539 23.4087 19.9372 23.4886 18.0854C23.4087 16.2336 22.7295 14.3169 21.5708 13.1311C16.6245 8.10368 11.9258 14.057 10.016 14.057C8.29 14.057 6.8916 12.6357 6.8916 10.8813C6.8916 9.12703 8.29 7.80317 10.016 7.70571C11.9258 7.60012 16.6245 13.4072 21.5708 8.63159C22.8174 7.42956 24.7672 7.38896 25.9818 8.63159C27.2044 9.87423 27.2124 11.8966 25.9818 13.1148C24.7032 14.4225 24.0001 16.2742 23.9761 18.1016ZM1.02631 20.4407C2.24891 21.6834 4.22265 21.6834 5.43727 20.4407C5.72494 20.1483 5.94069 19.8154 6.09252 19.458H14.1233C14.6028 20.5788 15.7055 21.3666 16.9921 21.3666C18.7181 21.3666 20.1165 19.9453 20.1165 18.191C20.1165 16.4367 18.7181 15.0153 16.9921 15.0153C15.7055 15.0153 14.6108 15.8032 14.1233 16.924H6.10051C5.94868 16.5666 5.73293 16.2336 5.44526 15.9412C4.22265 14.6986 2.24891 14.6986 1.0343 15.9412C-0.196295 17.192 -0.196296 19.2062 1.02631 20.4407ZM14.5948 6.2519C15.8174 7.49454 17.7911 7.49454 19.0058 6.2519C20.2284 5.00926 20.2284 3.00317 19.0058 1.76865C17.7832 0.52601 15.8094 0.52601 14.5948 1.76865C13.3722 3.00317 13.3722 5.01738 14.5948 6.2519Z" fill="#DD1A5D"/>
</svg>
