<svg width="34" height="24" viewBox="0 0 34 24" fill="none" xmlns="http://www.w3.org/2000/svg">
<path d="M16.9828 15.3676C18.8518 15.3676 20.367 13.8525 20.367 11.9835C20.367 10.1144 18.8518 8.5993 16.9828 8.5993C15.1138 8.5993 13.5986 10.1144 13.5986 11.9835C13.5986 13.8525 15.1138 15.3676 16.9828 15.3676Z" fill="#DD1A5D"/>
<path d="M10.3634 18.2801C9.98277 18.2801 9.60216 18.1395 9.31256 17.8416C7.74873 16.2778 6.89648 14.2092 6.89648 12C6.89648 9.79078 7.757 7.71395 9.31256 6.1584C9.89176 5.5792 10.835 5.5792 11.4142 6.1584C11.9934 6.73759 11.9934 7.68085 11.4142 8.26005C10.413 9.26123 9.86693 10.5934 9.86693 12.0083C9.86693 13.4232 10.4213 14.7553 11.4142 15.7565C11.9934 16.3357 11.9934 17.279 11.4142 17.8582C11.1246 18.1312 10.744 18.2801 10.3634 18.2801Z" fill="#DD1A5D"/>
<path d="M5.57284 23.0709C5.19222 23.0709 4.81161 22.9303 4.52201 22.6324C1.68395 19.7943 0.120117 16.013 0.120117 11.9917C0.120117 7.97047 1.68395 4.19742 4.52201 1.35108C5.10121 0.771888 6.04447 0.771888 6.62366 1.35108C7.20286 1.93028 7.20286 2.87354 6.62366 3.45274C1.91563 8.16078 1.91563 15.8227 6.62366 20.5308C7.20286 21.11 7.20286 22.0532 6.62366 22.6324C6.32579 22.9303 5.94518 23.0709 5.57284 23.0709Z" fill="#DD1A5D"/>
<path d="M23.6356 18.2802C23.255 18.2802 22.8744 18.1395 22.5848 17.8416C22.0056 17.2624 22.0056 16.3192 22.5848 15.74C23.586 14.7388 24.1321 13.4066 24.1321 11.9917C24.1321 10.5768 23.5777 9.24469 22.5848 8.24351C22.0056 7.66431 22.0056 6.72105 22.5848 6.14186C23.164 5.56266 24.1072 5.56266 24.6864 6.14186C26.2503 7.70569 27.1025 9.77424 27.1025 11.9835C27.1025 14.1927 26.242 16.2695 24.6864 17.8251C24.3968 18.1312 24.0162 18.2802 23.6356 18.2802Z" fill="#DD1A5D"/>
<path d="M28.4344 23.0709C28.0538 23.0709 27.6732 22.9303 27.3836 22.6324C26.8044 22.0532 26.8044 21.11 27.3836 20.5308C32.0917 15.8227 32.0917 8.16078 27.3836 3.45274C26.8044 2.87354 26.8044 1.93028 27.3836 1.35108C27.9628 0.771888 28.9061 0.771888 29.4853 1.35108C32.3233 4.18915 33.8872 7.97047 33.8872 11.9917C33.8872 16.013 32.3233 19.7861 29.4853 22.6324C29.1874 22.9303 28.8068 23.0709 28.4344 23.0709Z" fill="#DD1A5D"/>
</svg>
