<svg width="56" height="56" viewBox="0 0 56 56" fill="none" xmlns="http://www.w3.org/2000/svg">
<path d="M43.2235 27.7619C41.6079 24.8359 39.3287 22.0191 36.2739 19.1827C37.1531 19.1547 37.8615 18.4295 37.8615 17.5447V16.6599C37.8615 15.7555 37.1279 15.0219 36.2235 15.0219H34.3811C35.2071 13.8907 35.8651 12.6979 36.3663 11.7291C36.8283 10.8359 37.2567 9.95109 37.4051 8.95149C37.5535 7.95469 37.2343 7.19309 36.5343 6.85709C35.6355 6.42589 34.7451 6.81229 34.0283 7.12309C33.9107 7.17349 33.7987 7.22389 33.6923 7.26589C32.9699 7.55429 32.2139 7.79229 31.4439 7.97429C29.5147 8.42789 27.4735 8.52029 25.5443 8.24309C24.5559 8.10029 23.5955 7.86229 22.6883 7.53469C22.4895 7.46189 22.2823 7.36949 22.0611 7.26869C21.3583 6.95229 20.5603 6.59109 19.6923 6.80109C19.0119 6.96629 18.5667 7.61029 18.5555 8.44189C18.5387 9.78869 19.2751 10.9647 19.9247 12.0035C20.0143 12.1435 20.0983 12.2779 20.1795 12.4123C20.7675 13.3727 21.3359 14.2323 21.9015 15.0219H19.7763C18.8719 15.0219 18.1383 15.7555 18.1383 16.6599V17.5447C18.1383 18.2867 18.6311 18.9139 19.3087 19.1155C18.2307 19.9079 17.2115 20.8039 16.2679 21.7923C14.9659 23.1587 13.8319 24.6707 12.8995 26.2863C10.9395 29.6967 9.97074 33.4011 10.0939 37.0047C10.1471 38.4887 10.4663 39.9251 11.0431 41.2691C11.6339 42.6411 12.4655 43.8535 13.5183 44.8783C16.5619 47.8379 21.1455 49.3359 27.1515 49.3359H27.3195C27.8599 49.3331 28.4115 49.3163 28.9575 49.2883C31.6651 49.1427 35.6215 48.6079 39.1075 46.8803C40.8015 46.0403 42.2071 44.9959 43.2823 43.7807C44.4975 42.4059 45.3039 40.7959 45.6847 38.9927C46.5359 34.9467 44.8167 30.6515 43.2235 27.7619V27.7619ZM21.0391 11.8943C20.9551 11.7543 20.8655 11.6115 20.7787 11.4743C20.1739 10.5083 19.5495 9.51149 19.5635 8.45869C19.5635 8.39709 19.5803 7.86789 19.9303 7.78389C20.4623 7.65509 21.0363 7.91549 21.6439 8.18989C21.8735 8.29349 22.1115 8.40269 22.3467 8.48669C23.3183 8.83669 24.3459 9.09149 25.4015 9.24269C27.4539 9.53669 29.6239 9.43869 31.6763 8.95709C32.4967 8.76389 33.3031 8.50909 34.0703 8.20109C34.1907 8.15349 34.3139 8.10029 34.4315 8.04989C35.0419 7.78669 35.6187 7.53469 36.1031 7.76709C36.4783 7.94629 36.4587 8.49229 36.4111 8.80309C36.2851 9.65149 35.8959 10.4523 35.4731 11.2643C34.8963 12.3731 34.1123 13.7871 33.1071 15.0219H23.1475C22.4503 14.1007 21.7587 13.0759 21.0391 11.8943V11.8943ZM19.1463 16.6571C19.1463 16.3099 19.4291 16.0271 19.7763 16.0271H33.2807C33.3227 16.0327 33.3647 16.0327 33.4095 16.0271H36.2263C36.5735 16.0271 36.8563 16.3099 36.8563 16.6571V17.5419C36.8563 17.8891 36.5735 18.1719 36.2263 18.1719H19.7763C19.4291 18.1719 19.1463 17.8891 19.1463 17.5419V16.6571ZM44.6991 38.7855C44.0439 41.8935 42.0139 44.3155 38.6623 45.9759C35.3331 47.6251 31.5195 48.1403 28.9071 48.2803C28.3779 48.3111 27.8431 48.3251 27.3195 48.3279C27.2635 48.3279 27.2075 48.3279 27.1515 48.3279C21.4199 48.3279 17.0687 46.9251 14.2211 44.1559C12.3031 42.2939 11.1971 39.7431 11.1019 36.9711C10.8723 30.2707 14.8343 23.1419 20.9831 19.1827H34.7759C38.1639 22.1983 40.6419 25.1635 42.3415 28.2491C43.8535 30.9875 45.4859 35.0419 44.6991 38.7855V38.7855Z" fill="white"/>
<path d="M29.8311 33.5384C29.5035 33.39 28.8987 33.2164 28.0195 33.0176C28.0027 33.0148 27.9859 33.0092 27.9691 33.0064C27.1179 32.8104 26.5915 32.62 26.3871 32.4352C26.1743 32.2448 26.0679 32.004 26.0679 31.71C26.0679 31.3712 26.2191 31.0828 26.5187 30.842C26.8183 30.6012 27.2971 30.4808 27.9523 30.4808H27.9719C28.5907 30.4836 29.0611 30.6152 29.3803 30.8784C29.6099 31.066 29.7695 31.318 29.8647 31.6344C29.9375 31.8752 30.1643 32.0348 30.4135 32.018C30.7495 31.9928 30.9791 31.6624 30.8839 31.3376C30.8167 31.1052 30.7159 30.8868 30.5815 30.6824C30.3323 30.3016 29.9767 30.016 29.5119 29.82C29.2067 29.6912 28.8707 29.6044 28.5011 29.5624C28.5011 29.5484 28.5039 29.5344 28.5039 29.5176V28.672C28.5039 28.3948 28.2771 28.168 27.9999 28.168C27.7227 28.168 27.4959 28.3948 27.4959 28.672V29.5148C27.4959 29.526 27.4959 29.5372 27.4987 29.5456C27.1039 29.5792 26.7399 29.6688 26.4011 29.8088C25.9503 29.9936 25.6087 30.268 25.3735 30.6264C25.1383 30.9848 25.0207 31.3712 25.0207 31.7856C25.0207 32.1608 25.1159 32.5024 25.3091 32.8048C25.4995 33.1072 25.7935 33.362 26.1827 33.5664C26.4851 33.726 27.0115 33.8968 27.7619 34.0788C27.8319 34.0956 27.8991 34.1124 27.9663 34.1292C28.6019 34.2832 29.0219 34.4008 29.2207 34.4792C29.5623 34.608 29.8087 34.7704 29.9571 34.9636C30.1055 35.154 30.1811 35.3808 30.1811 35.6356C30.1811 35.8876 30.1027 36.1228 29.9487 36.3356C29.7947 36.5512 29.5595 36.7192 29.2431 36.8396C28.9267 36.9628 28.5627 37.0244 28.1483 37.0244C28.0867 37.0244 28.0251 37.0244 27.9663 37.0216C27.5743 37.002 27.2131 36.9236 26.8911 36.7836C26.5187 36.6212 26.2443 36.4084 26.0679 36.148C25.9559 35.9828 25.8719 35.7896 25.8103 35.5656C25.7431 35.3192 25.5079 35.1596 25.2531 35.1792C24.9339 35.2072 24.7099 35.5096 24.7827 35.8232C24.8555 36.1368 24.9815 36.428 25.1579 36.6996C25.4435 37.1336 25.8355 37.4584 26.3367 37.674C26.6699 37.8168 27.0563 37.9148 27.4987 37.9624C27.4987 37.9736 27.4959 37.9848 27.4959 37.9932V38.8388C27.4959 39.116 27.7227 39.3428 27.9999 39.3428C28.2771 39.3428 28.5039 39.116 28.5039 38.8388V37.9932C28.5039 37.9904 28.5039 37.9876 28.5039 37.9848C28.9687 37.954 29.3915 37.8504 29.7751 37.674C30.2427 37.4612 30.6011 37.1616 30.8503 36.7752C31.0995 36.3888 31.2255 35.98 31.2255 35.5432C31.2283 35.098 31.1135 34.7088 30.8867 34.3728C30.6599 34.0368 30.3071 33.7568 29.8311 33.5384Z" fill="white"/>
<path d="M28 26.0283C25.9364 26.0283 23.996 26.8319 22.5372 28.2907C21.0784 29.7495 20.2748 31.6899 20.2748 33.7535C20.2748 35.8171 21.0784 37.7575 22.5372 39.2163C23.996 40.6751 25.9364 41.4787 28 41.4787C30.0636 41.4787 32.004 40.6751 33.4628 39.2163C34.9216 37.7575 35.7252 35.8171 35.7252 33.7535C35.7252 31.6899 34.9216 29.7495 33.4628 28.2907C32.004 26.8319 30.0636 26.0283 28 26.0283V26.0283ZM28 40.4707C24.2956 40.4707 21.2828 37.4579 21.2828 33.7535C21.2828 30.0491 24.2956 27.0363 28 27.0363C31.7044 27.0363 34.7172 30.0491 34.7172 33.7535C34.7172 37.4579 31.7044 40.4707 28 40.4707V40.4707Z" fill="white"/>
</svg>
