<svg width="56" height="56" viewBox="0 0 56 56" fill="none" xmlns="http://www.w3.org/2000/svg">
<path d="M35.8225 37.6419H20.1775C16.422 37.6419 13.37 34.5864 13.37 30.8344C13.37 29.0144 14.077 27.3064 15.365 26.0184C16.653 24.7339 18.361 24.0234 20.181 24.0234H22.316C22.722 24.0234 23.051 24.3524 23.051 24.7584C23.051 25.1644 22.722 25.4934 22.316 25.4934H20.181C18.7565 25.4934 17.416 26.0499 16.4045 27.0579C15.3965 28.0659 14.84 29.4064 14.84 30.8344C14.84 33.7779 17.234 36.1719 20.1775 36.1719H35.8225C37.247 36.1719 38.5875 35.6154 39.599 34.6074C40.607 33.5994 41.1635 32.2589 41.1635 30.8309C41.1635 27.8874 38.7695 25.4934 35.826 25.4934H33.691C33.285 25.4934 32.956 25.1644 32.956 24.7584C32.956 24.3524 33.285 24.0234 33.691 24.0234H35.826C39.5815 24.0234 42.6335 27.0789 42.6335 30.8309C42.6335 32.6509 41.9265 34.3589 40.6385 35.6469C39.3505 36.9349 37.6425 37.6419 35.8225 37.6419V37.6419Z" fill="white"/>
<path d="M33.6875 25.4935C33.6 25.4935 33.5125 25.4795 33.4285 25.448C33.047 25.3045 32.858 24.881 32.998 24.503C33.222 23.9045 33.3375 23.271 33.3375 22.6235C33.3375 19.68 30.94 17.2825 27.9965 17.2825C25.053 17.2825 22.6555 19.68 22.6555 22.6235C22.6555 23.271 22.771 23.901 22.995 24.503C23.1385 24.8845 22.946 25.308 22.5645 25.448C22.183 25.5915 21.7595 25.399 21.6195 25.0175C21.3325 24.251 21.1855 23.446 21.1855 22.6235C21.1855 18.868 24.241 15.8125 27.9965 15.8125C31.752 15.8125 34.8075 18.868 34.8075 22.6235C34.8075 23.446 34.6605 24.2545 34.3735 25.0175C34.265 25.3115 33.985 25.4935 33.6875 25.4935V25.4935Z" fill="white"/>
<path d="M4.6375 23.733C4.585 23.733 4.536 23.726 4.4835 23.7155C4.088 23.6315 3.8325 23.2395 3.9165 22.844C4.907 18.203 7.2135 13.9645 10.5875 10.5905C13.965 7.21296 18.2035 4.90646 22.8445 3.91946C23.24 3.83546 23.632 4.08746 23.716 4.48646C23.8 4.88196 23.548 5.27396 23.149 5.35796C14.238 7.25496 7.252 14.241 5.355 23.152C5.285 23.495 4.977 23.733 4.6375 23.733Z" fill="white"/>
<path d="M33.0015 52.0971C32.662 52.0971 32.3575 51.8591 32.284 51.5161C32.2 51.1206 32.452 50.7286 32.851 50.6446C41.762 48.7476 48.748 41.7616 50.645 32.8506C50.729 32.4551 51.121 32.1996 51.5165 32.2836C51.912 32.3676 52.1675 32.7596 52.0835 33.1551C51.093 37.7961 48.7865 42.0346 45.4125 45.4086C42.0385 48.7826 37.8 51.0891 33.159 52.0796C33.103 52.0901 33.0505 52.0971 33.0015 52.0971V52.0971Z" fill="white"/>
<path d="M22.9984 52.0972C22.9459 52.0972 22.8969 52.0902 22.8444 52.0797C18.2034 51.0892 13.9649 48.7827 10.5909 45.4087C7.21695 42.0347 4.91045 37.7962 3.91995 33.1552C3.83595 32.7597 4.08795 32.3677 4.48695 32.2837C4.88245 32.1997 5.27445 32.4517 5.35845 32.8507C7.25545 41.7617 14.2414 48.7477 23.1524 50.6447C23.5479 50.7287 23.8034 51.1207 23.7194 51.5162C23.6424 51.8592 23.3379 52.0972 22.9984 52.0972Z" fill="white"/>
<path d="M51.3625 23.7328C51.023 23.7328 50.7185 23.4948 50.645 23.1518C48.748 14.2408 41.762 7.25481 32.851 5.35781C32.4555 5.27381 32.2 4.88181 32.284 4.48631C32.368 4.09081 32.76 3.83531 33.1555 3.91931C37.7965 4.90981 42.035 7.21631 45.409 10.5903C48.783 13.9643 51.0895 18.2028 52.08 22.8438C52.164 23.2393 51.912 23.6313 51.513 23.7153C51.464 23.7258 51.4115 23.7328 51.3625 23.7328Z" fill="white"/>
<path d="M28 6.99961C26.4075 6.99961 25.1125 5.70461 25.1125 4.11211C25.1125 2.51961 26.4075 1.22461 28 1.22461C29.5925 1.22461 30.8875 2.51961 30.8875 4.11211C30.8875 5.70461 29.5925 6.99961 28 6.99961ZM28 2.69461C27.2195 2.69461 26.5825 3.33161 26.5825 4.11211C26.5825 4.89261 27.2195 5.52961 28 5.52961C28.7805 5.52961 29.4175 4.89261 29.4175 4.11211C29.4175 3.33161 28.7805 2.69461 28 2.69461Z" fill="white"/>
<path d="M28 54.775C26.4075 54.775 25.1125 53.48 25.1125 51.8875C25.1125 50.295 26.4075 49 28 49C29.5925 49 30.8875 50.295 30.8875 51.8875C30.8875 53.48 29.5925 54.775 28 54.775ZM28 50.47C27.2195 50.47 26.5825 51.107 26.5825 51.8875C26.5825 52.668 27.2195 53.305 28 53.305C28.7805 53.305 29.4175 52.668 29.4175 51.8875C29.4175 51.1035 28.7805 50.47 28 50.47Z" fill="white"/>
<path d="M4.11247 30.8873C2.51997 30.8873 1.22498 29.5923 1.22498 27.9998C1.22498 26.4073 2.51997 25.1123 4.11247 25.1123C5.70497 25.1123 6.99997 26.4073 6.99997 27.9998C6.99997 29.5923 5.70497 30.8873 4.11247 30.8873ZM4.11247 26.5823C3.33197 26.5823 2.69497 27.2193 2.69497 27.9998C2.69497 28.7803 3.33197 29.4173 4.11247 29.4173C4.89297 29.4173 5.52997 28.7803 5.52997 27.9998C5.52997 27.2193 4.89647 26.5823 4.11247 26.5823Z" fill="white"/>
<path d="M51.8874 30.8873C50.2949 30.8873 48.9999 29.5923 48.9999 27.9998C48.9999 26.4073 50.2949 25.1123 51.8874 25.1123C53.4799 25.1123 54.7749 26.4073 54.7749 27.9998C54.7749 29.5923 53.4799 30.8873 51.8874 30.8873ZM51.8874 26.5823C51.1069 26.5823 50.4699 27.2193 50.4699 27.9998C50.4699 28.7803 51.1069 29.4173 51.8874 29.4173C52.6679 29.4173 53.3049 28.7803 53.3049 27.9998C53.3049 27.2193 52.6679 26.5823 51.8874 26.5823Z" fill="white"/>
<path d="M49.7349 28.7346H41.1984C40.7924 28.7346 40.4634 28.4056 40.4634 27.9996C40.4634 27.5936 40.7924 27.2646 41.1984 27.2646H49.7349C50.1409 27.2646 50.4699 27.5936 50.4699 27.9996C50.4699 28.4056 50.1409 28.7346 49.7349 28.7346Z" fill="white"/>
<path d="M14.8015 28.7346H6.26497C5.85897 28.7346 5.52997 28.4056 5.52997 27.9996C5.52997 27.5936 5.85897 27.2646 6.26497 27.2646H14.8015C15.2075 27.2646 15.5365 27.5936 15.5365 27.9996C15.5365 28.4056 15.2075 28.7346 14.8015 28.7346Z" fill="white"/>
<path d="M28 50.4694C27.594 50.4694 27.265 50.1404 27.265 49.7344V36.9069C27.265 36.5009 27.594 36.1719 28 36.1719C28.406 36.1719 28.735 36.5009 28.735 36.9069V49.7344C28.735 50.1404 28.406 50.4694 28 50.4694Z" fill="white"/>
<path d="M28 17.2823C27.594 17.2823 27.265 16.9533 27.265 16.5473V6.2643C27.265 5.8583 27.594 5.5293 28 5.5293C28.406 5.5293 28.735 5.8583 28.735 6.2643V16.5438C28.735 16.9533 28.406 17.2823 28 17.2823Z" fill="white"/>
</svg>
