<svg width="56" height="56" viewBox="0 0 56 56" fill="none" xmlns="http://www.w3.org/2000/svg">
<path d="M44.5424 55.3811H11.4576C8.91023 55.3811 6.85938 53.3675 6.35289 50.3709L2.76018 29.1133C2.70294 28.7748 2.93067 28.4537 3.2704 28.3965C3.61014 28.3393 3.92996 28.567 3.9872 28.9067L7.57992 50.1643C7.88978 51.9974 9.09067 54.1366 11.4576 54.1366H44.5424C46.9094 54.1366 48.1102 51.9962 48.4201 50.1643L52.0128 28.9067C52.0701 28.5682 52.3899 28.3393 52.7296 28.3965C53.0681 28.4537 53.2971 28.7748 53.2398 29.1133L49.6471 50.3709C49.1406 53.3675 47.0898 55.3811 44.5424 55.3811V55.3811Z" fill="white"/>
<path d="M49.0585 50.7405H6.94153C6.59806 50.7405 6.31931 50.4618 6.31931 50.1183C6.31931 49.7748 6.59806 49.4961 6.94153 49.4961H49.0598C49.4032 49.4961 49.682 49.7748 49.682 50.1183C49.6807 50.463 49.402 50.7405 49.0585 50.7405Z" fill="white"/>
<path d="M54.7605 29.6323H1.23947C0.896004 29.6323 0.617249 29.3535 0.617249 29.0101V23.9738C0.617249 23.6303 0.896004 23.3516 1.23947 23.3516H54.7605C55.104 23.3516 55.3828 23.6303 55.3828 23.9738V29.0101C55.3828 29.3535 55.104 29.6323 54.7605 29.6323ZM1.86169 28.3878H54.1383V24.596H1.86169V28.3878Z" fill="white"/>
<path d="M15.8144 46.6088C15.507 46.6088 15.2395 46.3811 15.1984 46.0675L13.5122 33.2223C13.4674 32.8813 13.7076 32.569 14.0485 32.5242C14.3883 32.4781 14.7019 32.7196 14.7467 33.0605L16.4329 45.9057C16.4777 46.2467 16.2375 46.5591 15.8965 46.6039C15.8679 46.6076 15.8405 46.6088 15.8144 46.6088V46.6088Z" fill="white"/>
<path d="M21.9072 46.6093C21.5824 46.6093 21.3086 46.3566 21.2875 46.0281L20.445 33.1829C20.4226 32.8395 20.6827 32.5433 21.0249 32.5209C21.3684 32.4985 21.6645 32.7586 21.6869 33.1008L22.5294 45.946C22.5518 46.2894 22.2917 46.5856 21.9495 46.608C21.9346 46.6093 21.9209 46.6093 21.9072 46.6093Z" fill="white"/>
<path d="M28 46.6092C27.6565 46.6092 27.3778 46.3304 27.3778 45.9869V33.1418C27.3778 32.7983 27.6565 32.5195 28 32.5195C28.3435 32.5195 28.6222 32.7983 28.6222 33.1418V45.9869C28.6222 46.3304 28.3435 46.6092 28 46.6092V46.6092Z" fill="white"/>
<path d="M34.0928 46.6094C34.0791 46.6094 34.0654 46.6094 34.0517 46.6081C33.7083 46.5857 33.4494 46.2896 33.4718 45.9461L34.3143 33.1009C34.3367 32.7575 34.6341 32.4974 34.9763 32.521C35.3198 32.5434 35.5786 32.8396 35.5562 33.1831L34.7138 46.0282C34.6914 46.3568 34.4188 46.6094 34.0928 46.6094Z" fill="white"/>
<path d="M40.1856 46.6095C40.1582 46.6095 40.1308 46.6071 40.1035 46.6046C39.7625 46.5598 39.5223 46.2474 39.5671 45.9064L41.2533 33.0613C41.2981 32.7203 41.6105 32.4801 41.9515 32.5249C42.2924 32.5697 42.5326 32.8821 42.4878 33.223L40.8016 46.0682C40.7605 46.3818 40.4942 46.6095 40.1856 46.6095V46.6095Z" fill="white"/>
<path d="M12.0525 24.5964C11.709 24.5964 11.4302 24.3176 11.4302 23.9742V14.4741C11.4302 12.3324 12.2715 10.3114 13.7984 8.78322C15.3253 7.25628 17.3463 6.41504 19.4893 6.41504H22.9214C23.2649 6.41504 23.5437 6.69379 23.5437 7.03726C23.5437 7.38073 23.2649 7.65948 22.9214 7.65948H19.4893C17.6798 7.65948 15.9712 8.37131 14.6795 9.66304C13.3877 10.9548 12.6759 12.6634 12.6759 14.4728V23.9729C12.6747 24.3176 12.3959 24.5964 12.0525 24.5964V24.5964Z" fill="white"/>
<path d="M7.59857 24.5961C7.2551 24.5961 6.97635 24.3174 6.97635 23.9739V14.4738C6.97635 11.1425 8.28053 8.00272 10.65 5.63454C13.0194 3.26636 16.1579 1.96094 19.4892 1.96094H22.9214C23.2649 1.96094 23.5436 2.23969 23.5436 2.58316C23.5436 2.92663 23.2649 3.20538 22.9214 3.20538H19.4892C16.4901 3.20538 13.664 4.38014 11.5298 6.51436C9.39555 8.64858 8.22079 11.4747 8.22079 14.4738V23.9739C8.22079 24.3174 7.94204 24.5961 7.59857 24.5961Z" fill="white"/>
<path d="M48.4014 24.5961C48.058 24.5961 47.7792 24.3174 47.7792 23.9739V14.4738C47.7792 11.4747 46.6045 8.64858 44.4702 6.51436C42.336 4.38014 39.5099 3.20538 36.5108 3.20538H33.0786C32.7351 3.20538 32.4564 2.92663 32.4564 2.58316C32.4564 2.23969 32.7351 1.96094 33.0786 1.96094H36.5108C39.8421 1.96094 42.9819 3.26512 45.3501 5.63454C47.7195 8.00396 49.0237 11.1425 49.0237 14.4738V23.9739C49.0237 24.3174 48.7449 24.5961 48.4014 24.5961V24.5961Z" fill="white"/>
<path d="M43.9476 24.5961C43.6041 24.5961 43.3253 24.3174 43.3253 23.9739V14.4738C43.3253 12.6644 42.6135 10.9557 41.3218 9.66402C40.0301 8.37228 38.3214 7.66046 36.5108 7.66046H33.0786C32.7351 7.66046 32.4564 7.3817 32.4564 7.03824C32.4564 6.69477 32.7351 6.41602 33.0786 6.41602H36.5108C38.6525 6.41602 40.6734 7.25726 42.2016 8.78419C43.7298 10.3111 44.5698 12.3321 44.5698 14.475V23.9751C44.5698 24.3174 44.291 24.5961 43.9476 24.5961Z" fill="white"/>
<path d="M33.0786 9.00074H22.9202C22.5767 9.00074 22.298 8.72199 22.298 8.37852V1.24039C22.298 0.89692 22.5767 0.618164 22.9202 0.618164H33.0786C33.4221 0.618164 33.7008 0.89692 33.7008 1.24039V8.37852C33.7008 8.72199 33.4221 9.00074 33.0786 9.00074ZM23.5437 7.7563H32.4576V1.86261H23.5449L23.5437 7.7563Z" fill="white"/>
</svg>
