<svg width="32" height="32" viewBox="0 0 32 32" fill="none" xmlns="http://www.w3.org/2000/svg">
<path d="M17.8506 0.21521V14.802L30.5499 21.6C31.2132 19.8375 31.5809 17.937 31.5809 15.9391C31.5809 7.83348 25.5789 1.14922 17.8506 0.21521Z" fill="#DD1A5D"/>
<path d="M16.1163 18.1401L4.28809 26.3837C7.14123 29.6893 11.329 31.7766 15.9964 31.7766C21.3111 31.7766 26.0104 29.0639 28.8236 24.938L16.1163 18.1401Z" fill="#DD1A5D"/>
<path d="M4.80762 21.4538L4.95946 21.3482H4.80762V21.4538Z" fill="#DD1A5D"/>
<path d="M14.1421 3.24465V0.21521C11.3689 0.548205 8.81941 1.62841 6.68555 3.24465H14.1421Z" fill="#DD1A5D"/>
<path d="M14.1423 5.76239H4.80762V9.27914H14.1423V5.76239Z" fill="#DD1A5D"/>
<path d="M4.80762 15.3137H13.6148L14.1423 14.9482V11.7969H4.80762V15.3137Z" fill="#DD1A5D"/>
<path d="M4.80762 21.3482H4.95946L10.0104 17.8315H4.80762V21.3482Z" fill="#DD1A5D"/>
<path d="M4.80745 5.76239H4.06419C3.18507 6.82635 2.44182 8.00402 1.8584 9.27914H4.80745V5.76239V5.76239Z" fill="#DD1A5D"/>
<path d="M4.80736 11.7969H0.955206C0.65151 12.9259 0.475686 14.1035 0.427734 15.3137H4.81535V11.7969H4.80736Z" fill="#DD1A5D"/>
<path d="M4.80715 17.8315H0.523438C0.667294 19.0498 0.947013 20.2274 1.35461 21.3482H4.81515V17.8315H4.80715Z" fill="#DD1A5D"/>
</svg>
