<svg width="32" height="29" viewBox="0 0 32 29" fill="none" xmlns="http://www.w3.org/2000/svg">
<path d="M1.56946 8.75532C1.03164 8.75532 0.824784 8.38298 1.10611 7.92789L4.64748 2.15248C4.9288 1.69739 5.32597 1.73049 5.52455 2.21867L7.84961 7.8617C8.05646 8.35815 7.78341 8.76359 7.24559 8.76359H1.56946V8.75532Z" fill="#DD1A5D"/>
<path d="M6.3764 1.50712C6.17782 1.01066 6.45087 0.605225 6.98042 0.605225H14.1956C14.7334 0.605225 14.8989 0.944468 14.5679 1.36645L9.71919 7.48938C9.38822 7.91137 8.94969 7.84518 8.75111 7.34872L6.3764 1.50712Z" fill="#DD1A5D"/>
<path d="M16.6289 1.71398C16.2897 1.30027 15.7353 1.30027 15.4043 1.72225L10.3571 8.0024C10.0178 8.41611 10.1833 8.76363 10.7211 8.76363H21.428C21.9658 8.76363 22.123 8.42438 21.7838 8.01067L16.6289 1.71398Z" fill="#DD1A5D"/>
<path d="M17.4391 1.36645C17.0999 0.952742 17.2653 0.605225 17.8032 0.605225H25.0514C25.5892 0.605225 25.8623 1.01066 25.6637 1.50712L23.3552 7.34872C23.1566 7.84518 22.7263 7.91137 22.3871 7.49766L17.4391 1.36645Z" fill="#DD1A5D"/>
<path d="M27.3855 2.15252C27.1041 1.69744 26.7235 1.73053 26.5249 2.22699L24.3157 7.85346C24.1171 8.34992 24.3985 8.75535 24.9363 8.75535H30.4387C30.9765 8.75535 31.1833 8.38301 30.902 7.92793L27.3855 2.15252Z" fill="#DD1A5D"/>
<path d="M10.3236 9.56622C9.78581 9.56622 9.49621 9.97993 9.66169 10.4847L15.7515 28.3239C15.9253 28.8286 16.2066 28.8286 16.3804 28.3239L22.4371 10.4929C22.6109 9.98821 22.313 9.5745 21.7752 9.5745H10.3236V9.56622Z" fill="#DD1A5D"/>
<path d="M24.4977 9.56622C23.9599 9.56622 23.389 9.97993 23.2152 10.4929L17.4894 27.7364C17.324 28.2412 17.4481 28.3074 17.7625 27.8771L30.8192 10.3523C31.1419 9.92201 30.9599 9.5745 30.4303 9.5745H24.4977V9.56622Z" fill="#DD1A5D"/>
<path d="M7.61755 9.56622C8.15538 9.56622 8.7263 9.97993 8.90006 10.4929L14.6258 27.7364C14.7913 28.2412 14.6672 28.3074 14.3528 27.8771L1.29604 10.344C0.973344 9.91374 1.15538 9.56622 1.68493 9.56622H7.61755V9.56622Z" fill="#DD1A5D"/>
</svg>
