<svg width="56" height="56" viewBox="0 0 56 56" fill="none" xmlns="http://www.w3.org/2000/svg">
<g clip-path="url(#clip0_1230_100510)">
<path d="M28 0C22.4621 0 17.0486 1.64217 12.444 4.71885C7.83947 7.79553 4.25064 12.1685 2.13139 17.2849C0.0121319 22.4012 -0.542361 28.0311 0.538025 33.4625C1.61841 38.894 4.28515 43.8831 8.20102 47.799C12.1169 51.7149 17.106 54.3816 22.5375 55.462C27.969 56.5424 33.5988 55.9879 38.7152 53.8686C43.8315 51.7494 48.2045 48.1605 51.2812 43.556C54.3578 38.9514 56 33.5379 56 28C56 20.5739 53.05 13.452 47.799 8.20101C42.548 2.94999 35.4261 0 28 0V0ZM28 51.5816C23.336 51.5816 18.7768 50.1985 14.8988 47.6074C11.0208 45.0162 7.99832 41.3332 6.21349 37.0243C4.42866 32.7153 3.96167 27.9738 4.87157 23.3995C5.78147 18.8251 8.02739 14.6233 11.3253 11.3253C14.6233 8.02738 18.8251 5.78145 23.3995 4.87155C27.9739 3.96165 32.7153 4.42865 37.0243 6.21348C41.3333 7.99831 45.0162 11.0208 47.6074 14.8988C50.1985 18.7768 51.5816 23.336 51.5816 28C51.5728 34.2515 49.0855 40.2445 44.665 44.665C40.2445 49.0855 34.2515 51.5728 28 51.5816Z" fill="#DD1A5D"/>
<path d="M28.1324 20.4374C27.0154 21.3393 25.0213 23.2424 23.8795 24.1939C21.1407 26.4776 24.8807 29.7128 27.305 27.7353C28.3558 26.9079 30.987 24.4918 32.4102 25.9481L40.2376 32.8819L43.0095 31.136L38.2518 20.5367C34.6029 20.8429 31.6407 17.5745 28.1324 20.4374Z" fill="#DD1A5D"/>
<path d="M27.0402 19.668L22.9693 23.4079C20.3298 25.9895 22.0591 27.7188 23.474 28.8027C26.9409 31.4422 29.266 26.6349 31.227 26.5438L39.3771 33.668C39.5053 33.7819 39.657 33.8662 39.8215 33.9148C39.9859 33.9634 40.1591 33.9752 40.3286 33.9493C39.6584 35.7862 38.2187 36.1006 37.0189 35.3642C37.4989 36.9115 35.1241 38.6739 33.552 37.2921C33.6102 37.6833 33.5564 38.083 33.3967 38.4449C33.2371 38.8068 32.9782 39.116 32.65 39.3368C32.3219 39.5576 31.9379 39.6809 31.5425 39.6925C31.1471 39.704 30.7566 39.6033 30.4161 39.402C30.4906 41.2637 28.3145 42.4221 27.0485 41.2637L29.5308 39.071C30.8877 37.7306 29.2412 34.5037 26.8499 35.298C26.8495 34.905 26.7518 34.5182 26.5657 34.172C26.3795 33.8259 26.1107 33.5312 25.783 33.3141C25.4554 33.0971 25.0792 32.9644 24.6879 32.928C24.2965 32.8916 23.9023 32.9525 23.5402 33.1053C23.4973 32.7444 23.3769 32.397 23.1873 32.0868C22.9977 31.7767 22.7434 31.5112 22.4416 31.3085C22.1399 31.1058 21.798 30.9707 21.4392 30.9123C21.0804 30.854 20.7133 30.8739 20.3629 30.9706C20.1561 29.1751 18.1702 27.7353 16.3582 29.3985L14.0414 31.5001L13.4788 31.1443L18.2033 20.5864C21.9102 20.6857 23.5319 18.4351 27.0402 19.668Z" fill="#DD1A5D"/>
<path d="M17.2226 30.1732L14.6162 32.5016C14.0267 33.0282 13.9757 33.933 14.5024 34.5225C15.029 35.1119 15.9338 35.1629 16.5232 34.6363L19.1296 32.3079C19.7191 31.7813 19.7701 30.8765 19.2435 30.287C18.7169 29.6975 17.8121 29.6466 17.2226 30.1732Z" fill="#DD1A5D"/>
<path d="M20.1696 32.4011L17.5749 34.7129C16.9881 35.2358 16.9362 36.1354 17.4591 36.7223C17.9819 37.3091 18.8815 37.361 19.4684 36.8381L22.0631 34.5263C22.6499 34.0035 22.7018 33.1039 22.1789 32.517C21.6561 31.9301 20.7565 31.8783 20.1696 32.4011Z" fill="#DD1A5D"/>
<path d="M23.3283 34.6428L20.7336 36.9546C20.1468 37.4775 20.0949 38.3771 20.6178 38.964C21.1406 39.5508 22.0402 39.6027 22.6271 39.0798L25.2218 36.768C25.8086 36.2452 25.8605 35.3455 25.3376 34.7587C24.8148 34.1718 23.9152 34.12 23.3283 34.6428Z" fill="#DD1A5D"/>
<path d="M26.4787 36.8841L23.884 39.1958C23.2971 39.7187 23.2453 40.6183 23.7681 41.2052C24.291 41.792 25.1906 41.8439 25.7775 41.321L28.3722 39.0092C28.959 38.4864 29.0109 37.5868 28.488 36.9999C27.9652 36.4131 27.0656 36.3612 26.4787 36.8841Z" fill="#DD1A5D"/>
<path d="M12.7789 18.1301L7.93501 29.025C7.72894 29.4885 7.93763 30.0313 8.40112 30.2374L11.1154 31.4442C11.5789 31.6502 12.1217 31.4415 12.3277 30.978L17.1716 20.0832C17.3777 19.6197 17.169 19.0769 16.7055 18.8708L13.9913 17.664C13.5278 17.458 12.985 17.6666 12.7789 18.1301Z" fill="#DD1A5D"/>
<path d="M44.2747 19.3245C43.7309 18.111 42.308 17.5673 41.0965 18.1102C39.8851 18.6531 39.3439 20.077 39.8878 21.2905L43.5458 29.4527C44.0896 30.6662 45.5125 31.2099 46.724 30.667C47.9354 30.1241 48.4765 28.7002 47.9327 27.4867L44.2747 19.3245Z" fill="#DD1A5D"/>
</g>
<defs>
<clipPath id="clip0_1230_100510">
<rect width="56" height="56" fill="white"/>
</clipPath>
</defs>
</svg>
