<svg width="56" height="56" viewBox="0 0 56 56" fill="none" xmlns="http://www.w3.org/2000/svg">
<g clip-path="url(#clip0_1230_100518)">
<path d="M27.972 0C12.5315 0 0 12.532 0 28.0041C0 43.4761 12.5315 56.0406 27.972 56.0406C43.4126 56.0406 55.9441 43.5005 55.9441 28.0447C55.9441 12.5888 43.4605 0 27.972 0ZM27.972 51.5817C21.7745 51.6251 15.8127 49.1706 11.3922 44.756C6.97176 40.3414 4.45302 34.3264 4.38761 28.0284C4.43829 21.7205 6.95056 15.691 11.3726 11.2641C15.7947 6.83723 21.7649 4.37502 27.972 4.41827C34.1682 4.3771 40.128 6.83248 44.5467 11.2469C48.9654 15.6612 51.483 21.675 51.5485 27.9716C51.4978 34.2781 48.9866 40.3064 44.5663 44.733C40.146 49.1597 34.1778 51.6228 27.972 51.5817Z" fill="#DD1A5D"/>
<path d="M22.4656 17.6568H37.3388V16.0324C37.3388 15.6143 37.2577 15.2003 37.1003 14.814C36.9429 14.4277 36.7121 14.0768 36.4212 13.7811C36.1303 13.4855 35.7849 13.251 35.4048 13.091C35.0247 12.931 34.6173 12.8486 34.2059 12.8486H21.6824C20.8522 12.8508 20.0566 13.1869 19.4695 13.7835C18.8824 14.3801 18.5517 15.1887 18.5496 16.0324V39.9349C18.5517 40.7779 18.8827 41.5856 19.47 42.1809C20.0573 42.7763 20.8529 43.1106 21.6824 43.1106H34.2059C34.6169 43.1116 35.0241 43.0303 35.4042 42.8712C35.7842 42.7121 36.1297 42.4783 36.4207 42.1833C36.7117 41.8883 36.9426 41.5379 37.1001 41.1521C37.2577 40.7663 37.3388 40.3526 37.3388 39.9349V35.9552H22.4656C22.2537 35.9552 22.0504 35.8697 21.9005 35.7174C21.7506 35.565 21.6664 35.3585 21.6664 35.143V18.4527C21.6706 18.2401 21.7567 18.0377 21.9061 17.8889C22.0555 17.74 22.2564 17.6567 22.4656 17.6568ZM28.7713 41.1288H27.1729C26.749 41.1288 26.3425 40.9577 26.0427 40.6531C25.7429 40.3484 25.5745 39.9353 25.5745 39.5045C25.5745 39.0737 25.7429 38.6605 26.0427 38.3559C26.3425 38.0512 26.749 37.8801 27.1729 37.8801H28.7713C29.1883 37.8907 29.5847 38.0665 29.8758 38.37C30.167 38.6735 30.3299 39.0806 30.3298 39.5045C30.3299 39.9283 30.167 40.3355 29.8758 40.6389C29.5847 40.9424 29.1883 41.1182 28.7713 41.1288Z" fill="#DD1A5D"/>
<path d="M40.6712 35.8091C40.4835 35.7944 40.2948 35.8194 40.117 35.8823C39.9393 35.9453 39.7762 36.0449 39.6381 36.1749C39.5 36.305 39.3898 36.4626 39.3144 36.6379C39.239 36.8132 39.2001 37.0025 39.2001 37.1938C39.2001 37.3851 39.239 37.5744 39.3144 37.7497C39.3898 37.9251 39.5 38.0827 39.6381 38.2127C39.7762 38.3427 39.9393 38.4423 40.117 38.5053C40.2948 38.5683 40.4835 38.5932 40.6712 38.5786C41.0146 38.5519 41.3354 38.3944 41.5694 38.1376C41.8034 37.8809 41.9334 37.5438 41.9334 37.1938C41.9334 36.8439 41.8034 36.5068 41.5694 36.25C41.3354 35.9933 41.0146 35.8358 40.6712 35.8091ZM31.9679 29.8395H41.1268C41.3573 29.839 41.5808 29.758 41.7597 29.6102C41.9386 29.4624 42.0622 29.2566 42.1098 29.0273L43.6602 22.3349C43.6884 22.1873 43.6842 22.0351 43.648 21.8892C43.6117 21.7434 43.5442 21.6074 43.4503 21.4911C43.3565 21.3748 43.2385 21.2809 43.1049 21.2162C42.9713 21.1515 42.8252 21.1175 42.6772 21.1167H29.7541L29.5224 20.207C29.4589 19.8622 29.2787 19.5508 29.0131 19.3268C28.7474 19.1028 28.413 18.9803 28.0678 18.9806H25.9739C25.8379 18.9681 25.7008 18.9846 25.5714 19.0289C25.442 19.0732 25.3231 19.1444 25.2223 19.238C25.1215 19.3316 25.041 19.4456 24.9859 19.5725C24.9308 19.6995 24.9023 19.8368 24.9023 19.9755C24.9023 20.1143 24.9308 20.2516 24.9859 20.3786C25.041 20.5055 25.1215 20.6195 25.2223 20.7131C25.3231 20.8067 25.442 20.8779 25.5714 20.9222C25.7008 20.9665 25.8379 20.983 25.9739 20.9705H27.7002L29.9619 29.807L29.0988 32.4872C29.0487 32.6362 29.035 32.7953 29.0586 32.9509C29.0823 33.1065 29.1427 33.2539 29.2346 33.3806C29.3255 33.5096 29.4455 33.6146 29.5846 33.6867C29.7237 33.7588 29.8777 33.7959 30.0338 33.7948H41.1667C41.3027 33.8073 41.4398 33.7909 41.5692 33.7466C41.6986 33.7023 41.8175 33.631 41.9183 33.5374C42.0191 33.4438 42.0996 33.3299 42.1547 33.2029C42.2098 33.0759 42.2383 32.9387 42.2383 32.7999C42.2383 32.6611 42.2098 32.5239 42.1547 32.3969C42.0996 32.2699 42.0191 32.156 41.9183 32.0624C41.8175 31.9688 41.6986 31.8976 41.5692 31.8532C41.4398 31.8089 41.3027 31.7925 41.1667 31.805H31.3765L31.912 30.1319C31.944 30.0376 31.9628 29.9392 31.9679 29.8395ZM37.3945 24.4629C37.3822 24.3246 37.3984 24.1853 37.442 24.0538C37.4856 23.9223 37.5557 23.8015 37.6478 23.699C37.7399 23.5966 37.852 23.5148 37.9769 23.4588C38.1019 23.4028 38.2369 23.3739 38.3735 23.3739C38.5101 23.3739 38.6451 23.4028 38.7701 23.4588C38.895 23.5148 39.0071 23.5966 39.0992 23.699C39.1913 23.8015 39.2614 23.9223 39.305 24.0538C39.3487 24.1853 39.3648 24.3246 39.3525 24.4629V26.8507C39.3304 27.099 39.2177 27.33 39.0366 27.4982C38.8554 27.6664 38.6189 27.7597 38.3735 27.7597C38.1281 27.7597 37.8916 27.6664 37.7105 27.4982C37.5293 27.33 37.4166 27.099 37.3945 26.8507V24.4629ZM33.4784 24.4629C33.4661 24.3246 33.4823 24.1853 33.5259 24.0538C33.5695 23.9223 33.6396 23.8015 33.7317 23.699C33.8238 23.5966 33.9359 23.5148 34.0609 23.4588C34.1858 23.4028 34.3209 23.3739 34.4574 23.3739C34.594 23.3739 34.729 23.4028 34.854 23.4588C34.9789 23.5148 35.091 23.5966 35.1832 23.699C35.2753 23.8015 35.3454 23.9223 35.389 24.0538C35.4326 24.1853 35.4487 24.3246 35.4364 24.4629V26.8507C35.4143 27.099 35.3016 27.33 35.1205 27.4982C34.9393 27.6664 34.7028 27.7597 34.4574 27.7597C34.212 27.7597 33.9755 27.6664 33.7944 27.4982C33.6132 27.33 33.5005 27.099 33.4784 26.8507V24.4629Z" fill="#DD1A5D"/>
</g>
<defs>
<clipPath id="clip0_1230_100518">
<rect width="56" height="56" fill="white"/>
</clipPath>
</defs>
</svg>
