<svg width="246" height="183" viewBox="0 0 246 183" fill="none" xmlns="http://www.w3.org/2000/svg">
<path d="M239.61 17C234.38 8.88 226.1 3.34 215.79 0.18L215.21 0C216.59 1.83 217.9 3.69 219.21 5.6C226.62 8.6 232.41 13.14 236.21 19.08C242.58 28.92 243.01 41.86 238.11 56.37C235.53 63.7345 232.118 70.7802 227.94 77.37C213.81 100.11 189.29 124.04 157.69 143.69C126.09 163.34 93.5495 174.87 66.5495 177.69L64.7095 177.87C38.4695 180.26 18.3595 174.24 9.25954 160.18C2.32954 149.44 2.43954 135 8.86954 118.85C8.10954 117.103 7.39288 115.333 6.71954 113.54L6.54954 113.44L6.45954 114.08L5.69954 115.91C-1.55046 133.27 -2.30046 149.7 5.86954 162.28C16.4595 178.67 39.4295 184.52 67.0095 181.63C68.5295 181.47 70.0695 181.27 71.6195 181.06C98.3695 177.39 129.62 165.84 159.86 147.06C191.86 127.16 216.86 102.82 231.38 79.47C234.209 74.953 236.722 70.245 238.9 65.38C247.01 47.18 248.01 30 239.61 17Z" fill="#DD1A5D"/>
</svg>
