<svg width="394" height="293" viewBox="0 0 394 293" fill="none" xmlns="http://www.w3.org/2000/svg">
<path d="M384.605 27.3173C376.211 14.2693 362.92 5.36704 346.371 0.289242L345.44 0C347.655 2.94062 349.758 5.92946 351.861 8.99863C363.755 13.8193 373.048 21.1147 379.148 30.6596C389.373 46.4715 390.063 67.2648 382.198 90.5809C378.058 102.415 372.581 113.737 365.874 124.326C343.193 160.867 303.835 199.32 253.113 230.895C202.391 262.471 150.16 280.998 106.821 285.53L103.867 285.819C61.7488 289.66 29.4695 279.986 14.8628 257.393C3.73923 240.135 3.91579 216.931 14.2368 190.98C13.0169 188.173 11.8666 185.329 10.7858 182.447L10.5129 182.287L10.3684 183.315L9.14853 186.256C-2.48869 214.151 -3.69254 240.553 9.4214 260.768C26.4198 287.105 63.2897 296.505 107.559 291.861C109.999 291.604 112.471 291.283 114.959 290.945C157.896 285.048 208.057 266.488 256.596 236.311C307.96 204.333 348.089 165.221 371.395 127.7C375.937 120.442 379.97 112.877 383.466 105.059C396.483 75.8135 398.089 48.207 384.605 27.3173Z" fill="#DD1A5D"/>
</svg>
