<svg width="19" height="24" viewBox="0 0 19 24" fill="none" xmlns="http://www.w3.org/2000/svg">
<g clip-path="url(#clip0_1463_166863)">
<path d="M15.3014 14.6717C15.2853 16.596 14.669 18.4347 13.5863 19.7886C12.5035 21.1424 11.0417 21.9022 9.51822 21.903C7.9947 21.9039 6.53241 21.1456 5.44877 19.7929C4.36513 18.4402 3.7476 16.6022 3.73022 14.6778C3.73022 10.7328 6.08287 7.92784 8.50747 7.47696C10.4508 7.11608 12.1887 7.7099 13.6116 9.49932C14.151 10.1766 14.5782 10.9828 14.8684 11.8708C15.1585 12.7589 15.3057 13.711 15.3014 14.6717V14.6717ZM8.06111 14.6284C8.06111 15.3899 8.05762 16.1514 8.06111 16.912C8.06111 17.4184 8.2106 17.5296 8.55008 17.2702C9.51871 16.5302 10.4855 15.7846 11.4504 15.0334C11.7682 14.7864 11.771 14.5614 11.4581 14.3178C10.4918 13.5649 9.52314 12.8181 8.55218 12.0776C8.2113 11.8173 8.06321 11.924 8.06321 12.4305C8.05692 13.1637 8.06111 13.8961 8.06111 14.6284Z" fill="#543287"/>
<path d="M10.6302 2.18555C11.7778 2.31084 12.8103 2.85437 13.7435 3.66702C15.6763 5.34878 16.7765 7.66849 16.9623 10.6473C16.9687 10.7202 16.9706 10.7937 16.9679 10.867C16.9637 10.9314 16.9938 11.0276 16.912 11.0435C16.8948 11.0472 16.8771 11.0465 16.8601 11.0414C16.843 11.0362 16.827 11.0268 16.813 11.0136C16.7989 11.0004 16.7872 10.9837 16.7784 10.9646C16.7696 10.9454 16.764 10.9243 16.7618 10.9023C16.7255 10.7179 16.692 10.5317 16.6529 10.3491C15.67 6.0829 12.6713 3.23819 9.16114 3.46672C6.24618 3.6529 4.15268 5.58437 2.83595 8.85701C2.60053 9.46094 2.41963 10.0964 2.29669 10.7514C2.27224 10.8741 2.27434 11.0629 2.13952 11.0426C1.98864 11.0197 2.06408 10.8291 2.06967 10.7214C2.23173 7.73819 3.32702 5.42202 5.24309 3.70584C5.79277 3.21422 6.39829 2.83074 7.03901 2.56849C7.35125 2.43966 7.66769 2.33643 7.98761 2.2279C8.09868 2.18996 8.21603 2.15731 8.31522 2.27643C8.51523 2.21311 8.72098 2.18344 8.92714 2.18819C9.49504 2.19084 10.0622 2.18643 10.6302 2.18555Z" fill="#543287"/>
<path d="M4.56062 8.75977C4.76529 8.86565 4.63816 8.97947 4.58926 9.06418C4.21625 9.71271 3.87327 10.3798 3.62529 11.1236C2.62849 14.1095 2.87856 16.9471 4.24419 19.6568C4.34338 19.8545 4.45864 20.0389 4.55992 20.2348C4.60603 20.323 4.73246 20.4051 4.64864 20.5251C4.56481 20.6451 4.47889 20.5206 4.40415 20.4615C3.84355 20.0155 3.36062 19.4301 2.98474 18.7409C1.25448 15.643 1.82588 11.1527 4.22044 9.03506C4.33081 8.93359 4.45165 8.84624 4.56062 8.75977Z" fill="#543287"/>
<path d="M16.0026 14.6673C16.0096 12.614 15.4438 10.8096 14.5064 9.16668C14.4477 9.06433 14.2766 8.96021 14.3946 8.81374C14.4952 8.68933 14.6084 8.86227 14.6964 8.93815C16.0725 10.1267 16.8457 11.7996 17.0064 13.8661C17.2076 16.4611 16.537 18.644 14.8612 20.2579C14.7292 20.3849 14.5455 20.6523 14.4295 20.5155C14.2738 20.3302 14.5252 20.1493 14.6118 19.9914C15.492 18.389 16.0089 16.6384 16.0026 14.6673Z" fill="#543287"/>
<path d="M1.86769 12.2019C0.977766 13.8643 1.01618 15.5116 1.89074 17.1678C1.26905 16.934 0.760523 15.8981 0.702545 14.7969C0.646663 13.7275 1.14052 12.5857 1.86769 12.2019Z" fill="#543287"/>
<path d="M18.3335 14.647C18.2943 15.5144 18.0883 16.2547 17.5965 16.8432C17.5176 16.9376 17.3632 17.0329 17.3381 17.0003C17.2556 16.8979 17.3262 16.762 17.3772 16.6473C17.9933 15.2223 17.9598 13.8238 17.2528 12.4641C17.2179 12.397 17.1236 12.3326 17.183 12.2488C17.2598 12.1447 17.3136 12.2612 17.3807 12.3176C18.0555 12.8823 18.279 13.725 18.3335 14.647Z" fill="#543287"/>
<path d="M10.6301 2.18558C10.0622 2.18558 9.495 2.19087 8.9271 2.18558C8.72094 2.18083 8.51519 2.21049 8.31519 2.27381C8.32496 2.21293 8.34662 2.16175 8.39971 2.15205C9.14434 2.0144 9.88827 1.95175 10.6301 2.18558Z" fill="#543287"/>
</g>
<defs>
<clipPath id="clip0_1463_166863">
<rect width="17.6351" height="19.9509" fill="white" transform="translate(0.698486 2.0293)"/>
</clipPath>
</defs>
</svg>
