<svg width="160" height="160" viewBox="0 0 160 160" fill="none" xmlns="http://www.w3.org/2000/svg">
<path d="M81.2848 0.0525566C82.1234 -0.0175189 82.9663 -0.0175189 83.8048 0.0525566C84.8286 0.0351733 85.8237 0.390582 86.6048 1.05256C86.8795 1.33875 87.0895 1.6806 87.2206 2.05498C87.3517 2.42936 87.4009 2.82753 87.3648 3.22256C87.3664 3.61848 87.2874 4.01059 87.1327 4.37504C86.978 4.73949 86.7507 5.06866 86.4648 5.34256C86.0353 5.7146 85.5345 5.99516 84.9929 6.16709C84.4513 6.33903 83.8803 6.39873 83.3148 6.34256C82.9774 6.32516 82.6425 6.27492 82.3148 6.19256L82.0148 10.1426L80.7048 10.0626L81.2848 0.0525566ZM82.2848 5.05256C82.637 5.15104 82.9994 5.2081 83.3648 5.22256C85.0148 5.26256 86.0148 4.55256 86.0148 3.15256C86.0148 1.75256 85.1848 1.15256 83.7348 1.04256C83.3231 0.991105 82.9066 0.991105 82.4948 1.04256L82.2848 5.05256Z" fill="white"/>
<path d="M90.0148 0.592529L91.3048 0.802529L89.8948 9.73253L94.1748 10.4225L94.0148 11.5025L88.4348 10.6125L90.0148 0.592529Z" fill="white"/>
<path d="M97.5848 9.11263L95.7148 11.9026L94.4048 11.5326L100.405 2.69263L101.925 3.11263L102.535 13.8126L101.185 13.4426L101.015 10.0726L97.5848 9.11263ZM101.065 9.02263L100.885 5.97263C100.885 5.27263 100.885 4.65263 100.885 4.04263C100.575 4.58263 100.245 5.13263 99.8848 5.67263L98.1148 8.19263L101.065 9.02263Z" fill="white"/>
<path d="M104.695 14.7326L106.285 10.7326L105.445 4.12256L106.835 4.67256L107.135 7.79256C107.215 8.65256 107.265 9.34256 107.305 10.1126C107.815 9.60256 108.385 9.11256 109.035 8.54256L111.415 6.48256L112.805 7.03256L107.495 11.1926L105.905 15.1926L104.695 14.7326Z" fill="white"/>
<path d="M117.705 9.68262C118.494 9.97849 119.254 10.3467 119.975 10.7826C120.93 11.2193 121.684 12.0019 122.085 12.9726C122.185 13.3175 122.21 13.6798 122.158 14.0352C122.107 14.3906 121.979 14.7307 121.785 15.0326C121.493 15.5439 121.041 15.9446 120.499 16.1724C119.956 16.4003 119.354 16.4425 118.785 16.2926C119.051 16.6625 119.213 17.0972 119.253 17.5511C119.294 18.005 119.211 18.4615 119.015 18.8726C118.681 19.7782 118.43 20.712 118.265 21.6626L117.125 20.9726C117.26 20.1429 117.477 19.3289 117.775 18.5426C118.235 17.1826 118.035 16.4526 117.035 15.8126L116.015 15.1826L113.725 18.9726L112.605 18.3026L117.705 9.68262ZM116.475 14.3226L117.625 15.0126C118.835 15.7226 119.995 15.5126 120.625 14.5126C121.255 13.5126 120.765 12.4126 119.625 11.6926C119.256 11.4613 118.859 11.2766 118.445 11.1426L116.475 14.3226Z" fill="white"/>
<path d="M126.325 21.7325L123.175 19.3725L121.015 22.2925L124.495 24.9725L123.845 25.8525L119.275 22.4325L125.355 14.3125L129.735 17.5925L129.075 18.4725L125.745 15.9725L123.815 18.5425L127.015 20.8625L126.325 21.7325Z" fill="white"/>
<path d="M132.015 26.8125L129.115 24.1425L126.635 26.8325L129.865 29.8325L129.125 30.6425L124.935 26.7725L131.805 19.3225L135.805 23.0325L135.065 23.8325L132.015 20.9725L129.835 23.3325L132.735 26.0025L132.015 26.8125Z" fill="white"/>
<path d="M137.685 24.9727L138.555 25.9727L131.795 31.9727L134.675 35.2127L133.855 35.9427L130.105 31.7327L137.685 24.9727Z" fill="white"/>
<path d="M142.815 38.6425L142.005 39.1925L139.905 36.1325L140.715 35.5725L142.815 38.6425Z" fill="white"/>
<path d="M149.405 41.1326C149.901 41.8114 150.339 42.5306 150.715 43.2826C151.24 44.1593 151.428 45.1972 151.245 46.2026C151.141 46.5887 150.954 46.9474 150.697 47.2532C150.439 47.5591 150.118 47.8046 149.755 47.9726C149.41 48.1681 149.031 48.2934 148.638 48.3415C148.245 48.3896 147.846 48.3593 147.465 48.2526C146.933 48.0543 146.446 47.75 146.036 47.358C145.625 46.9661 145.298 46.4947 145.075 45.9726C144.902 45.6565 144.768 45.3207 144.675 44.9726L141.015 46.8326L140.415 45.6626L149.405 41.1326ZM145.625 44.5126C145.719 44.8603 145.853 45.1959 146.025 45.5126C146.745 46.9226 147.865 47.4326 149.105 46.8026C150.345 46.1726 150.455 45.0626 149.805 43.8026C149.625 43.4257 149.404 43.0701 149.145 42.7426L145.625 44.5126Z" fill="white"/>
<path d="M153.315 48.9727L153.785 50.1927L145.335 53.4227L146.875 57.4227L145.875 57.8127L143.875 52.5427L153.315 48.9727Z" fill="white"/>
<path d="M149.715 59.8024L146.365 59.5724L146.015 58.2524L156.705 59.0824L157.095 60.6224L148.095 66.4824L147.755 65.1224L150.575 63.2824L149.715 59.8024ZM151.535 62.8024L154.115 61.1124C154.705 60.7324 155.245 60.4424 155.775 60.1124C155.155 60.1124 154.515 60.1124 153.865 60.1124L150.775 59.8824L151.535 62.8024Z" fill="white"/>
<path d="M148.395 68.7526L152.655 68.1226L157.965 64.1226L158.185 65.6026L155.625 67.4226C154.925 67.9226 154.355 68.3126 153.695 68.7226C154.395 68.9126 155.095 69.1626 155.915 69.4326L158.915 70.4326L159.135 71.9026L152.875 69.3926L148.605 70.0226L148.395 68.7526Z" fill="white"/>
<path d="M159.285 77.5226C159.425 78.3515 159.481 79.1923 159.455 80.0325C159.547 81.0811 159.235 82.1252 158.585 82.9526C158.335 83.212 158.033 83.415 157.698 83.5478C157.364 83.6807 157.004 83.7402 156.645 83.7225C156.057 83.7188 155.487 83.5206 155.024 83.1587C154.561 82.7969 154.231 82.2919 154.085 81.7225C153.907 82.1357 153.62 82.4931 153.256 82.7571C152.892 83.0211 152.463 83.1819 152.015 83.2225C151.065 83.3867 150.131 83.6344 149.225 83.9625V82.6125C150.012 82.319 150.826 82.1046 151.655 81.9725C153.065 81.6925 153.595 81.1625 153.655 79.9725V78.7425L149.255 78.6626V77.3625L159.285 77.5226ZM154.645 78.7525V80.0926C154.645 81.4926 155.375 82.3926 156.535 82.4126C157.845 82.4126 158.425 81.4925 158.465 80.1125C158.486 79.6767 158.452 79.2401 158.365 78.8125L154.645 78.7525Z" fill="white"/>
<path d="M153.185 90.9726L153.635 87.0526L150.015 86.6226L149.495 90.9726L148.405 90.8526L149.065 85.1826L159.145 86.3526L158.505 91.8026L157.415 91.6726L157.895 87.5326L154.715 87.1626L154.255 91.0726L153.185 90.9726Z" fill="white"/>
<path d="M151.635 98.4525L152.495 94.6025L148.925 93.8025L147.925 98.0925L146.855 97.8625L148.095 92.2925L157.995 94.4925L156.805 99.8425L155.735 99.6025L156.645 95.5325L153.515 94.8325L152.655 98.6825L151.635 98.4525Z" fill="white"/>
<path d="M156.105 102.402L155.695 103.652L147.105 100.802L145.745 104.972L144.745 104.622L146.515 99.2725L156.105 102.402Z" fill="white"/>
<path d="M146.785 113.743L145.895 113.323L147.505 109.963L148.385 110.383L146.785 113.743Z" fill="white"/>
<path d="M147.925 120.663C147.579 121.433 147.175 122.175 146.715 122.883C146.218 123.779 145.411 124.462 144.445 124.803C144.06 124.902 143.659 124.916 143.268 124.843C142.878 124.771 142.508 124.613 142.185 124.383C141.845 124.182 141.548 123.916 141.311 123.6C141.075 123.284 140.902 122.925 140.805 122.543C140.708 121.986 140.726 121.415 140.857 120.865C140.987 120.315 141.228 119.797 141.565 119.343C141.748 119.038 141.966 118.756 142.215 118.503L138.815 116.283L139.525 115.193L147.925 120.663ZM143.105 119.093C142.843 119.346 142.615 119.632 142.425 119.943C141.565 121.263 141.685 122.493 142.855 123.253C144.025 124.013 145.035 123.543 145.855 122.333C146.089 121.991 146.287 121.626 146.445 121.243L143.105 119.093Z" fill="white"/>
<path d="M143.015 127.972L142.185 128.972L135.185 123.252L132.455 126.612L131.595 125.922L135.165 121.542L143.015 127.972Z" fill="white"/>
<path d="M131.915 130.262L130.435 127.262L131.435 126.262L136.015 135.972L134.885 137.082L125.325 132.262L126.325 131.262L129.325 132.782L131.915 130.262ZM130.255 133.312L133.005 134.702C133.635 135.022 134.165 135.342 134.675 135.702C134.355 135.172 134.045 134.612 133.755 134.032L132.405 131.252L130.255 133.312Z" fill="white"/>
<path d="M123.495 133.613L126.175 136.983L132.325 139.563L131.155 140.493L128.295 139.183C127.505 138.833 126.885 138.533 126.205 138.183C126.395 138.883 126.535 139.613 126.705 140.463L127.305 143.563L126.145 144.493L125.145 137.813L122.455 134.433L123.495 133.613Z" fill="white"/>
<path d="M121.405 147.402C120.759 147.941 120.062 148.417 119.325 148.823C118.456 149.443 117.382 149.704 116.325 149.553C115.977 149.467 115.65 149.309 115.368 149.088C115.085 148.867 114.852 148.59 114.685 148.273C114.394 147.769 114.275 147.185 114.345 146.607C114.415 146.03 114.671 145.491 115.075 145.073C114.636 145.122 114.192 145.056 113.787 144.88C113.381 144.705 113.029 144.426 112.765 144.073C112.144 143.345 111.457 142.676 110.715 142.073L111.895 141.402C112.542 141.94 113.137 142.536 113.675 143.183C114.675 144.253 115.355 144.443 116.415 143.893L117.485 143.283L115.325 139.463L116.465 138.823L121.405 147.402ZM118.015 144.033L116.855 144.693C115.635 145.383 115.235 146.483 115.855 147.493C116.475 148.503 117.605 148.663 118.855 147.993C119.24 147.79 119.599 147.541 119.925 147.253L118.015 144.033Z" fill="white"/>
<path d="M106.665 148.893L110.285 147.333L108.835 143.973L104.835 145.713L104.405 144.713L109.645 142.453L113.645 151.773L108.645 153.943L108.215 152.943L112.015 151.273L110.745 148.273L107.125 149.843L106.665 148.893Z" fill="white"/>
<path d="M99.4047 151.283L103.175 150.113L102.075 146.623L97.8847 147.973L97.5547 146.923L102.995 145.223L105.995 154.893L100.765 156.533L100.435 155.483L104.435 154.243L103.435 151.183L99.6747 152.363L99.4047 151.283Z" fill="white"/>
<path d="M98.1948 157.143L96.9048 157.403L95.0948 148.553L90.8448 149.423L90.6248 148.343L96.1548 147.213L98.1948 157.143Z" fill="white"/>
<path d="M83.7548 154.723L83.6748 153.723L87.3848 153.443L87.4548 154.443L83.7548 154.723Z" fill="white"/>
<path d="M78.3447 159.182C77.5079 159.273 76.6649 159.294 75.8247 159.242C74.8036 159.262 73.8109 158.906 73.0347 158.242C72.7542 157.96 72.5391 157.619 72.4043 157.244C72.2696 156.869 72.2185 156.469 72.2547 156.072C72.2577 155.677 72.3387 155.286 72.4931 154.923C72.6476 154.559 72.8724 154.229 73.1547 153.952C73.5842 153.58 74.0851 153.3 74.6267 153.128C75.1683 152.956 75.7392 152.896 76.3047 152.952C76.6426 152.965 76.9779 153.016 77.3047 153.102L77.5147 149.042L78.8247 149.112L78.3447 159.182ZM77.3447 154.182C76.9963 154.084 76.6367 154.03 76.2747 154.022C74.6947 153.942 73.6947 154.652 73.6147 156.022C73.5347 157.392 74.4547 158.022 75.9047 158.132C76.3167 158.18 76.7327 158.18 77.1447 158.132L77.3447 154.182Z" fill="white"/>
<path d="M69.5748 158.652L68.2748 158.442L69.6948 149.512L65.4048 148.842L65.5848 147.752L71.1548 148.632L69.5748 158.652Z" fill="white"/>
<path d="M62.0149 150.153L63.8849 147.363L65.1949 147.723L59.1949 156.573L57.6749 156.143L57.0149 145.453L58.3649 145.823L58.5549 149.183L62.0149 150.153ZM58.5449 150.243L58.7149 153.323C58.7149 154.023 58.7149 154.643 58.7149 155.243C59.0249 154.703 59.3449 154.153 59.7149 153.613L61.4549 151.053L58.5449 150.243Z" fill="white"/>
<path d="M54.8748 144.543L53.2948 148.543L54.1348 155.152L52.7448 154.603L52.4448 151.473C52.3648 150.613 52.3048 149.932 52.2748 149.152C51.7648 149.662 51.2048 150.153 50.5548 150.723L48.1648 152.793L46.7848 152.253L52.0148 148.073L53.6048 144.073L54.8748 144.543Z" fill="white"/>
<path d="M41.8848 149.603C41.0951 149.313 40.335 148.948 39.6148 148.513C38.6536 148.074 37.898 147.283 37.5048 146.303C37.4031 145.958 37.3763 145.597 37.4264 145.241C37.4764 144.886 37.602 144.545 37.7948 144.243C38.0861 143.731 38.5382 143.331 39.0807 143.103C39.6232 142.875 40.2258 142.833 40.7948 142.983C40.5379 142.622 40.3805 142.2 40.3383 141.76C40.2962 141.319 40.3709 140.875 40.5548 140.473C40.8921 139.566 41.1399 138.628 41.2948 137.673L42.4648 138.363C42.3298 139.192 42.1121 140.006 41.8148 140.793C41.3648 142.153 41.5648 142.883 42.5648 143.523L43.6248 144.153L45.8548 140.363L47.0148 140.973L41.8848 149.603ZM43.1048 144.973L41.9448 144.293C40.7448 143.583 39.5848 143.793 39.0048 144.793C38.4248 145.793 38.8648 146.893 40.0048 147.603C40.3747 147.835 40.7708 148.023 41.1848 148.163L43.1048 144.973Z" fill="white"/>
<path d="M33.2548 137.593L36.4148 139.973L38.6048 136.973L35.0748 134.353L35.7348 133.473L40.3048 136.973L34.3048 145.103L29.9048 141.833L30.5648 140.953L33.9048 143.443L35.8248 140.873L32.6548 138.513L33.2548 137.593Z" fill="white"/>
<path d="M27.5548 132.513L30.4548 135.183L32.9348 132.483L29.6948 129.483L30.4348 128.673L34.6448 132.533L27.7848 140.013L23.7848 136.303L24.5248 135.493L27.5948 138.313L29.7248 135.973L26.8248 133.303L27.5548 132.513Z" fill="white"/>
<path d="M21.8748 134.393L21.0048 133.393L27.7548 127.393L24.8648 124.163L25.6848 123.433L29.4448 127.643L21.8748 134.393Z" fill="white"/>
<path d="M16.7247 120.693L17.5247 120.133L19.6347 123.193L18.8347 123.753L16.7247 120.693Z" fill="white"/>
<path d="M10.1448 118.243C9.64755 117.565 9.20928 116.845 8.83482 116.093C8.30005 115.219 8.10434 114.18 8.28482 113.173C8.39097 112.789 8.57917 112.433 8.83643 112.129C9.09369 111.825 9.41386 111.581 9.77482 111.413C10.1192 111.217 10.4988 111.092 10.8918 111.044C11.2849 110.996 11.6835 111.026 12.0648 111.133C12.5962 111.326 13.083 111.625 13.4955 112.012C13.908 112.398 14.2378 112.865 14.4648 113.383C14.6377 113.699 14.772 114.034 14.8648 114.383L18.4848 112.543L19.0748 113.713L10.1448 118.243ZM13.9148 114.853C13.8163 114.506 13.6822 114.171 13.5148 113.853C12.7948 112.443 11.6748 111.933 10.4248 112.563C9.17482 113.193 9.08482 114.313 9.74482 115.563C9.92242 115.92 10.1405 116.255 10.3948 116.563L13.9148 114.853Z" fill="white"/>
<path d="M6.20474 110.363L5.73474 109.143L14.1847 105.903L12.6347 101.853L13.6347 101.463L15.6347 106.733L6.20474 110.363Z" fill="white"/>
<path d="M9.78479 99.5425L13.1448 99.7726L13.4748 101.083L2.79479 100.273L2.40479 98.7425L11.4048 92.8625L11.7548 94.2225L8.89478 96.0625L9.78479 99.5425ZM8.01478 96.5826L5.38478 98.2726C4.80479 98.6526 4.25479 98.9526 3.72479 99.2726C4.34479 99.2726 4.98479 99.2726 5.63478 99.2726L8.72478 99.5025L8.01478 96.5826Z" fill="white"/>
<path d="M11.0947 90.5926L6.83475 91.2226L1.52475 95.2226L1.31475 93.7826L3.86475 91.9726C4.57475 91.4726 5.13475 91.0826 5.79475 90.6726C5.10475 90.4826 4.39475 90.2426 3.57475 89.9626L0.574746 88.9626L0.364746 87.4026L6.62475 89.9126L10.9047 89.2826L11.0947 90.5926Z" fill="white"/>
<path d="M0.184778 81.8226C0.0550963 80.9924 -0.00178677 80.1526 0.0147777 79.3126C-0.0741384 78.2627 0.240568 77.2185 0.894778 76.3926C1.14397 76.1326 1.4462 75.9292 1.78094 75.7963C2.11569 75.6635 2.4751 75.6042 2.83478 75.6226C3.41462 75.6239 3.97804 75.8153 4.43864 76.1675C4.89925 76.5197 5.23161 77.0133 5.38478 77.5726C5.57158 77.17 5.86138 76.8239 6.22486 76.5693C6.58834 76.3147 7.01262 76.1606 7.45478 76.1226C8.40582 75.9634 9.33989 75.7157 10.2448 75.3826V76.7326C9.45963 77.0311 8.64509 77.2456 7.81478 77.3726C6.41478 77.6526 5.87478 78.1826 5.81478 79.3726V80.6126L10.2148 80.6826V81.9926L0.184778 81.8226ZM4.82478 80.5926V79.2526C4.82478 77.8526 4.09478 76.9526 2.93478 76.9326C1.77478 76.9126 1.04478 77.8526 1.00478 79.2326C0.983543 79.6684 1.01714 80.1051 1.10478 80.5326L4.82478 80.5926Z" fill="white"/>
<path d="M6.27483 68.3925L5.82483 72.3125L9.45483 72.7225L9.95483 68.3625L11.0448 68.4825L10.4048 74.1525L0.324829 72.9725L0.944829 67.5225L2.01483 67.6825L1.54483 71.8225L4.72483 72.1925L5.17483 68.2725L6.27483 68.3925Z" fill="white"/>
<path d="M7.8148 60.8924L7.01479 64.7424L10.5848 65.5324L11.5848 61.2425L12.6548 61.4824L11.4248 67.0525L1.41479 64.8624L2.60479 59.5125L3.6748 59.7524L2.77479 63.8224L5.90479 64.5125L6.75479 60.6624L7.8148 60.8924Z" fill="white"/>
<path d="M3.32483 56.9726L3.73483 55.7226L12.3348 58.5626L13.6848 54.4426L14.7348 54.7826L13.0148 60.1226L3.32483 56.9726Z" fill="white"/>
<path d="M12.6248 45.6226L13.5148 46.0426L11.9148 49.4026L11.0148 48.9726L12.6248 45.6226Z" fill="white"/>
<path d="M11.4749 38.6924C11.8162 37.9203 12.221 37.1778 12.6849 36.4724C13.1804 35.5795 13.9836 34.8972 14.9449 34.5524C15.3286 34.4511 15.7299 34.4353 16.1204 34.5062C16.511 34.577 16.8812 34.7328 17.2049 34.9624C17.5465 35.1623 17.8451 35.4278 18.0837 35.7436C18.3223 36.0593 18.496 36.4192 18.5949 36.8024C18.6844 37.3542 18.6643 37.9182 18.5356 38.4622C18.4069 39.0061 18.1722 39.5193 17.8449 39.9724C17.658 40.2712 17.4402 40.5495 17.1949 40.8024L20.5949 43.0224L19.8849 44.1224L11.4749 38.6924ZM16.2949 40.2624C16.5539 40.0066 16.7822 39.7214 16.9749 39.4124C17.8349 38.0824 17.7149 36.8624 16.5449 36.0924C15.3749 35.3224 14.3549 35.8024 13.5449 37.0224C13.3275 37.3645 13.1497 37.7302 13.0149 38.1124L16.2949 40.2624Z" fill="white"/>
<path d="M16.3347 31.3525L17.1547 30.3525L24.1547 36.0425L26.9147 32.6725L27.7647 33.3625L24.2047 37.7425L16.3347 31.3525Z" fill="white"/>
<path d="M27.4847 29.0525L28.9647 32.0525L28.0147 32.9725L23.3547 23.3724L24.4747 22.2625L34.0147 27.0725L33.0147 28.0725L30.0147 26.5525L27.4847 29.0525ZM29.1347 25.9725L26.3847 24.5925C25.7547 24.2725 25.2347 23.9525 24.7147 23.6425C25.0247 24.1725 25.3347 24.7325 25.6347 25.3125L26.9747 28.0925L29.1347 25.9725Z" fill="white"/>
<path d="M35.8948 25.6825L33.2148 22.3225L27.0648 19.7525L28.2348 18.8225L31.0948 20.1225C31.8748 20.4725 32.4948 20.7725 33.1848 21.1225C33.0048 20.4225 32.8548 19.6925 32.6848 18.8425L32.0848 15.7425L33.2448 14.8225L34.2448 21.4925L36.9448 24.8725L35.8948 25.6825Z" fill="white"/>
<path d="M38.0148 11.8925C38.6389 11.3619 39.3081 10.8867 40.0148 10.4725C40.8823 9.84945 41.958 9.58772 43.0148 9.74245C43.363 9.82796 43.6892 9.98623 43.9718 10.2068C44.2545 10.4275 44.4872 10.7054 44.6548 11.0225C44.9478 11.5229 45.0693 12.1054 45.0007 12.6813C44.9321 13.2572 44.6772 13.7949 44.2748 14.2125C44.7133 14.166 45.1565 14.2337 45.5612 14.4089C45.9659 14.5841 46.3185 14.8609 46.5848 15.2125C47.1901 15.9377 47.8595 16.6071 48.5848 17.2125L47.4748 17.9725C46.8299 17.4367 46.2342 16.8443 45.6948 16.2025C44.6948 15.1325 44.0048 14.9425 42.9548 15.4925L41.8848 16.0925L44.0148 19.9725L42.8748 20.6225L38.0148 11.8925ZM41.4348 15.2625L42.5948 14.6025C42.8541 14.4959 43.0881 14.3361 43.2817 14.1332C43.4752 13.9304 43.624 13.6892 43.7183 13.4251C43.8126 13.1611 43.8503 12.8802 43.829 12.6007C43.8078 12.3211 43.7279 12.0492 43.5948 11.8025C42.9448 10.6625 41.8348 10.6325 40.5948 11.3025C40.213 11.5056 39.8571 11.7541 39.5348 12.0425L41.4348 15.2625Z" fill="white"/>
<path d="M52.7048 10.3825L49.0848 11.9725L50.5448 15.3325L54.5448 13.5825L54.9848 14.5825L49.7448 16.8426L45.7448 7.54255L50.7448 5.36255L51.1748 6.36255L47.3848 7.97255L48.6548 10.9725L52.2747 9.40255L52.7048 10.3825Z" fill="white"/>
<path d="M59.9348 7.97246L56.1648 9.17246L57.2648 12.6525L61.4648 11.3325L61.7948 12.3825L56.3548 14.1025L53.2948 4.42246L58.5248 2.77246L58.8548 3.82246L54.8548 5.07246L55.8548 8.13246L59.6048 6.97246L59.9348 7.97246Z" fill="white"/>
<path d="M61.1548 2.11254L62.4448 1.85254L64.2748 10.7125L68.5148 9.83254L68.7448 10.9025L63.2148 12.0525L61.1548 2.11254Z" fill="white"/>
<path d="M75.5948 4.51245L75.6748 5.51245L72.0148 5.78245L71.9348 4.78245L75.5948 4.51245Z" fill="white"/>
</svg>
