<svg width="168" height="168" viewBox="0 0 168 168" fill="none" xmlns="http://www.w3.org/2000/svg">
<g filter="url(#filter0_d_1428_113998)">
<g opacity="0.8" clip-path="url(#clip0_1428_113998)">
<path d="M94.709 10.3402L96.7831 8.68943C97.4603 9.86051 98.4197 10.5237 99.2381 10.7071C100.198 10.9187 100.663 10.566 100.776 10.0439C100.917 9.3949 100.564 9.02806 99.3227 8.28026C97.6719 7.26439 96.0776 6.02277 96.5855 3.72294C97.0229 1.77585 99.0547 0.647107 101.213 1.09861C102.751 1.40901 104.007 2.2979 104.952 3.53952L102.935 5.23264C102.116 4.21677 101.439 3.70884 100.762 3.56774C100.099 3.42665 99.619 3.68062 99.4921 4.24499C99.3651 4.76704 99.7319 5.13388 100.917 5.924C102.808 7.16563 104.261 8.05451 103.753 10.3543C103.146 13.1198 100.508 13.5854 98.6455 13.1762C97.1076 12.8376 95.6966 11.9064 94.709 10.3402Z" fill="white"/>
<path d="M106.04 8.5908C107.309 5.38798 110.399 3.62431 114.082 5.07758C115.606 5.68428 117.087 7.01056 117.736 9.01408L115.154 9.90297C114.858 9.0423 114.195 8.02643 113.094 7.58904C111.458 6.94001 109.623 7.61726 108.805 9.67722C108.114 11.4409 108.734 13.3315 110.54 14.037C111.542 14.4321 112.727 14.291 113.616 13.783L114.886 16.1957C113.447 17.0141 111.528 17.3386 109.539 16.5485C106.463 15.3492 104.572 12.3016 106.04 8.5908Z" fill="white"/>
<path d="M120.488 22.0368L120.375 17.4512L119.529 16.9433L117.525 20.259L115.141 18.8198L121.349 8.52002L125.37 10.9327C127.91 12.4565 128.149 14.6576 126.908 16.7034C125.963 18.2696 124.636 18.8622 123.141 18.6364L123.112 18.6787L123.352 23.7581L120.488 22.0368ZM120.798 14.8128L121.913 15.49C122.957 16.1108 123.903 15.9839 124.41 15.1373C124.876 14.3613 124.664 13.4442 123.592 12.7952L122.435 12.0897L120.798 14.8128Z" fill="white"/>
<path d="M127.585 19.328C129.955 16.5908 133.539 16.2945 136.318 18.6931C139.041 21.0353 139.366 24.619 136.953 27.4127C134.555 30.1922 130.957 30.4039 128.248 28.0617C125.454 25.649 125.214 22.0653 127.585 19.328ZM134.71 25.4797C136.022 23.9559 136.008 21.9242 134.583 20.6966C133.13 19.455 131.112 19.7654 129.814 21.261C128.53 22.7566 128.516 24.8025 129.955 26.0582C131.38 27.2716 133.398 26.9894 134.71 25.4797Z" fill="white"/>
<path d="M143.146 25.4653L144.966 27.6523L137.657 33.7475L140.888 37.6276L138.955 39.2361L133.904 33.1831L143.146 25.4653Z" fill="white"/>
<path d="M149.891 33.9453L151.401 36.358L143.33 41.4092L146.011 45.6843L143.866 47.0247L139.676 40.3227L149.891 33.9453Z" fill="white"/>
<path d="M161.715 59.7512L150.315 63.5748L149.426 60.9081L155.705 58.8059L155.691 58.7776L150.724 57.8746L150.146 56.1533L153.56 52.4425V52.4002L147.281 54.5025L146.393 51.8358L157.793 48.0122L158.696 50.7212L153.715 55.8993L153.729 55.9417L160.826 57.0422L161.715 59.7512Z" fill="white"/>
<path d="M156.594 64.2099C160.192 63.7725 163.027 65.9735 163.465 69.6137C163.888 73.1693 161.729 76.0335 158.061 76.4709C154.421 76.9083 151.627 74.6508 151.19 71.0952C150.766 67.455 153.01 64.6473 156.594 64.2099ZM157.722 73.5502C159.712 73.3104 161.066 71.7866 160.855 69.9383C160.629 68.0476 158.922 66.9048 156.96 67.1446C155.013 67.3845 153.617 68.8942 153.842 70.7848C154.054 72.6331 155.733 73.7901 157.722 73.5502Z" fill="white"/>
<path d="M151.669 84.8799L155.676 82.6366L155.733 81.6489L151.867 81.4373L152.022 78.6577L164.015 79.3209L163.761 83.991C163.592 86.954 161.772 88.1815 159.387 88.0545C157.567 87.9558 156.41 87.0528 155.916 85.6277H155.874L151.5 88.2097L151.669 84.8799ZM158.202 81.79L158.131 83.0881C158.061 84.3015 158.625 85.0775 159.613 85.1339C160.516 85.1762 161.221 84.5695 161.292 83.3138L161.362 81.9593L158.202 81.79Z" fill="white"/>
<path d="M163.026 91.7793L161.432 99.4689L158.949 98.961L159.979 93.9945L157.721 93.5289L156.903 97.4513L154.476 96.9434L155.294 93.021L153.15 92.5836L152.049 97.9028L149.58 97.3949L151.245 89.3525L163.026 91.7793Z" fill="white"/>
<path d="M139.352 121.846L139.803 124.471C138.449 124.499 137.404 125.035 136.854 125.656C136.205 126.389 136.29 126.968 136.699 127.321C137.193 127.758 137.687 127.631 138.942 126.897C140.621 125.924 142.47 125.134 144.247 126.686C145.757 127.998 145.757 130.326 144.332 132.005C143.316 133.204 141.934 133.881 140.396 134.121L139.874 131.525C141.158 131.299 141.934 130.933 142.385 130.425C142.837 129.917 142.837 129.366 142.413 128.986C142.018 128.619 141.51 128.774 140.255 129.423C138.251 130.481 136.784 131.328 135.006 129.776C132.875 127.913 133.722 125.374 134.992 123.934C136.008 122.749 137.517 121.959 139.352 121.846Z" fill="white"/>
<path d="M126.765 131.878C129.319 129.747 132.888 129.55 135.442 132.612C137.643 135.25 137.714 138.82 134.666 141.359C133.396 142.418 131.534 143.067 129.46 142.686L129.925 139.991C130.814 140.146 132.042 140.047 132.945 139.285C134.299 138.157 134.596 136.224 133.17 134.516C131.957 133.049 129.996 132.696 128.5 133.952C127.668 134.643 127.23 135.758 127.259 136.774L124.521 136.732C124.479 135.095 125.128 133.247 126.765 131.878Z" fill="white"/>
<path d="M116.706 138.89L120.784 140.993L121.644 140.485L119.683 137.141L122.082 135.73L128.163 146.1L124.128 148.471C121.574 149.966 119.528 149.12 118.329 147.06C117.411 145.48 117.524 144.026 118.427 142.827L118.413 142.785L113.842 140.555L116.706 138.89ZM122.9 142.629L121.771 143.293C120.727 143.913 120.389 144.802 120.882 145.649C121.334 146.425 122.237 146.679 123.323 146.044L124.494 145.353L122.9 142.629Z" fill="white"/>
<path d="M115.704 146.425C116.974 149.825 115.521 153.113 112.078 154.397C108.72 155.652 105.419 154.227 104.121 150.77C102.837 147.328 104.36 144.069 107.733 142.813C111.175 141.529 114.434 143.039 115.704 146.425ZM106.886 149.74C107.591 151.617 109.397 152.591 111.147 151.927C112.939 151.25 113.63 149.317 112.939 147.469C112.247 145.621 110.456 144.633 108.664 145.296C106.914 145.945 106.18 147.864 106.886 149.74Z" fill="white"/>
<path d="M102.821 157.134L100.027 157.67L98.2212 148.33L93.2688 149.289L92.7891 146.82L100.535 145.324L102.821 157.134Z" fill="white"/>
<path d="M92.2124 158.954L89.3764 159.123L88.8261 149.642L83.8032 149.924L83.6621 147.412L91.5351 146.961L92.2124 158.954Z" fill="white"/>
<path d="M63.8945 156.993L65.9968 145.155L68.7623 145.649L67.6053 152.182H67.6335L70.8081 148.259L72.5859 148.57L74.2226 153.339H74.2508L75.4078 146.82L78.1732 147.314L76.0709 159.152L73.2631 158.658L71.1044 151.801L71.0621 151.787L66.7023 157.487L63.8945 156.993Z" fill="white"/>
<path d="M62.4127 150.376C61.0723 153.748 57.7848 155.187 54.3703 153.832C51.0405 152.506 49.559 149.233 50.9276 145.804C52.2821 142.39 55.612 141.021 58.9418 142.347C62.3562 143.702 63.753 147.018 62.4127 150.376ZM53.6649 146.891C52.9171 148.753 53.6084 150.686 55.3439 151.363C57.1217 152.069 58.9277 151.109 59.6613 149.275C60.395 147.441 59.7319 145.508 57.9541 144.788C56.2187 144.111 54.3986 145.028 53.6649 146.891Z" fill="white"/>
<path d="M46.6241 136.139L46.6805 140.725L47.5271 141.247L49.5729 137.959L51.9433 139.427L45.6223 149.642L41.6435 147.173C39.1179 145.607 38.9204 143.42 40.1761 141.388C41.1356 139.836 42.4759 139.257 43.9715 139.497L43.9998 139.469L43.8304 134.39L46.6241 136.139ZM46.2149 143.363L45.1003 142.672C44.0703 142.037 43.125 142.15 42.6029 142.982C42.1232 143.744 42.3207 144.661 43.393 145.324L44.55 146.044L46.2149 143.363Z" fill="white"/>
<path d="M35.1254 142.813L29.1289 137.719L30.7656 135.786L34.6457 139.074L36.1413 137.31L33.0795 134.714L34.688 132.809L37.7497 135.406L39.1607 133.741L35.0125 130.213L36.6492 128.294L42.9137 133.614L35.1254 142.813Z" fill="white"/>
<path d="M20.0847 107.624L17.5733 106.777C18.1941 105.564 18.2223 104.407 17.9401 103.617C17.6015 102.7 17.0512 102.502 16.5433 102.686C15.9225 102.911 15.7955 103.405 15.8519 104.859C15.8943 106.792 15.7108 108.795 13.5098 109.613C11.6332 110.305 9.6015 109.204 8.79727 107.144C8.23289 105.691 8.28933 104.167 8.81138 102.686L11.3369 103.476C10.9278 104.717 10.8713 105.564 11.1112 106.199C11.3511 106.834 11.8167 107.102 12.3669 106.904C12.8749 106.721 12.9877 106.213 13.0019 104.802C13.0301 102.545 12.9877 100.837 15.1888 100.033C17.8414 99.0455 19.6615 101.007 20.3246 102.799C20.889 104.266 20.8608 105.959 20.0847 107.624Z" fill="white"/>
<path d="M17.3048 91.7511C17.9397 95.0103 16.4018 98.2414 12.4794 99.0174C9.10725 99.6805 5.94676 98.0297 5.18485 94.1355C4.86034 92.513 5.18485 90.5659 6.52524 88.9292L8.65575 90.6223C8.09138 91.3278 7.59755 92.4424 7.8233 93.6135C8.16193 95.3489 9.71395 96.5341 11.9009 96.0967C13.7633 95.7299 15.0191 94.192 14.6381 92.2731C14.4265 91.2149 13.6646 90.2978 12.7616 89.8181L14.102 87.4336C15.5693 88.1955 16.8815 89.6488 17.3048 91.7511Z" fill="white"/>
<path d="M15.979 79.5891L12.1836 82.1711L12.2118 83.1587L16.0918 83.0318L16.1765 85.8113L4.14123 86.1923L4.00014 81.5221C3.90137 78.5591 5.62271 77.1623 8.0213 77.0917C9.84141 77.0353 11.0689 77.8254 11.6897 79.2081H11.7321L15.8802 76.2593L15.979 79.5891ZM9.72853 83.2434L9.6862 81.9312C9.64388 80.7178 9.02306 79.9841 8.03541 80.0265C7.13241 80.0547 6.48338 80.7319 6.5116 81.9877L6.55393 83.3422L9.72853 83.2434Z" fill="white"/>
<path d="M9.87027 75.0596C6.28649 74.5517 4.09954 71.7016 4.62159 68.0614C5.12953 64.5058 7.96551 62.3048 11.6057 62.8268C15.2318 63.3488 17.3482 66.2413 16.8544 69.7968C16.3465 73.437 13.454 75.5675 9.87027 75.0596ZM11.1965 65.7474C9.20713 65.4652 7.4999 66.5799 7.24593 68.4282C6.97785 70.3189 8.33235 71.8568 10.2935 72.139C12.2406 72.4212 13.9761 71.3206 14.2442 69.43C14.4981 67.5817 13.186 66.0296 11.1965 65.7474Z" fill="white"/>
<path d="M6.61133 58.6366L7.472 55.9276L16.5302 58.8059L18.054 53.9946L20.4526 54.7565L18.0681 62.2768L6.61133 58.6366Z" fill="white"/>
<path d="M10.1094 48.4216L11.3228 45.8537L19.9154 49.9172L22.0741 45.3599L24.3457 46.4322L20.9736 53.5574L10.1094 48.4216Z" fill="white"/>
<path d="M25.3897 24.5342L34.7865 32.0404L33.0228 34.2414L27.8447 30.0933L27.8306 30.1215L29.7636 34.7917L28.6348 36.2026L23.6683 35.356L23.6542 35.3843L28.8324 39.5183L27.0687 41.7194L17.6719 34.1991L19.4497 31.9698L26.5043 33.3525L26.5325 33.3102L23.6119 26.7493L25.3897 24.5342Z" fill="white"/>
<path d="M31.9378 26.425C29.6239 23.6455 29.9202 20.0617 32.7279 17.7054C35.4792 15.4056 39.063 15.6737 41.4334 18.5097C43.7896 21.3315 43.4087 24.9012 40.6574 27.201C37.8355 29.5573 34.2517 29.2046 31.9378 26.425ZM39.1759 20.4003C37.8919 18.8624 35.8743 18.552 34.4351 19.7372C32.9678 20.9647 32.9396 23.0106 34.2094 24.5344C35.4651 26.0441 37.4969 26.3968 38.9642 25.1693C40.3893 23.97 40.4457 21.9382 39.1759 20.4003Z" fill="white"/>
<path d="M51.9995 19.3561L47.936 17.1974L47.0754 17.6912L48.9942 21.0633L46.5674 22.4461L40.6133 11.9769L44.6909 9.66299C47.2729 8.19562 49.3046 9.0704 50.4898 11.1445C51.3928 12.7388 51.2658 14.1921 50.3346 15.3773L50.3487 15.4196L54.8919 17.7053L51.9995 19.3561ZM45.8478 15.5325L46.9907 14.8835C48.0489 14.2767 48.4016 13.3879 47.9078 12.5272C47.4563 11.7371 46.5533 11.4831 45.4669 12.1039L44.2817 12.7812L45.8478 15.5325Z" fill="white"/>
<path d="M51.6191 6.09335L58.9419 3.27148L59.8449 5.62775L55.1183 7.44785L55.9507 9.59247L59.6897 8.15332L60.5786 10.4673L56.8396 11.9064L57.6297 13.9382L62.695 11.9911L63.598 14.3473L55.9507 17.2962L51.6191 6.09335Z" fill="white"/>
<path d="M150.583 114.904C151.845 114.904 152.868 113.881 152.868 112.619C152.868 111.356 151.845 110.333 150.583 110.333C149.32 110.333 148.297 111.356 148.297 112.619C148.297 113.881 149.32 114.904 150.583 114.904Z" fill="white"/>
<path d="M23.0631 123.836C24.3254 123.836 25.3488 122.813 25.3488 121.55C25.3488 120.288 24.3254 119.265 23.0631 119.265C21.8007 119.265 20.7773 120.288 20.7773 121.55C20.7773 122.813 21.8007 123.836 23.0631 123.836Z" fill="white"/>
<path d="M79.231 6.98207C80.4934 6.98207 81.5167 5.95872 81.5167 4.69636C81.5167 3.43399 80.4934 2.41064 79.231 2.41064C77.9687 2.41064 76.9453 3.43399 76.9453 4.69636C76.9453 5.95872 77.9687 6.98207 79.231 6.98207Z" fill="white"/>
</g>
</g>
<defs>
<filter id="filter0_d_1428_113998" x="0" y="0" width="168" height="168" filterUnits="userSpaceOnUse" color-interpolation-filters="sRGB">
<feFlood flood-opacity="0" result="BackgroundImageFix"/>
<feColorMatrix in="SourceAlpha" type="matrix" values="0 0 0 0 0 0 0 0 0 0 0 0 0 0 0 0 0 0 127 0" result="hardAlpha"/>
<feOffset dy="4"/>
<feGaussianBlur stdDeviation="2"/>
<feComposite in2="hardAlpha" operator="out"/>
<feColorMatrix type="matrix" values="0 0 0 0 0 0 0 0 0 0 0 0 0 0 0 0 0 0 0.25 0"/>
<feBlend mode="normal" in2="BackgroundImageFix" result="effect1_dropShadow_1428_113998"/>
<feBlend mode="normal" in="SourceGraphic" in2="effect1_dropShadow_1428_113998" result="shape"/>
</filter>
<clipPath id="clip0_1428_113998">
<rect width="160" height="158.152" fill="white" transform="translate(4 1)"/>
</clipPath>
</defs>
</svg>
