<svg width="26" height="24" viewBox="0 0 26 24" fill="none" xmlns="http://www.w3.org/2000/svg">
<path fill-rule="evenodd" clip-rule="evenodd" d="M7.25 6.25V7.5V16.5V17.75H9V12V6.25H7.25ZM11 11V6C11 5.0335 10.2165 4.25 9.25 4.25H7C6.0335 4.25 5.25 5.0335 5.25 6V6.5H4C3.53587 6.5 3.09075 6.68437 2.76256 7.01256C2.43437 7.34075 2.25 7.78587 2.25 8.25V11H1.75C1.19772 11 0.75 11.4477 0.75 12C0.75 12.5523 1.19772 13 1.75 13H2.25V15.75C2.25 16.2141 2.43437 16.6592 2.76256 16.9874C3.09075 17.3156 3.53587 17.5 4 17.5H5.25V18C5.25 18.9665 6.0335 19.75 7 19.75H9.25C10.2165 19.75 11 18.9665 11 18V13H15V18C15 18.9665 15.7835 19.75 16.75 19.75H19C19.9665 19.75 20.75 18.9665 20.75 18V17.5H22C22.4641 17.5 22.9092 17.3156 23.2374 16.9874C23.5656 16.6592 23.75 16.2141 23.75 15.75V13H24.25C24.8023 13 25.25 12.5523 25.25 12C25.25 11.4477 24.8023 11 24.25 11H23.75V8.25C23.75 7.78587 23.5656 7.34075 23.2374 7.01256C22.9092 6.68437 22.4641 6.5 22 6.5H20.75V6C20.75 5.0335 19.9665 4.25 19 4.25H16.75C15.7835 4.25 15 5.0335 15 6V11H11ZM4.25 12V15.5H5.25V8.5H4.25V12ZM21.75 8.5V12V15.5H20.75V8.5H21.75ZM17 12V17.75H18.75V16.5V7.5V6.25H17V12Z" fill="#543287"/>
</svg>
