<svg width="24" height="24" viewBox="0 0 24 24" fill="none" xmlns="http://www.w3.org/2000/svg">
<path d="M19.6441 7.53748L16.4893 10.4998L19.4893 18.7498L17.2393 20.9998L12.7573 14.4392L10.4893 16.4998V18.7498L8.23926 20.9998L6.90872 17.076L2.98926 15.7498L5.23926 13.4998H7.48926L9.73926 11.2498L2.98926 6.7498L5.23926 4.4998L13.4893 7.4998L16.4621 4.3555L16.3983 4.40881C16.6071 4.1995 16.8552 4.03341 17.1283 3.92003C17.4013 3.80665 17.6941 3.74821 17.9898 3.74805C18.2855 3.74788 18.5783 3.806 18.8515 3.91908C19.1247 4.03216 19.3729 4.19798 19.582 4.40706C19.7911 4.61614 19.9569 4.86438 20.07 5.13758C20.183 5.41079 20.2412 5.7036 20.241 5.99928C20.2408 6.29497 20.1824 6.58772 20.069 6.8608C19.9556 7.13388 19.7896 7.38194 19.5802 7.59079L19.6441 7.53748Z" stroke="#543287" stroke-width="2" stroke-linecap="round" stroke-linejoin="round"/>
</svg>
