<svg width="596" height="453" viewBox="0 0 596 453" fill="none" xmlns="http://www.w3.org/2000/svg">
<path d="M526.943 87.9953L524.723 83.6551L524.7 83.5938L526.973 88.0305" fill="white"/>
<path d="M519.058 77.8718C519.663 78.4626 520.249 79.066 520.816 79.682C521.386 80.2974 521.936 80.9255 522.47 81.5712C523.004 82.217 523.526 82.8614 524.001 83.5348C524.475 84.2082 524.969 84.8862 525.418 85.5862C525.598 85.9496 525.774 86.3149 525.956 86.6834L526.485 87.7895C526.66 88.1548 526.832 88.5271 527.009 88.8975L527.523 90.0092C527.555 90.0961 527.589 90.1881 527.621 90.2751C527.653 90.362 527.687 90.4541 527.721 90.5461C527.755 90.6382 527.787 90.7251 527.819 90.812C527.851 90.899 527.885 90.991 527.919 91.0831C527.464 90.3849 526.986 89.6841 526.493 89.0233C525.999 88.3625 525.485 87.692 524.957 87.0444C524.428 86.3967 523.87 85.7655 523.299 85.1449C522.728 84.5244 522.143 83.9146 521.535 83.3193L522.1 84.5691C522.287 84.9823 522.476 85.4006 522.658 85.8157L523.207 87.0711C523.364 87.4955 523.568 87.9082 523.75 88.3232C524.36 88.9236 524.945 89.5334 525.518 90.1591C526.091 90.7847 526.643 91.4178 527.174 92.0706C527.705 92.7234 528.237 93.3812 528.721 94.063C529.204 94.7447 529.695 95.447 530.144 96.1298C530.317 96.6002 530.534 97.0487 530.728 97.5117C530.922 97.9746 531.114 98.4324 531.301 98.8922C531.487 99.3519 531.681 99.8149 531.863 100.276C532.044 100.738 532.231 101.198 532.418 101.658C531.962 100.954 531.485 100.259 530.986 99.5824C530.487 98.9063 529.971 98.2134 529.441 97.5779C528.91 96.9424 528.354 96.2818 527.781 95.6561C527.208 95.0305 526.619 94.4105 526.009 93.8101L526.554 95.1949C526.725 95.6603 526.897 96.1256 527.068 96.591C527.24 97.0563 527.411 97.5217 527.583 97.987C527.754 98.4524 527.925 98.9178 528.095 99.378C528.902 100.181 529.675 101.004 530.415 101.847C531.155 102.69 531.862 103.559 532.536 104.453C533.215 105.365 533.851 106.257 534.456 107.191C535.061 108.124 535.629 109.082 536.169 110.074C535.635 108.627 535.102 107.18 534.569 105.733C534.036 104.285 533.431 102.847 532.838 101.411C532.245 99.9737 531.639 98.5356 531.012 97.0998C530.384 95.6641 529.741 94.234 529.081 92.8044C528.693 91.9715 528.305 91.1387 527.914 90.3301C527.524 89.5214 527.12 88.677 526.717 87.867C526.314 87.057 525.902 86.2215 525.489 85.4152C525.075 84.609 524.657 83.7874 524.23 82.9747C523.705 82.0064 523.143 81.0805 522.545 80.1678C521.948 79.2551 521.305 78.3765 520.652 77.5016C519.999 76.6268 519.287 75.7968 518.559 74.9724C517.832 74.148 517.064 73.3559 516.262 72.582C516.495 73.0249 516.728 73.4677 516.955 73.9124L517.638 75.2465C517.863 75.6982 518.09 76.1429 518.313 76.5895C518.535 77.0361 518.755 77.4897 518.979 77.9414" fill="white"/>
<path d="M505.538 79.2573C506.479 81.1818 507.163 81.4939 508.024 81.892C508.683 82.1842 509.327 82.482 509.965 82.7938C510.602 83.1055 511.233 83.4141 511.852 83.7385C512.471 84.0629 513.086 84.377 513.694 84.7345C514.301 85.092 514.891 85.4155 515.473 85.7652C515.298 85.2896 515.095 84.8182 514.902 84.3431C514.71 83.868 514.514 83.3999 514.317 82.9267L513.726 81.5121C513.549 81.0314 513.326 80.5676 513.123 80.0962C512.53 79.7331 511.943 79.4147 511.342 79.0777C510.742 78.7406 510.13 78.4195 509.508 78.1021C508.886 77.7847 508.259 77.4692 507.618 77.1644C506.977 76.8596 506.335 76.5669 505.681 76.2729C504.716 75.8606 503.952 75.5371 505.121 78.3304C505.226 78.6168 505.405 78.9924 505.543 79.2726L505.538 79.2573ZM501.61 68.8493C502.643 70.7229 503.315 71.0336 504.176 71.4317C504.755 71.6953 505.324 71.9626 505.889 72.2369C506.455 72.5112 507.011 72.7892 507.556 73.071C508.101 73.3528 508.652 73.6499 509.183 73.9425C509.715 74.235 510.245 74.5397 510.765 74.8481L510.705 74.6844L510.643 74.5157L510.583 74.352L510.522 74.1883L509.955 72.9799C509.765 72.5737 509.577 72.1726 509.383 71.7734L508.801 70.5706C508.607 70.1713 508.413 69.7721 508.215 69.3748C507.697 69.0715 507.168 68.7719 506.636 68.4794C506.105 68.1869 505.558 67.8999 505.012 67.6181C504.467 67.3363 503.907 67.0602 503.343 66.791C502.779 66.5218 502.21 66.2545 501.633 65.9961C500.892 65.6874 500.825 65.6774 500.585 65.8001C500.414 66.3912 501.07 67.7763 501.651 68.8343L501.61 68.8493ZM502.462 78.9171C499.895 73.5253 500.55 71.9613 500.812 71.3949C497.263 66.729 494.103 60.0743 497.005 60.4318C497.336 60.5057 497.66 60.606 497.975 60.7319C498.949 61.1484 499.901 61.5731 500.831 62.006C501.761 62.4388 502.674 62.8991 503.57 63.387C504.464 63.8599 505.342 64.3506 506.191 64.8577C507.039 65.3648 507.88 65.8808 508.693 66.4182C509.106 67.2073 509.516 68.0033 509.925 68.7994C510.334 69.5955 510.728 70.3972 511.13 71.2021C511.531 72.007 511.916 72.8176 512.307 73.6263C512.698 74.4349 513.081 75.2525 513.456 76.0668C514.107 77.4709 514.746 78.8737 515.362 80.2789C515.979 81.684 516.585 83.0929 517.17 84.5094C517.756 85.9258 518.33 87.3409 518.886 88.7564C519.442 90.172 519.985 91.5984 520.511 93.0252C519.663 92.4423 518.789 91.8808 517.897 91.3371C517.006 90.7933 516.089 90.259 515.152 89.7494C514.215 89.2398 513.263 88.7358 512.281 88.2603C511.298 87.7848 510.302 87.3201 509.283 86.8699C507.84 86.1049 505.211 84.6602 502.459 78.9241" fill="white"/>
<path d="M489.842 72.8854C490.155 73.6068 490.455 74.3269 490.757 75.0522C491.059 75.7774 491.352 76.4942 491.649 77.2213C491.946 77.9484 492.229 78.6691 492.514 79.3948C492.799 80.1205 493.053 80.8575 493.358 81.5758L494.368 81.8264L495.368 82.0807L496.359 82.344L497.33 82.6147C497.061 81.8834 496.791 81.152 496.484 80.4286C496.177 79.7053 495.914 78.9772 495.617 78.2501C495.32 77.523 495.03 76.7991 494.728 76.0739C494.426 75.3487 494.126 74.6286 493.819 73.9052C493.92 69.4499 494.059 63.5231 493.822 59.0813L492.734 58.6969L491.635 58.3162L490.52 57.9533L489.392 57.6011L489.347 67.7257L477.505 54.7057L476.255 54.4674L474.97 54.2423L473.68 54.0363L472.375 53.8359C477.681 59.4888 485.757 66.2909 489.844 72.8733" fill="white"/>
<path d="M446.418 62.0934C448.171 65.1953 450.255 65.1913 451.776 65.1904C452.525 65.1886 453.268 65.1886 454.008 65.1957C454.749 65.2028 455.487 65.2047 456.219 65.2206L458.404 65.2722C459.131 65.29 459.856 65.3199 460.57 65.3485C460.424 65.015 460.277 64.697 460.131 64.3946L459.693 63.4408C459.541 63.1247 459.395 62.8067 459.244 62.4907C459.093 62.1746 458.946 61.8566 458.795 61.5405L458.326 60.5514C458.166 60.227 458.011 59.9007 457.847 59.566C457.683 59.2314 457.531 58.9153 457.368 58.5806L456.883 57.5971C456.17 57.5686 455.446 57.5438 454.721 57.5311L452.533 57.4865L450.325 57.5477C449.585 57.5406 448.843 57.5457 448.089 57.5494C446.615 57.5678 443.863 57.6022 446.398 62.101L446.418 62.0934ZM441.372 62.6502C440.469 61.0018 436.329 52.7608 443.921 52.2275C445.214 52.2059 446.499 52.1931 447.767 52.1981C449.035 52.2031 450.298 52.21 451.544 52.2346C452.791 52.2592 454.028 52.2927 455.255 52.342C456.481 52.3914 457.739 52.4466 458.924 52.511C459.325 53.2695 459.722 54.0298 460.115 54.7971C460.508 55.5645 460.896 56.3337 461.286 57.108C461.676 57.8823 462.055 58.6604 462.435 59.4385C462.814 60.2166 463.191 61.0017 463.569 61.7918C464.204 63.138 464.837 64.4911 465.453 65.8498C466.07 67.2086 466.675 68.566 467.266 69.9342C467.857 71.3023 468.436 72.6691 469.005 74.0396C469.574 75.4102 470.128 76.7863 470.678 78.1695L469.485 78.0847L468.296 78.0101L467.109 77.9406L465.922 77.8711C465.705 77.2829 465.457 76.706 465.22 76.1254C464.983 75.5447 464.746 74.964 464.509 74.3833C464.271 73.8026 464.029 73.2238 463.782 72.6469C463.534 72.07 463.292 71.4912 463.045 70.9143L460.542 70.8223C459.705 70.8003 458.862 70.7808 458.011 70.7639C457.157 70.7464 456.306 70.7392 455.445 70.7358C454.585 70.7324 453.703 70.7365 452.849 70.7363C446.403 70.4714 442.708 64.9819 441.413 62.6351" fill="white"/>
<path d="M436.432 67.8187L427.241 57.9758L427.798 68.6004L429.987 68.3778L432.156 68.1626L434.314 67.9806L436.46 67.8144L436.432 67.8187ZM427.908 79.3833L426.355 79.5644L424.787 79.7563L423.212 79.9571L421.635 80.17C421.613 72.2288 421.503 61.6373 421.127 53.6809C421.751 53.6087 422.372 53.5435 422.995 53.4834L424.843 53.2986L426.686 53.1277L428.511 52.9746C435.392 60.2511 444.43 70.0866 450.918 77.7163L449.493 77.7573L448.054 77.8092L446.612 77.868L445.161 77.9358L440.629 72.5728C439.596 72.6383 438.554 72.7093 437.501 72.7857C436.45 72.8639 435.4 72.9471 434.337 73.0411C433.274 73.1352 432.214 73.2394 431.139 73.332C430.064 73.4247 428.986 73.5415 427.901 73.6724L427.908 79.3833Z" fill="white"/>
<path d="M389.83 78.8736C392.677 83.5719 397.57 83.8783 401.516 83.6149C405.296 83.3893 417.722 82.1453 419.272 76.9253C419.862 74.9319 418.995 72.7824 418.422 71.355L416.986 71.5567L415.542 71.7673L414.087 71.9645L412.634 72.184C413.347 74.2451 413.269 75.3421 409.509 76.6291C409.412 76.6648 399.219 79.5862 396.435 77.739C391.929 74.7473 398.381 73.1518 403.093 71.9863C412.18 69.7376 416.147 68.0031 413.193 61.8926C409.734 54.713 400.398 56.3158 395.912 57.085C383.809 59.6156 384.013 64.2037 385.836 68.3312L387.381 67.9848L388.92 67.6524L390.454 67.3218L391.986 67.0034C389.735 60.6581 405.835 61.55 406.018 61.6221C406.072 61.6428 410.098 64.0388 406.053 65.674C400.993 67.7051 395.047 67.239 390.521 70.909C389.321 71.8777 386.83 73.9006 389.817 78.8378" fill="white"/>
<path d="M356.171 87.816C358.611 91.6182 362.788 92.6581 370.136 91.2857C381.501 89.1651 387.529 85.9894 388.057 81.8584C388.282 80.1035 387.692 78.6766 387.076 77.1607L385.512 77.5198L383.952 77.889L382.381 78.2621L380.782 78.6515C381.5 80.7107 381.38 81.8521 377.307 83.5675C377.2 83.6069 366.172 87.6534 363.244 86.0278C358.507 83.3876 365.457 81.0928 370.527 79.4182C379.538 76.4425 384.788 74.1849 381.736 67.9186C378.309 60.8085 368.226 63.3992 363.357 64.6574C350.297 68.4685 350.381 73.2052 352.188 77.3384L352.429 77.2502L352.664 77.1638L352.905 77.0755L353.145 76.9873L354.557 76.5621L355.97 76.1421L357.374 75.7258L358.779 75.3147C358.049 73.2075 358.449 72.2887 362.372 70.6399C362.469 70.6042 372.162 67.0185 374.699 68.6369C378.608 71.1278 373.787 72.7519 368.195 74.6352C359.529 77.554 351.347 80.3065 356.137 87.7705" fill="white"/>
<path d="M350.144 97.1082L351.79 96.5796L353.437 96.0509L355.086 95.5325L356.733 95.0211C356.125 93.6961 355.512 92.3885 354.893 91.0983C354.275 89.7983 353.654 88.4932 353.026 87.197C352.397 85.9008 351.762 84.6013 351.118 83.3107C350.474 82.0201 349.835 80.7276 349.188 79.444C348.806 78.6902 348.425 77.9415 348.047 77.198C347.662 76.4512 347.283 75.7076 346.901 74.971C346.52 74.2345 346.137 73.51 345.751 72.7632C345.366 72.0164 344.981 71.304 344.596 70.5744L342.936 71.0966L341.28 71.629L339.625 72.1664L337.968 72.7109C338.356 73.4335 338.743 74.1682 339.126 74.8927C339.509 75.6172 339.89 76.3537 340.276 77.1006C340.661 77.8474 341.036 78.5635 341.42 79.3224C341.804 80.0813 342.174 80.7872 342.564 81.5615C343.218 82.8483 343.86 84.1338 344.504 85.4244C345.148 86.715 345.782 88.0093 346.415 89.3037C347.049 90.598 347.672 91.8961 348.296 93.1943C348.919 94.4924 349.534 95.7993 350.144 97.1082Z" fill="white"/>
<path d="M316.892 95.5493C320.192 101.051 325.139 99.927 329.516 98.4369C334.412 96.5244 336.165 94.8822 336.491 91.9347C336.677 90.1241 334.821 84.882 331.162 83.2748C327 81.4397 312.067 84.5503 315.975 93.7545C316.246 94.3696 316.553 94.9688 316.892 95.5493ZM310.687 98.6682C302.116 84.6131 316.215 79.8691 321.519 78.0736C342.38 72.3989 345.124 91.5426 342.709 96.1682C339.355 102.625 319.062 112.395 310.665 98.6706" fill="white"/>
<path d="M281.633 124.475L283.788 123.463L285.939 122.459L288.097 121.458L290.261 120.473C292.54 112.784 295.588 102.531 297.919 94.8577C298.042 95.0971 298.169 95.3467 298.292 95.5689L298.659 96.282C298.787 96.5195 298.914 96.7691 299.033 96.9983C299.153 97.2274 299.288 97.4854 299.408 97.7146C300.065 98.9832 300.727 100.256 301.395 101.532C302.063 102.809 302.716 104.087 303.354 105.366C304.004 106.643 304.657 107.925 305.302 109.204C305.948 110.483 306.592 111.774 307.234 113.059L308.842 112.394L310.455 111.727L312.07 111.064L313.687 110.407C313.05 109.119 312.413 107.832 311.765 106.548C311.118 105.264 310.481 103.976 309.828 102.694C309.176 101.412 308.53 100.133 307.88 98.8565C307.229 97.5795 306.567 96.3013 305.89 95.0337C305.507 94.2918 305.13 93.5704 304.736 92.8151C304.341 92.0597 303.971 91.3537 303.58 90.6086C303.189 89.8635 302.815 89.1472 302.43 88.4174C302.045 87.6876 301.655 86.9598 301.274 86.2402L299.069 87.1478L296.865 88.0553L294.667 88.9782L292.47 89.9063C290.161 97.5769 287.091 107.803 284.859 115.492L283.656 113.175C283.256 112.404 282.854 111.628 282.449 110.86C282.044 110.091 281.649 109.318 281.243 108.549C280.838 107.781 280.438 107.01 280.033 106.241C279.627 105.472 279.263 104.782 278.865 104.033C278.467 103.285 278.095 102.574 277.706 101.834C277.317 101.094 276.931 100.376 276.545 99.6463C276.16 98.9165 275.77 98.1886 275.388 97.4812L273.789 98.2188L272.199 98.9648L270.604 99.7127L269.011 100.466C269.397 101.183 269.786 101.923 270.169 102.631C270.551 103.338 270.944 104.088 271.327 104.813C271.71 105.538 272.102 106.271 272.491 107.011C272.88 107.751 273.267 108.468 273.661 109.224C274.328 110.489 274.99 111.758 275.645 113.031L277.631 116.844C278.291 118.117 278.957 119.388 279.618 120.661C280.279 121.934 280.942 123.213 281.608 124.484" fill="white"/>
<path d="M218.73 158.82C220.672 157.616 222.625 156.415 224.589 155.218C226.552 154.022 228.518 152.842 230.487 151.678C232.471 150.505 234.46 149.341 236.456 148.187C238.451 147.033 240.457 145.888 242.474 144.753C241.783 143.491 241.097 142.228 240.407 140.971L238.35 137.185L236.293 133.399C235.608 132.141 234.927 130.875 234.248 129.615C233.849 128.879 233.457 128.163 233.059 127.415C232.662 126.666 232.274 125.961 231.875 125.225L230.706 123.046L229.542 120.878L228.023 121.738L226.504 122.597L224.987 123.461L223.475 124.324L224.64 126.492C225.028 127.215 225.42 127.948 225.813 128.669C226.207 129.389 226.599 130.122 226.998 130.858C227.397 131.595 227.783 132.312 228.188 133.064L229.54 135.552C229.991 136.38 230.443 137.213 230.898 138.038C231.353 138.864 231.8 139.699 232.258 140.53C232.715 141.361 233.165 142.189 233.615 143.016C232.117 143.885 230.614 144.756 229.125 145.634C227.636 146.511 226.144 147.395 224.659 148.283C223.173 149.171 221.697 150.066 220.228 150.966C218.758 151.865 217.286 152.771 215.825 153.679C216.064 154.108 216.304 154.536 216.548 154.964L217.266 156.25C217.513 156.683 217.752 157.112 217.997 157.539C218.241 157.966 218.475 158.396 218.72 158.824" fill="white"/>
<path d="M210.682 163.914L212.12 162.991L213.564 162.072L215.008 161.153L216.454 160.239C215.748 158.984 215.036 157.729 214.331 156.479C213.626 155.228 212.923 153.965 212.221 152.707C211.52 151.449 210.82 150.196 210.124 148.937C209.427 147.677 208.731 146.417 208.042 145.161C207.638 144.426 207.241 143.713 206.836 142.961C206.432 142.21 206.041 141.511 205.64 140.77C205.239 140.029 204.855 139.317 204.46 138.591C204.064 137.865 203.674 137.137 203.288 136.42L201.827 137.339L200.37 138.257L198.914 139.175L197.461 140.103C197.849 140.825 198.241 141.558 198.633 142.274C199.024 142.989 199.418 143.727 199.82 144.456C200.222 145.185 200.611 145.908 201.016 146.647C201.422 147.387 201.812 148.097 202.222 148.847C202.919 150.108 203.616 151.365 204.314 152.619C205.011 153.878 205.717 155.134 206.419 156.392C207.12 157.65 207.832 158.904 208.544 160.158C209.256 161.412 209.965 162.661 210.682 163.914Z" fill="white"/>
<path d="M190.279 177.679L192.161 176.355L194.053 175.04L195.951 173.728L197.866 172.445C197.201 163.043 196.393 150.507 195.948 141.1L194.327 142.142L192.711 143.194L191.101 144.249L189.497 145.302C190.035 152.88 190.742 162.98 191.432 170.543C185.594 166.588 177.806 161.311 171.995 157.317L170.454 158.416L168.92 159.519L167.399 160.623L165.879 161.733C173.175 166.558 182.934 172.959 190.287 177.699" fill="white"/>
<path d="M145.789 184.198C147.091 183.128 148.405 182.065 149.732 181.009C151.058 179.954 152.391 178.894 153.73 177.829C155.07 176.769 156.423 175.713 157.79 174.661C159.146 173.612 160.506 172.573 161.891 171.525C162.076 171.852 162.255 172.181 162.432 172.488C162.609 172.794 162.794 173.139 162.972 173.451C163.151 173.762 163.336 174.107 163.523 174.439L164.068 175.4L164.2 175.631L164.331 175.861L164.463 176.092L164.589 176.324C163.219 177.368 161.862 178.412 160.515 179.456C159.159 180.505 157.807 181.565 156.455 182.624C155.102 183.684 153.792 184.763 152.471 185.828C151.15 186.893 149.839 187.955 148.529 189.017C148.745 189.384 148.957 189.754 149.171 190.128C149.384 190.503 149.601 190.87 149.813 191.24C150.024 191.609 150.243 191.982 150.46 192.349L151.112 193.457C152.412 192.399 153.723 191.338 155.044 190.272C156.365 189.207 157.686 188.142 159.017 187.072C160.349 186.003 161.694 184.958 163.05 183.909C164.406 182.859 165.762 181.81 167.122 180.771C167.352 181.175 167.587 181.576 167.822 181.978C168.057 182.379 168.287 182.782 168.522 183.184C168.757 183.585 168.994 183.992 169.234 184.392L169.94 185.596C168.58 186.635 167.224 187.684 165.868 188.734C164.512 189.783 163.161 190.847 161.847 191.899C160.532 192.95 159.2 194.031 157.884 195.095C156.568 196.158 155.262 197.218 153.971 198.302C154.213 198.706 154.461 199.109 154.703 199.514L155.442 200.717C155.684 201.122 155.932 201.525 156.179 201.928C156.426 202.331 156.678 202.732 156.923 203.129C158.63 201.729 160.352 200.323 162.09 198.911C163.827 197.499 165.58 196.101 167.347 194.717C169.111 193.327 170.894 191.943 172.694 190.566C174.495 189.189 176.313 187.817 178.149 186.451C177.401 185.21 176.651 183.964 175.924 182.715C175.197 181.466 174.425 180.223 173.723 178.965C173.021 177.706 172.275 176.453 171.556 175.196C170.837 173.938 170.125 172.684 169.411 171.425L168.18 169.217C167.77 168.485 167.374 167.771 166.962 167.016C166.55 166.261 166.161 165.568 165.76 164.827C165.36 164.085 164.97 163.375 164.573 162.644C162.728 164.006 160.895 165.375 159.075 166.752C157.255 168.128 155.452 169.508 153.665 170.891C151.876 172.279 150.104 173.675 148.348 175.078C146.591 176.481 144.851 177.894 143.125 179.317L143.782 180.533C144.007 180.938 144.227 181.345 144.452 181.751C144.676 182.156 144.896 182.563 145.123 182.973C145.35 183.384 145.573 183.784 145.804 184.192" fill="white"/>
<path d="M121.469 225.566C122.726 226.991 123.588 226.147 124.682 225.078C125.533 224.235 126.376 223.401 127.21 222.576C128.045 221.751 128.901 220.922 129.779 220.089C130.636 219.264 131.505 218.436 132.384 217.606C133.263 216.776 134.143 215.954 135.024 215.139L134.269 213.878C134.016 213.459 133.756 213.038 133.503 212.62L132.743 211.36L131.983 210.1L129.33 212.566C128.451 213.396 127.58 214.222 126.718 215.046C125.856 215.869 125 216.698 124.149 217.533C123.294 218.364 122.44 219.2 121.586 220.035C120.607 221.034 118.959 222.695 121.479 225.562L121.469 225.566ZM116.676 214.718C117.867 216.151 118.741 215.308 119.841 214.242L119.877 214.229C120.633 213.487 121.395 212.747 122.161 212.009L124.476 209.795C125.25 209.058 126.03 208.323 126.817 207.589L129.189 205.389L129.105 205.24L129.049 205.086L128.967 204.942L128.877 204.795L128.244 203.692C128.035 203.327 127.823 202.958 127.618 202.592C127.414 202.225 127.197 201.858 126.992 201.492C126.788 201.125 126.578 200.761 126.373 200.395C125.581 201.123 124.789 201.855 123.999 202.59C123.206 203.322 122.425 204.056 121.646 204.795L119.329 207.004L117.038 209.22C115.967 210.287 114.356 211.889 116.708 214.724L116.676 214.718ZM117.855 230.811C116.719 229.484 115.916 227.905 115.512 226.206C115.109 224.507 115.116 222.737 115.533 221.043C113.047 220.144 106.088 214.168 112.937 206.318C114.186 205.086 115.446 203.849 116.716 202.609C117.986 201.369 119.28 200.149 120.596 198.95C121.901 197.731 123.219 196.516 124.55 195.304C125.881 194.092 127.223 192.885 128.577 191.684C128.976 192.42 129.373 193.134 129.785 193.888C130.196 194.643 130.597 195.367 131.013 196.103C131.429 196.838 131.84 197.576 132.258 198.317C132.677 199.057 133.098 199.791 133.523 200.535C134.256 201.799 134.989 203.063 135.732 204.323C136.475 205.583 137.239 206.836 137.987 208.095C138.735 209.353 139.49 210.597 140.272 211.837C141.055 213.077 141.821 214.323 142.602 215.558C141.215 216.818 139.84 218.077 138.476 219.337C137.112 220.596 135.765 221.864 134.435 223.142C133.1 224.406 131.783 225.681 130.483 226.967C129.176 228.242 127.889 229.527 126.613 230.808C124.851 232.332 121.529 235.171 117.848 230.808" fill="white"/>
<path d="M104.406 241.647C104.816 242.303 105.232 242.958 105.645 243.607C106.059 244.257 106.48 244.91 106.898 245.557C107.317 246.205 107.741 246.851 108.19 247.487C108.64 248.123 109.038 248.779 109.482 249.417L110.433 248.307L111.385 247.203L112.347 246.095C112.671 245.727 112.994 245.359 113.324 244.994C112.895 244.35 112.471 243.704 112.034 243.069C111.597 242.434 111.191 241.776 110.778 241.126C110.364 240.476 109.946 239.829 109.532 239.179C109.118 238.53 108.708 237.873 108.3 237.222C108.103 229.467 107.778 219.129 107.861 211.376L106.599 212.681L105.339 213.991L104.081 215.306L102.825 216.626L103.171 234.244L91.1539 229.752L90.0432 231.089C89.6775 231.531 89.3067 231.975 88.9479 232.42L87.8596 233.754C87.5009 234.199 87.1421 234.644 86.7904 235.093C92.0675 237.087 100.016 238.119 104.427 241.639" fill="white"/>
<path d="M72.724 273.793C74.6786 276.56 75.7235 274.777 76.4863 273.458L77.1168 272.379L77.7556 271.291L78.4117 270.202C78.6314 269.837 78.8474 269.462 79.078 269.11L79.6379 268.202L80.2029 267.292L80.775 266.385L81.3591 265.48L80.7958 264.566C80.6087 264.263 80.4216 263.96 80.2415 263.661C80.0613 263.361 79.8723 263.053 79.6852 262.75L79.1392 261.835C78.9483 261.522 78.7644 261.212 78.5729 260.882L78.0118 259.927C77.826 259.612 77.6402 259.297 77.4558 258.969C77.2714 258.642 77.0894 258.337 76.9049 258.01L76.3208 258.916C76.1231 259.215 75.958 259.507 75.7417 259.819L75.2017 260.813L74.6399 261.716L73.9685 262.81L73.3106 263.893L72.6647 264.978C72.4482 265.336 72.2443 265.713 72.0323 266.052C71.3181 267.266 69.9047 269.736 72.7316 273.814L72.724 273.793ZM70.6445 278.522C70.0118 277.593 64.5556 269.248 68.3033 261.921L69.1073 260.541C69.3742 260.083 69.6513 259.621 69.9284 259.159L70.7701 257.771L71.6373 256.372L72.9147 254.353C73.3479 253.68 73.7852 253.006 74.2265 252.333C74.6679 251.66 75.1173 250.988 75.5748 250.317L76.9523 248.302C77.3691 249.055 77.7878 249.813 78.2083 250.576C78.6321 251.332 79.061 252.086 79.4918 252.846C79.9226 253.605 80.3618 254.355 80.8028 255.111C81.2438 255.867 81.69 256.62 82.1431 257.377C82.9097 258.669 83.6762 259.962 84.4869 261.232C85.2977 262.502 86.0809 263.776 86.8897 265.042C87.6986 266.307 88.526 267.559 89.344 268.786C90.162 270.013 91.0174 271.278 91.875 272.502L91.1268 273.625L90.3824 274.757C90.137 275.132 89.8955 275.516 89.638 275.89C89.3805 276.263 89.1562 276.647 88.8955 277.027C88.5341 276.504 88.1728 275.98 87.8166 275.455C87.4604 274.929 87.099 274.406 86.7479 273.879C86.3968 273.351 86.0387 272.821 85.6857 272.288C85.3327 271.756 84.9867 271.227 84.6389 270.693L84.0617 271.601L83.4915 272.513L82.9796 273.409L82.4248 274.315L81.5734 275.725L80.7477 277.125L79.9373 278.52L79.1492 279.913C75.8967 285.083 72.1286 280.642 70.6574 278.494" fill="white"/>
<path d="M70.7321 288.911L63.1493 282.202L67.9718 295.527C68.1773 294.981 68.3879 294.434 68.6087 293.883C68.8295 293.331 69.0504 292.78 69.2814 292.225C69.5125 291.67 69.7454 291.12 69.9867 290.561C70.228 290.002 70.4763 289.447 70.7227 288.886L70.7321 288.911ZM73.4109 308.493L73.0374 309.623L72.6792 310.747C72.5666 311.119 72.4489 311.493 72.3414 311.864L71.9972 312.994C67.9302 303.264 62.7273 290.183 59.296 280.208C59.4799 279.745 59.6638 279.283 59.8655 278.837L60.4607 277.458L61.0763 276.071C61.2858 275.599 61.4953 275.127 61.7226 274.672C67.4098 279.61 75.1432 286.004 81.1947 290.512L80.5802 291.713L79.981 292.908L79.394 294.105C79.2028 294.5 79.0116 294.895 78.8274 295.294L74.5067 292.032C74.1245 292.865 73.753 293.69 73.3921 294.508C73.035 295.335 72.6914 296.152 72.3529 296.967C72.0144 297.783 71.6963 298.59 71.3853 299.401C71.0742 300.212 70.7748 301.007 70.4842 301.81L73.4109 308.493Z" fill="white"/>
<path d="M64.5085 325.281C68.5753 330.755 69.4215 327.582 70.2612 321.712C71.4109 313.894 69.9003 309.699 66.4592 304.268C66.3558 304.602 66.2537 304.924 66.1662 305.27C66.0787 305.616 65.9709 305.922 65.8885 306.266C65.8061 306.61 65.7035 306.914 65.6211 307.258C65.5387 307.602 65.4412 307.905 65.369 308.245C69.0074 314.306 65.9858 321.772 65.3124 321.804C64.3015 321.85 62.0745 320.897 63.1996 311.073C63.8637 305.325 64.0092 300.755 59.8203 294.35C57.1749 290.322 55.2275 291.2 53.9934 296.976C53.0239 302.888 54.1613 307.945 57.916 314.417C57.9324 314.115 57.9577 313.821 57.9774 313.512C57.9971 313.203 58.0243 312.914 58.0472 312.598L58.1292 311.685C58.1609 311.378 58.1965 311.08 58.2296 310.76C54.6968 304.324 57.8898 298.426 58.4442 298.449C60.1659 298.52 60.6998 301.592 60.0329 307.585C59.5305 312.1 58.9073 317.722 64.5085 325.281Z" fill="white"/>
<path d="M66.6652 343.052C69.3159 346.764 69.8137 346.413 69.9564 345.682C69.9728 345.6 71.0792 336.562 63.0759 324.231C63.0623 324.53 63.056 324.828 63.0573 325.126L63.0559 326.02C63.0524 326.316 63.0564 326.61 63.0679 326.904C63.0719 327.199 63.0773 327.481 63.0902 327.784C65.3276 331.476 66.4597 335.731 66.3524 340.044C65.7547 339.903 63.6847 338.776 62.2065 330.082C61.2914 324.682 60.6354 320.79 56.4459 314.13C55.4788 312.592 52.3921 308.17 53.1285 315.638C53.6117 319.077 54.7882 323.737 59.7854 332.132L59.5763 331.344C59.4821 331.088 59.434 330.815 59.3653 330.55C59.2967 330.285 59.2332 330.018 59.1697 329.751C59.1062 329.484 59.0478 329.215 58.9875 328.942C55.0454 322.197 56.1115 317.841 56.1258 317.8C57.9854 318.372 58.8068 323.313 59.0799 324.937C59.8761 329.73 60.7032 334.686 66.6652 343.052Z" fill="white"/>
<path d="M72.6927 353.576C72.5985 353.321 72.4941 353.069 72.3794 352.82C72.2852 352.565 72.191 352.309 72.0949 352.048C71.9988 351.787 71.9065 351.537 71.8105 351.276L71.526 350.504C70.5987 349.248 69.6798 347.983 68.7795 346.705C67.8792 345.427 66.9783 344.133 66.0979 342.83C65.2175 341.528 64.3467 340.204 63.4811 338.879C62.6155 337.554 61.775 336.202 60.9446 334.847C60.4561 334.056 59.9708 333.259 59.4912 332.477C59.0116 331.696 58.5449 330.886 58.0838 330.091C57.6228 329.297 57.156 328.487 56.7071 327.694C56.2582 326.901 55.7998 326.082 55.3611 325.285L55.638 326.037C55.7303 326.287 55.8264 326.548 55.9168 326.794C56.0073 327.039 56.1052 327.305 56.1938 327.546C56.2823 327.786 56.3822 328.057 56.4963 328.288C56.9406 329.1 57.3901 329.91 57.8423 330.697C58.2945 331.483 58.7566 332.312 59.219 333.094C59.6814 333.876 60.157 334.694 60.6264 335.48C61.0958 336.266 61.5918 337.076 62.0798 337.849C62.9219 339.232 63.7699 340.583 64.6239 341.902C65.4778 343.222 66.3513 344.543 67.2444 345.864C68.1285 347.176 69.0224 348.468 69.9298 349.749C70.8371 351.03 71.7528 352.302 72.6851 353.556" fill="white"/>
<path d="M73.548 356.67C72.0331 354.434 65.1024 343.706 62.7933 339.944L65.1848 343.914L73.7948 357.009L73.5386 356.645L73.548 356.67ZM77.8633 362.663C77.9715 362.815 78.1209 363.015 78.2361 363.17C74.3017 357.392 68.8543 349.824 65.1754 343.889L59.0792 333.488L59.0679 333.457C65.6099 343.004 71.1252 353.246 77.8676 362.69" fill="white"/>
<path d="M251.32 124.625C251.899 125.497 252.723 126.181 253.688 126.589C254.653 126.997 255.717 127.112 256.747 126.92C257.776 126.728 258.726 126.237 259.478 125.509C260.23 124.781 260.75 123.847 260.973 122.824C261.833 118.851 257.748 115.002 253.249 117.042C252.594 117.384 252.019 117.86 251.561 118.438C251.103 119.017 250.773 119.686 250.591 120.401C250.409 121.117 250.38 121.863 250.505 122.59C250.631 123.318 250.909 124.011 251.32 124.625Z" fill="white"/>
<path d="M542.024 134.318C542.012 135.593 541.957 136.896 541.868 138.218C541.779 139.539 541.641 140.884 541.464 142.249C541.287 143.615 541.073 145.005 540.815 146.418C540.556 147.83 540.249 149.267 539.905 150.716C539.363 149.244 538.82 147.771 538.216 146.304C537.612 144.836 537.04 143.363 536.427 141.887C535.814 140.411 535.178 138.938 534.525 137.465C533.873 135.993 533.203 134.52 532.519 133.042C532.116 132.185 531.712 131.324 531.297 130.466C530.882 129.608 530.469 128.755 530.046 127.906C529.623 127.057 529.198 126.203 528.765 125.358C528.332 124.513 527.897 123.663 527.458 122.819L527.72 121.748C527.809 121.39 527.888 121.036 527.972 120.68C528.056 120.324 528.127 119.979 528.205 119.625C528.284 119.271 528.349 118.928 528.405 118.588C528.846 119.425 529.279 120.27 529.713 121.115C530.146 121.96 530.567 122.804 530.985 123.655C531.403 124.506 531.821 125.357 532.234 126.209C532.647 127.062 533.044 127.92 533.447 128.777C533.905 129.769 534.34 130.713 534.773 131.685C535.207 132.658 535.637 133.621 536.057 134.587C536.477 135.553 536.886 136.523 537.291 137.495C537.695 138.467 538.09 139.43 538.481 140.396C538.677 139.341 538.85 138.296 539 137.262C539.15 136.228 539.278 135.213 539.384 134.219C539.484 133.212 539.566 132.219 539.615 131.231C539.664 130.244 539.707 129.288 539.708 128.329C539.897 128.841 540.085 129.352 540.304 129.852C540.523 130.352 540.681 130.875 540.869 131.386C541.057 131.898 541.246 132.409 541.423 132.89C541.6 133.37 541.799 133.912 541.976 134.393" fill="white"/>
<path d="M541.836 129.128C541.859 129.428 541.884 129.732 541.904 130.038C541.924 130.344 541.94 130.658 541.955 130.966C541.969 131.274 541.984 131.582 541.99 131.899C541.997 132.216 542.011 132.524 542.016 132.836C541.479 131.378 540.939 129.911 540.361 128.451C539.782 126.992 539.202 125.527 538.602 124.07C538.001 122.613 537.375 121.148 536.738 119.686C536.101 118.225 535.436 116.768 534.762 115.315C534.366 114.462 533.968 113.616 533.562 112.766C533.156 111.917 532.749 111.079 532.335 110.239C531.92 109.398 531.501 108.56 531.077 107.723C530.652 106.886 530.22 106.058 529.785 105.225L529.776 104.3C529.768 103.995 529.76 103.69 529.747 103.387C529.735 103.084 529.722 102.781 529.704 102.48C529.686 102.179 529.675 101.881 529.652 101.582C530.085 102.41 530.512 103.24 530.935 104.071C531.357 104.903 531.777 105.742 532.189 106.577C532.601 107.413 533.01 108.255 533.414 109.099C533.818 109.944 534.217 110.79 534.611 111.638C535.285 113.091 535.937 114.547 536.578 116.001C537.218 117.455 537.835 118.912 538.436 120.369C539.036 121.826 539.622 123.289 540.188 124.747C540.754 126.205 541.303 127.664 541.836 129.128Z" fill="white"/>
<path d="M526.944 87.9923C530.801 96.555 535.929 107.989 539.281 116.76C539.413 117.118 539.545 117.476 539.648 117.85C539.751 118.224 539.878 118.584 539.984 118.951C540.09 119.319 540.2 119.696 540.298 120.073C540.396 120.449 540.494 120.825 540.588 121.208C537.561 114.895 533.258 106.589 529.579 100.637C529.55 100.306 529.515 99.9758 529.481 99.6459C529.447 99.3161 529.409 98.9932 529.365 98.667C529.32 98.3409 529.279 98.025 529.23 97.7008C529.18 97.3765 529.134 97.0625 529.081 96.7452C531.869 101.776 535.651 108.462 538.005 113.705C534.585 105.585 530.077 94.7311 526.218 86.8079C526.118 86.5369 525.985 86.272 525.865 86.0085C525.745 85.745 525.628 85.4745 525.502 85.2129C525.377 84.9513 525.252 84.6896 525.121 84.4299C524.99 84.1702 524.86 83.9104 524.729 83.6507L526.949 87.9904" fill="white"/>
<path d="M72.0059 353.856C73.742 356.551 74.2736 357.395 74.6089 357.974C74.2833 357.709 74.0129 357.382 73.8132 357.013L65.203 343.92L62.8116 339.951C67.2463 346.392 67.2463 346.392 72.0301 353.859L72.0059 353.856ZM74.6945 356.944C69.0962 348.243 69.0962 348.243 60.0019 334.893C59.5225 334.175 59.4391 334.043 59.1255 333.555L65.1769 343.912C69.057 349.715 74.0874 357.568 78.238 363.19L78.3171 363.294C78.5286 363.6 78.7727 363.882 79.0453 364.136C78.9483 363.62 78.2682 362.546 74.6493 356.932" fill="white"/>
<path d="M98.2942 379.295C97.8895 379.096 97.488 378.889 97.0986 378.684L95.9452 378.045C95.5567 377.831 95.1757 377.617 94.8021 377.402C94.421 377.188 94.0586 376.961 93.6757 376.742C87.3554 369.473 78.9875 359.704 73.1349 352.049C73.2897 352.311 73.4496 352.572 73.6043 352.834C73.7591 353.097 73.919 353.357 74.0737 353.62C74.2285 353.882 74.3935 354.141 74.5482 354.403L75.0279 355.185C75.8815 356.567 76.7445 357.937 77.6169 359.296C78.4894 360.655 79.3717 361.999 80.2639 363.328C81.1589 364.654 82.0674 365.969 82.9855 367.263C83.9037 368.557 84.8321 369.848 85.7703 371.117L85.1055 370.542C84.889 370.349 84.6655 370.153 84.4542 369.957C84.2428 369.762 84.0151 369.538 83.8131 369.368C83.6112 369.199 83.3842 368.945 83.1855 368.769C82.2457 367.5 81.3187 366.219 80.4046 364.925C79.4904 363.632 78.5839 362.322 77.6848 360.995C76.7898 359.67 75.9083 358.333 75.0416 356.974C74.1749 355.614 73.3082 354.255 72.4614 352.871C71.9673 352.065 71.4731 351.26 70.9873 350.446C70.5015 349.631 70.0227 348.82 69.5471 348.002C69.0715 347.184 68.6011 346.364 68.1409 345.541C67.6806 344.717 67.2153 343.895 66.7634 343.062C67.0356 343.328 67.3181 343.59 67.6005 343.852L68.4664 344.626C68.7623 344.877 69.0601 345.133 69.3611 345.383C69.6621 345.632 69.9632 345.882 70.2744 346.127C76.1835 353.826 84.1275 364.005 90.5038 371.3C89.9509 370.493 89.405 369.69 88.8605 368.874C88.316 368.058 87.7766 367.24 87.2404 366.415C86.7042 365.59 86.1713 364.758 85.6486 363.923C85.1259 363.087 84.5943 362.243 84.0729 361.396C83.5516 360.548 83.0771 359.764 82.5875 358.94C82.0979 358.115 81.6153 357.294 81.1309 356.468C80.6464 355.641 80.1773 354.809 79.7063 353.972C79.2353 353.135 78.7732 352.306 78.3125 351.465C78.5899 351.619 78.8672 351.773 79.1478 351.919C79.4284 352.066 79.7128 352.223 79.9985 352.367C80.2842 352.512 80.5718 352.662 80.8627 352.805C81.1535 352.948 81.4462 353.095 81.7371 353.238C82.1978 354.079 82.6637 354.918 83.1347 355.755C83.6057 356.592 84.0869 357.426 84.5662 358.254C85.0456 359.082 85.5319 359.914 86.0266 360.736C86.5213 361.559 87.0109 362.384 87.5158 363.202C88.3828 364.626 89.2392 365.989 90.1218 367.36C91.0044 368.731 91.8934 370.088 92.7839 371.433C93.6743 372.778 94.5949 374.094 95.5136 375.405C96.4323 376.717 97.3677 378.01 98.3096 379.29" fill="white"/>
<path d="M140.589 389.612C138.75 389.478 136.948 389.32 135.184 389.135C133.419 388.951 131.683 388.739 129.975 388.499C128.271 388.258 126.603 387.994 124.971 387.707C123.339 387.42 121.741 387.105 120.178 386.762C119.241 385.463 118.312 384.155 117.392 382.827C116.473 381.498 115.56 380.156 114.659 378.797C113.758 377.439 112.863 376.067 111.978 374.673C111.093 373.28 110.222 371.876 109.355 370.453C108.851 369.622 108.348 368.791 107.853 367.951C107.357 367.111 106.862 366.271 106.377 365.428C105.892 364.584 105.407 363.741 104.93 362.888C104.454 362.036 103.979 361.188 103.513 360.332L104.69 360.562L105.877 360.788L107.083 361.001L108.317 361.198C108.789 362.052 109.262 362.911 109.739 363.764C110.216 364.616 110.702 365.465 111.189 366.314C111.676 367.163 112.171 368.002 112.667 368.842C113.162 369.682 113.667 370.518 114.171 371.349C114.747 372.299 115.323 373.248 115.893 374.148C116.462 375.047 117.054 375.991 117.639 376.902C118.225 377.813 118.814 378.718 119.405 379.615C119.997 380.512 120.598 381.4 121.203 382.287C122.441 382.494 123.686 382.693 124.938 382.884C126.19 383.074 127.475 383.245 128.793 383.395C130.093 383.549 131.418 383.69 132.766 383.817C134.107 383.94 135.472 384.049 136.85 384.147C137.167 384.611 137.478 385.077 137.794 385.542L138.743 386.935C139.059 387.399 139.381 387.862 139.691 388.293C140.001 388.725 140.328 389.22 140.64 389.64" fill="white"/>
<path d="M148.455 389.998L147.007 389.949L145.575 389.894L144.159 389.834L142.757 389.768C141.826 388.455 140.904 387.134 139.991 385.791C139.078 384.449 138.167 383.094 137.27 381.717C136.374 380.339 135.478 378.95 134.574 377.552C133.67 376.154 132.815 374.715 131.948 373.292C131.448 372.45 130.944 371.607 130.436 370.764C129.928 369.921 129.433 369.07 128.949 368.21C128.461 367.356 127.974 366.498 127.49 365.635C127.009 364.772 126.529 363.909 126.059 363.043L127.465 363.107L128.892 363.164L130.329 363.216L131.787 363.262C132.259 364.133 132.74 364.996 133.222 365.864C133.704 366.732 134.193 367.585 134.684 368.444C135.174 369.303 135.668 370.155 136.167 371.005C136.666 371.855 137.168 372.699 137.683 373.543C138.544 374.968 139.426 376.415 140.304 377.805C141.182 379.195 142.084 380.634 142.973 381.992C143.862 383.349 144.778 384.731 145.692 386.078C146.607 387.426 147.524 388.749 148.45 390.064" fill="white"/>
<path d="M170.841 389.452C170.098 389.504 169.356 389.556 168.623 389.599C167.889 389.642 167.157 389.69 166.427 389.726L164.254 389.839L162.102 389.926C153.277 382.137 141.665 371.511 133.319 363.191L134.961 363.169C135.539 363.16 136.071 363.168 136.624 363.139C137.177 363.11 137.747 363.127 138.301 363.104C138.856 363.08 139.455 363.081 140.025 363.051C146.881 369.66 155.978 378.521 163.141 384.796C162.131 377.888 160.757 368.681 160.058 361.734L161.953 361.531L163.86 361.313L165.785 361.082L167.722 360.835C168.487 369.413 169.633 380.84 170.84 389.371" fill="white"/>
<path d="M202.998 361.057C200.99 361.504 198.997 361.932 197.021 362.34C195.045 362.748 193.077 363.139 191.12 363.514C189.18 363.885 187.259 364.235 185.358 364.561C183.456 364.888 181.573 365.192 179.709 365.474C179.928 365.864 180.152 366.252 180.371 366.642L181.042 367.8L181.711 368.954C181.933 369.336 182.162 369.722 182.385 370.105C182.42 370.202 182.492 370.286 182.541 370.373C182.59 370.459 182.649 370.554 182.705 370.643C182.761 370.733 182.81 370.82 182.862 370.911C182.913 371.003 182.967 371.087 183.018 371.179C184.881 370.882 186.764 370.578 188.667 370.266C190.57 369.954 192.489 369.609 194.422 369.232C196.361 368.869 198.318 368.485 200.292 368.082C202.266 367.678 204.262 367.255 206.28 366.812C206.533 367.247 206.784 367.677 207.043 368.111C207.301 368.544 207.551 368.969 207.807 369.397L208.575 370.677L209.341 371.952C207.332 372.387 205.342 372.806 203.371 373.209C201.4 373.611 199.445 373.992 197.505 374.352C195.57 374.715 193.652 375.057 191.753 375.379C189.853 375.701 187.974 376.004 186.114 376.288L186.966 377.653L187.815 379.013C188.096 379.461 188.383 379.908 188.669 380.354C188.955 380.8 189.237 381.248 189.523 381.695C191.379 381.4 193.255 381.099 195.151 380.789C197.048 380.48 198.963 380.141 200.895 379.772C202.83 379.418 204.781 379.042 206.75 378.644C208.718 378.246 210.705 377.83 212.711 377.396C213.002 377.87 213.28 378.295 213.562 378.744L214.419 380.077L215.274 381.406C215.559 381.847 215.849 382.287 216.131 382.723C213.497 383.303 210.887 383.839 208.299 384.333C205.711 384.827 203.17 385.291 200.677 385.726C198.164 386.161 195.68 386.563 193.224 386.93C190.767 387.298 188.349 387.633 185.969 387.934C185.064 386.594 184.161 385.248 183.268 383.881C182.375 382.514 181.482 381.129 180.578 379.731C179.674 378.333 178.803 376.9 177.931 375.479C177.059 374.057 176.184 372.596 175.317 371.127C174.809 370.268 174.309 369.413 173.789 368.553C173.269 367.694 172.791 366.824 172.297 365.955C171.803 365.086 171.311 364.209 170.827 363.336C170.343 362.464 169.853 361.575 169.372 360.695C171.77 360.368 174.198 360.009 176.657 359.617C179.116 359.225 181.613 358.8 184.148 358.341C186.69 357.88 189.251 357.389 191.833 356.867C194.414 356.345 197.04 355.785 199.71 355.188L200.505 356.637C200.77 357.121 201.04 357.602 201.305 358.085L202.125 359.554L202.936 360.998" fill="white"/>
<path d="M266.111 360.183C266.813 362.247 265.204 362.785 263.174 363.49C261.61 364.018 260.042 364.539 258.469 365.055C256.896 365.57 255.337 366.071 253.792 366.557C252.232 367.053 250.668 367.54 249.101 368.018C247.534 368.497 245.973 368.966 244.418 369.424C244.133 368.949 243.842 368.475 243.556 367.999C243.271 367.523 242.98 367.05 242.694 366.574C242.409 366.098 242.118 365.625 241.833 365.149C241.547 364.673 241.267 364.196 240.972 363.695C242.533 363.233 244.102 362.76 245.678 362.274C247.244 361.792 248.808 361.305 250.37 360.813C251.932 360.321 253.488 359.813 255.073 359.289C256.658 358.765 258.218 358.251 259.789 357.721C261.644 357.109 264.751 356.079 266.137 360.19L266.111 360.183ZM257.537 349.445C258.215 351.57 256.601 352.111 254.585 352.851L254.539 352.868C253.131 353.338 251.727 353.801 250.326 354.258C248.926 354.714 247.524 355.165 246.123 355.609L241.953 356.908L237.77 358.171L237.671 357.998L237.573 357.826L237.476 357.658L237.377 357.485C237.124 357.05 236.878 356.618 236.632 356.186C236.385 355.754 236.141 355.31 235.894 354.878C235.648 354.446 235.398 354.003 235.155 353.564C234.912 353.125 234.664 352.688 234.421 352.249C235.817 351.833 237.211 351.411 238.602 350.981C240 350.549 241.399 350.117 242.798 349.673C244.198 349.229 245.604 348.77 247.004 348.314C248.405 347.858 249.815 347.393 251.215 346.919C253.21 346.262 256.222 345.273 257.562 349.465L257.537 349.445ZM274.857 358.353C272.755 352.647 267.485 351.638 265.498 351.259C266.031 349.188 266.324 336.351 251.21 340.501C248.871 341.301 246.539 342.084 244.213 342.849C241.888 343.614 239.554 344.362 237.213 345.094C234.889 345.82 232.569 346.526 230.254 347.214C227.939 347.901 225.628 348.569 223.322 349.219C223.808 350.116 224.295 351.009 224.785 351.898C225.275 352.786 225.766 353.673 226.26 354.561C226.752 355.444 227.246 356.325 227.744 357.202C228.24 358.077 228.738 358.956 229.24 359.829C230.097 361.319 230.958 362.791 231.818 364.257C232.678 365.724 233.543 367.159 234.405 368.584C235.267 370.009 236.134 371.432 236.994 372.823C237.855 374.214 238.729 375.594 239.593 376.96C241.978 376.305 244.361 375.623 246.743 374.916C249.124 374.208 251.518 373.489 253.927 372.76C256.322 372.027 258.723 371.268 261.129 370.481C263.531 369.698 265.94 368.901 268.344 368.076C271.392 366.806 277.068 364.438 274.829 358.34" fill="white"/>
<path d="M297.694 346.113C298.125 346.872 298.559 347.624 298.987 348.378C299.416 349.132 299.846 349.874 300.271 350.617C300.696 351.361 301.124 352.098 301.552 352.835C301.981 353.571 302.4 354.3 302.824 355.026L300.807 355.86L298.788 356.688L296.767 357.512L294.742 358.325C294.318 357.598 293.886 356.868 293.46 356.137C293.033 355.405 292.598 354.665 292.17 353.928C291.742 353.192 291.303 352.441 290.871 351.694C290.439 350.947 290.008 350.188 289.574 349.436C280.931 345.783 269.39 340.953 260.839 337.092C261.663 336.789 262.487 336.487 263.311 336.184L265.788 335.275L268.266 334.365L270.742 333.421L290.249 341.77L295.202 323.378C296.025 323.024 296.843 322.66 297.659 322.302L300.117 321.214L302.57 320.11L305.015 319.004C302.859 327.144 300.005 338.014 297.741 346.13" fill="white"/>
<path d="M362.731 304.087C364.218 307.889 360.927 309.73 358.746 310.954L355.293 312.86C354.143 313.492 352.987 314.119 351.826 314.743C350.669 315.371 349.504 315.996 348.339 316.603L344.847 318.466C344.659 318.111 344.465 317.759 344.276 317.404C344.088 317.05 343.894 316.697 343.703 316.338C343.513 315.978 343.321 315.631 343.125 315.273C342.93 314.915 342.744 314.554 342.548 314.196C342.353 313.838 342.15 313.46 341.955 313.09L341.355 311.981C341.154 311.608 340.96 311.238 340.758 310.865L340.156 309.751L343.658 307.885C344.825 307.267 345.989 306.646 347.15 306.022C348.315 305.397 349.472 304.769 350.642 304.16L354.1 302.252C356.373 300.993 360.601 298.652 362.74 304.112L362.731 304.087ZM370.568 300.124C370.061 298.905 365.267 288.365 352.843 294.72C350.87 295.831 348.889 296.928 346.902 298.01C344.914 299.092 342.917 300.17 340.91 301.243C338.906 302.312 336.894 303.37 334.874 304.417C332.862 305.469 330.824 306.484 328.805 307.533C329.289 308.439 329.776 309.344 330.264 310.248C330.752 311.153 331.231 312.045 331.702 312.924C332.184 313.823 332.668 314.72 333.152 315.614C333.636 316.508 334.117 317.4 334.596 318.288C335.418 319.817 336.236 321.328 337.049 322.821C337.863 324.314 338.669 325.798 339.468 327.273C340.27 328.736 341.062 330.187 341.843 331.626C342.625 333.065 343.407 334.494 344.189 335.913L346.144 334.911L348.1 333.909L350.051 332.896L351.999 331.874C351.673 331.273 351.353 330.671 351.025 330.066C350.697 329.46 350.363 328.852 350.034 328.241L349.043 326.405C348.712 325.789 348.376 325.176 348.043 324.555C349.391 323.845 350.734 323.137 352.073 322.419C353.412 321.701 354.752 320.983 356.084 320.262L360.078 318.075L364.046 315.864C373.383 310.149 371.668 302.936 370.497 300.103" fill="white"/>
<path d="M383.564 299.376L383.304 283.978L395.212 292.046L392.325 293.895L389.422 295.733L386.499 297.561L383.564 299.376ZM406.587 299.63L408.554 298.328C409.208 297.896 409.859 297.454 410.51 297.029L412.461 295.732L414.408 294.437C405.669 288.712 394.025 281.075 385.289 275.326L382.813 276.902L380.328 278.47L377.823 280.029L375.308 281.579C375.393 292.856 375.415 307.888 375.203 319.164L377.285 317.952L379.358 316.733L381.423 315.51L383.485 314.277L383.571 306.525C385.017 305.646 386.46 304.762 387.899 303.873C389.318 302.993 390.764 302.09 392.189 301.195C393.615 300.301 395.016 299.403 396.42 298.481C397.823 297.56 399.238 296.669 400.65 295.767L406.579 299.703" fill="white"/>
<path d="M443.115 263.315C444.787 268.297 442.401 273.591 436.028 279.036C425.049 288.419 417.134 291.935 412.512 289.481C410.621 288.48 409.774 287.003 408.791 285.31L410.542 284.086L412.284 282.866L414.02 281.648L415.751 280.432C416.788 282.002 417.854 283.619 423.347 280.546C423.48 280.497 435.795 273.009 436.477 268.864C437.486 262.926 431.645 266.789 424.867 271.263C412.585 279.377 407.321 280.027 403.956 273.745C400.007 266.383 407.882 259.649 415.569 253.918C426.788 246.09 432.417 245.596 436.277 252.242L434.681 253.496L433.074 254.748L431.45 255.988L429.824 257.235C429 256.057 427.885 254.464 424.391 256.368C424.253 256.419 411.251 264.095 410.84 267.729C410.165 273.625 416.924 269.21 424.082 264.539C432.639 258.947 440.031 254.121 443.128 263.351" fill="white"/>
<path d="M473.827 236.672C475.49 241.692 473.552 247.065 468.083 252.631C458.519 262.336 451.521 266.038 447.258 263.644C445.528 262.671 444.718 261.198 443.775 259.489L445.339 258.23L446.891 256.969L448.435 255.7L449.967 254.435C450.946 256.003 451.962 257.627 456.827 254.413C458.174 253.524 467.779 246.282 468.212 242.379C468.386 240.893 467.404 239.094 466.25 239.384C464.58 239.805 463.145 240.895 457.922 244.984C447.095 253.452 442.34 254.188 439.055 247.935C435.197 240.615 442.099 233.652 448.852 227.707C458.594 219.573 463.606 218.999 467.341 225.591L465.971 226.872L464.566 228.154L463.172 229.433L461.767 230.715C460.982 229.546 459.909 227.943 456.834 229.942C456.723 230.018 445.269 237.985 445.023 241.64C444.619 247.628 450.572 243.027 456.879 238.158C464.319 232.407 470.747 227.441 473.803 236.669" fill="white"/>
<path d="M484.252 236.943L482.98 238.223C482.557 238.651 482.131 239.074 481.706 239.498L480.402 240.783L479.083 242.063C478.457 240.594 477.81 239.117 477.143 237.632C476.476 236.147 475.799 234.654 475.111 233.154C474.423 231.665 473.725 230.18 472.996 228.642C472.267 227.104 471.536 225.608 470.783 224.085C470.344 223.197 469.902 222.307 469.457 221.414C469.012 220.521 468.56 219.632 468.103 218.747C467.647 217.858 467.19 216.968 466.73 216.076C466.264 215.191 465.802 214.298 465.331 213.414L466.667 212.134L467.992 210.858L469.304 209.576L470.582 208.311C471.054 209.194 471.52 210.08 471.978 210.968C472.437 211.856 472.894 212.745 473.349 213.634C473.798 214.52 474.248 215.411 474.691 216.299C475.134 217.187 475.578 218.075 476.016 218.965C476.763 220.49 477.495 222.004 478.215 223.516C478.934 225.028 479.633 226.53 480.319 228.031C481.006 229.532 481.674 231.017 482.336 232.515C482.999 234.013 483.63 235.477 484.259 236.947" fill="white"/>
<path d="M498.209 202.21C500.91 208.927 498.368 213.308 495.222 217.041C484.971 227.956 482.836 209.851 482.826 209.651C482.674 203.322 490.893 192.758 495.59 197.732C496.702 199.072 497.587 200.584 498.209 202.21ZM502.66 197.824C495.66 180.077 486.481 190.796 482.568 195.333C469.709 212.186 481.824 229.274 488.554 228.945C493.739 228.696 509.888 216.126 502.651 197.798" fill="white"/>
<path d="M526.349 183.506C526.037 184.062 525.717 184.614 525.393 185.169L524.404 186.838L523.385 188.506C523.045 189.067 522.693 189.625 522.341 190.184C516.806 187.683 509.409 184.385 503.792 182.07L504.21 182.921L504.626 183.767C504.766 184.052 504.899 184.334 505.037 184.614C505.175 184.894 505.31 185.182 505.45 185.467C506.169 186.979 506.88 188.483 507.566 189.984C508.253 191.485 508.922 192.969 509.579 194.469C510.236 195.97 510.882 197.474 511.497 198.937C512.112 200.401 512.724 201.906 513.315 203.384L512.382 204.638L511.434 205.897L510.47 207.162L509.495 208.426C508.9 206.949 508.291 205.468 507.667 203.983C507.03 202.476 506.396 201.007 505.734 199.509C505.072 198.011 504.394 196.518 503.707 195.029C503.019 193.54 502.306 192.014 501.576 190.506C501.151 189.624 500.722 188.743 500.288 187.861C499.857 186.974 499.418 186.097 498.973 185.221C498.529 184.345 498.087 183.462 497.631 182.585C497.174 181.708 496.722 180.829 496.262 179.958L497.606 178.258L498.927 176.559L500.216 174.867L501.482 173.178C507.255 175.568 514.941 178.784 520.614 181.408C520.229 180.505 519.844 179.601 519.447 178.697C519.05 177.792 518.653 176.887 518.251 175.984C517.848 175.081 517.43 174.166 517.009 173.259C516.587 172.351 516.166 171.443 515.731 170.529C515.295 169.615 514.895 168.781 514.468 167.905C514.04 167.028 513.61 166.159 513.172 165.286C512.735 164.414 512.299 163.546 511.851 162.677C511.403 161.809 510.958 160.945 510.505 160.078L511.266 158.864L512.015 157.648L512.734 156.444L513.451 155.235C513.906 156.093 514.355 156.958 514.796 157.829C515.242 158.693 515.682 159.558 516.113 160.428C516.544 161.297 516.974 162.167 517.4 163.038C517.825 163.909 518.247 164.787 518.662 165.662C519.366 167.146 520.053 168.635 520.726 170.129C521.398 171.624 522.06 173.122 522.698 174.601C523.335 176.079 523.961 177.573 524.566 179.058C525.171 180.543 525.756 182.023 526.323 183.498" fill="white"/>
<path d="M103.318 372.076C104.705 374.469 104.744 375.946 103.404 375.701C100.174 375.105 93.8006 366.601 95.6495 365.342C95.9232 365.154 96.2521 365.243 96.6052 365.334C99.1046 366.314 102.037 369.858 103.313 372.06" fill="white"/>
<path d="M528.186 154.573C530.121 159.464 529.297 165.101 526.802 163.991C524.307 162.881 522.188 155.817 523.737 152.038C525.14 149.538 527.178 152.011 528.16 154.582" fill="white"/>
</svg>
