<svg width="24" height="24" viewBox="0 0 24 24" fill="none" xmlns="http://www.w3.org/2000/svg">
<path fill-rule="evenodd" clip-rule="evenodd" d="M18.5404 4.33992L20.0004 4.48992C21.7289 4.68529 23.0268 6.16064 23.0004 7.89992V16.0999C23.0268 17.8392 21.7289 19.3146 20.0004 19.5099L18.6004 19.6599C14.232 20.1099 9.82884 20.1099 5.4604 19.6599L4.0004 19.5099C2.27191 19.3146 0.973952 17.8392 1.0004 16.0999V7.89992C0.973952 6.16064 2.27191 4.68529 4.0004 4.48992L5.4004 4.33992C9.76884 3.88995 14.172 3.88995 18.5404 4.33992ZM11.11 15.22L15 12.62H15.06C15.2696 12.4834 15.396 12.2502 15.396 12C15.396 11.7498 15.2696 11.5166 15.06 11.38L11.17 8.78C10.9403 8.62476 10.6438 8.60887 10.3988 8.73867C10.1539 8.86846 10.0005 9.12279 10 9.4V14.6C10.0129 14.8581 10.1577 15.0913 10.3833 15.2173C10.6089 15.3433 10.8835 15.3444 11.11 15.22Z" fill="#543287"/>
</svg>
