<svg width="36" height="36" viewBox="0 0 36 36" fill="none" xmlns="http://www.w3.org/2000/svg">
<path fill-rule="evenodd" clip-rule="evenodd" d="M7.72093 13.2908C5.94315 12.0142 5.54599 9.54607 6.82258 7.76829C8.09918 5.99051 10.5673 5.59335 12.345 6.86995C14.1228 8.14654 14.52 10.6146 13.2434 12.3924C11.9668 14.1702 9.49871 14.5673 7.72093 13.2908Z" fill="#DD1A5D"/>
<path d="M4.43013 17.3853C4.03297 17.3853 3.63581 17.234 3.3332 16.9219C2.44432 16.0236 1.75401 14.9739 1.29065 13.8014C0.836751 12.6761 0.619257 11.4846 0.628713 10.2647C0.63817 9.04487 0.874575 7.85338 1.33793 6.73754C1.8202 5.57442 2.51997 4.53423 3.41831 3.64534C4.31666 2.75645 5.3663 2.06614 6.53888 1.60279C7.66417 1.14888 8.85566 0.931391 10.0755 0.940847C11.2954 0.950303 12.4869 1.18671 13.6027 1.65007C14.7658 2.13234 15.806 2.8321 16.6949 3.73044C17.2906 4.33565 17.2907 5.30964 16.6855 5.91484C16.3828 6.20799 15.9951 6.35929 15.598 6.35929C15.2008 6.35929 14.8037 6.20799 14.5011 5.89593C12.0519 3.41839 8.05188 3.39002 5.57434 5.83919C3.0968 8.28836 3.06843 12.2884 5.5176 14.7659C6.11335 15.3711 6.11335 16.3451 5.50814 16.9503C5.215 17.234 4.82729 17.3853 4.43013 17.3853Z" fill="#DD1A5D"/>
<path fill-rule="evenodd" clip-rule="evenodd" d="M24.1467 29.1017C22.3689 27.8251 21.9718 25.357 23.2484 23.5792C24.525 21.8014 26.993 21.4043 28.7708 22.6809C30.5486 23.9575 30.9458 26.4255 29.6692 28.2033C28.3926 29.9716 25.915 30.3783 24.1467 29.1017Z" fill="#DD1A5D"/>
<path d="M25.9811 35.078C25.9622 35.078 25.9433 35.078 25.9244 35.078C24.7045 35.0686 23.513 34.8321 22.3972 34.3688C21.2341 33.8865 20.1939 33.1868 19.305 32.2884C18.7093 31.6832 18.7093 30.7092 19.3145 30.104C19.9197 29.5083 20.8937 29.5083 21.4989 30.1135C22.6809 31.3144 24.2601 31.9764 25.9528 31.9858C27.636 31.9953 29.2246 31.3522 30.4256 30.1607C31.6265 28.9787 32.2885 27.3995 32.2979 25.7068C32.3074 24.0236 31.6643 22.435 30.4729 21.234C29.8771 20.6288 29.8771 19.6548 30.4823 19.0496C31.0875 18.4539 32.0615 18.4539 32.6667 19.0591C33.5556 19.9574 34.2459 21.0071 34.7093 22.1797C35.1632 23.305 35.3807 24.4964 35.3712 25.7163C35.3617 26.9362 35.1253 28.1277 34.662 29.2435C34.1797 30.4066 33.4799 31.4468 32.5816 32.3357C31.6833 33.2246 30.6336 33.9149 29.461 34.3782C28.3452 34.8511 27.1821 35.078 25.9811 35.078Z" fill="#DD1A5D"/>
<path d="M9.82039 30.0094C12.0034 30.0094 13.7731 28.2397 13.7731 26.0567C13.7731 23.8737 12.0034 22.104 9.82039 22.104C7.63737 22.104 5.86768 23.8737 5.86768 26.0567C5.86768 28.2397 7.63737 30.0094 9.82039 30.0094Z" fill="#DD1A5D"/>
<path d="M10.0567 35.1158C10.0378 35.1158 10.0189 35.1158 9.99995 35.1158C8.78009 35.1064 7.58861 34.87 6.47277 34.4066C5.30965 33.9243 4.26946 33.2246 3.38057 32.3262C2.49168 31.4279 1.80137 30.3688 1.33801 29.2057C0.884113 28.0804 0.66662 26.8889 0.676077 25.669C0.685533 24.4492 0.92194 23.2577 1.3853 22.1418C1.86757 20.9787 2.56733 19.9385 3.46567 19.0496C4.07087 18.4539 5.04487 18.4539 5.65007 19.0591C6.24582 19.6643 6.24582 20.6383 5.64062 21.2435C3.16307 23.6927 3.1347 27.6927 5.58388 30.1702C8.03305 32.6477 12.0331 32.6761 14.5106 30.2269C15.1158 29.6312 16.0898 29.6312 16.695 30.2364C17.2907 30.8416 17.2907 31.8156 16.6855 32.4208C15.7872 33.3097 14.7375 34 13.565 34.4633C12.4302 34.8889 11.2576 35.1158 10.0567 35.1158Z" fill="#DD1A5D"/>
<path fill-rule="evenodd" clip-rule="evenodd" d="M29.3664 12.1182C28.0898 13.896 25.6218 14.2932 23.844 13.0166C22.0662 11.74 21.669 9.2719 22.9456 7.49412C24.2222 5.71634 26.6903 5.31918 28.4681 6.59578C30.2364 7.87237 30.643 10.3499 29.3664 12.1182Z" fill="#DD1A5D"/>
<path d="M31.4656 17.4137C31.0684 17.4137 30.6713 17.2624 30.3687 16.9503C29.7729 16.3451 29.7729 15.3711 30.3781 14.7659C31.5791 13.5839 32.241 12.0047 32.2505 10.312C32.2599 8.62882 31.6169 7.04017 30.4254 5.83922C27.9762 3.36168 23.9762 3.33331 21.4987 5.78249C21.1961 6.07563 20.8084 6.22693 20.4112 6.22693C20.014 6.22693 19.6169 6.07563 19.3143 5.76357C18.7185 5.15837 18.7185 4.18438 19.3237 3.57918C20.2221 2.69029 21.2717 1.99998 22.4443 1.53662C23.5696 1.08272 24.7611 0.865229 25.981 0.874685C27.2008 0.884141 28.3923 1.12055 29.5081 1.5839C30.6713 2.06617 31.7114 2.76594 32.6003 3.66428C33.4892 4.56263 34.1795 5.61227 34.6429 6.78485C35.0968 7.91015 35.3143 9.10163 35.3048 10.3215C35.2954 11.5414 35.059 12.7328 34.5956 13.8487C34.1133 15.0118 33.4136 16.052 32.5152 16.9409C32.2505 17.2718 31.8533 17.4137 31.4656 17.4137Z" fill="#DD1A5D"/>
</svg>
