<svg width="39" height="42" viewBox="0 0 39 42" fill="none" xmlns="http://www.w3.org/2000/svg">
<path d="M19.9233 25.3429C21.1393 25.3429 22.1633 24.9132 22.9953 24.0538C23.8456 23.2126 24.2753 22.1886 24.2753 20.9818C24.2753 19.7749 23.8456 18.7509 22.9953 17.9098C22.1541 17.0595 21.1301 16.6298 19.9233 16.6298C18.7164 16.6298 17.6924 17.0595 16.8513 17.9098C16.001 18.7509 15.5713 19.784 15.5713 20.9818C15.5713 22.1978 16.001 23.2218 16.8513 24.0538C17.6924 24.9132 18.7256 25.3429 19.9233 25.3429Z" fill="#DD1A5D"/>
<path d="M34.7531 20.9817C34.8994 20.808 35.0548 20.6252 35.192 20.4515C35.2743 20.3509 35.3565 20.2412 35.4388 20.1406C34.9634 20.0492 34.5337 19.8206 34.168 19.4732C34.1405 19.5097 34.1131 19.5372 34.0857 19.5737C33.9851 19.6926 33.8937 19.8115 33.7931 19.9303C32.4034 18.4766 30.7303 17.0686 28.856 15.752C28.6183 13.768 28.2434 11.8755 27.7405 10.1475C28.6274 10.0286 29.4868 9.97374 30.3005 9.97374C33.3543 9.97374 35.4754 10.824 36.28 12.3692C36.6548 13.0915 36.7463 13.9509 36.5451 14.9383C37.0297 15.0389 37.4594 15.2766 37.8343 15.6423C38.2183 14.1795 38.1268 12.8537 37.5325 11.72C36.984 10.6595 36.0331 9.84574 34.7165 9.30631C33.5097 8.8126 32.0285 8.56574 30.3005 8.56574C29.3588 8.56574 28.3531 8.63888 27.3108 8.78517C27.0914 8.15431 26.8628 7.56003 26.6068 6.98403C24.8788 3.0526 22.5017 0.885742 19.9325 0.885742C17.3543 0.885742 14.9863 3.0526 13.2583 6.98403C12.9931 7.57831 12.7554 8.20003 12.536 8.84917C11.3291 8.65717 10.1771 8.5566 9.09825 8.5566C7.37025 8.5566 5.88911 8.80346 4.68225 9.29717C3.36568 9.8366 2.41483 10.6503 1.86625 11.7109C1.46397 12.488 1.29025 13.3657 1.35425 14.3166C1.7474 14.0789 2.1954 13.96 2.68911 13.96C2.71654 13.96 2.73483 13.96 2.76225 13.96C2.76225 13.3657 2.88111 12.8355 3.12797 12.36C3.93254 10.8149 6.05368 9.9646 9.1074 9.9646C10.0583 9.9646 11.064 10.0469 12.1245 10.2023C11.6674 11.8115 11.3108 13.5577 11.0731 15.3863C8.98854 16.8035 7.13254 18.3395 5.61483 19.9212C5.51425 19.8023 5.41368 19.6835 5.32225 19.5646C5.03883 19.208 4.77368 18.8606 4.53597 18.5223C4.1794 18.8789 3.76797 19.1075 3.30168 19.208C3.57597 19.6195 3.88683 20.0309 4.22511 20.4515C4.3714 20.6252 4.51768 20.808 4.66397 20.9817C4.51768 21.1555 4.36225 21.3383 4.22511 21.512C1.52797 24.8583 0.695968 27.9669 1.88454 30.2526C2.43311 31.3132 3.38397 32.1269 4.70054 32.6663C5.9074 33.16 7.38854 33.4069 9.11654 33.4069C10.1954 33.4069 11.3565 33.3063 12.5543 33.1143C12.7737 33.7635 13.0205 34.3943 13.2765 34.9795C15.0045 38.9109 17.3817 41.0777 19.9508 41.0777C21.3588 41.0777 22.712 40.4286 23.9188 39.1943C23.5714 39.0663 23.2514 38.856 22.968 38.5635C22.8948 38.4903 22.8308 38.4172 22.7668 38.344C21.8525 39.2217 20.9017 39.6606 19.9508 39.6606C18.9908 39.6606 18.04 39.2126 17.1257 38.3349C16.1748 37.4206 15.3154 36.0949 14.5748 34.4035C14.3554 33.9097 14.1543 33.3886 13.9623 32.84C15.8183 32.4469 17.7565 31.8617 19.7223 31.0937C21.8434 31.9257 23.9371 32.5383 25.9211 32.9315C25.7748 33.3337 25.6285 33.7269 25.464 34.1109C25.9303 34.2206 26.3417 34.4492 26.6983 34.8057C26.9268 34.2846 27.128 33.736 27.3291 33.1692C28.3714 33.3155 29.3771 33.3886 30.3188 33.3886C32.0468 33.3886 33.528 33.1417 34.7348 32.648C36.0514 32.1086 37.0023 31.2949 37.5508 30.2343C38.7394 27.9486 37.9074 24.8492 35.2103 21.4937C35.0457 21.3383 34.8994 21.1646 34.7531 20.9817ZM32.8514 20.9817C31.7543 22.1337 30.4651 23.2583 29.0388 24.3372C29.1211 23.24 29.1668 22.1155 29.1668 20.9817C29.1668 19.848 29.1211 18.7235 29.0388 17.6263C30.4651 18.7052 31.7543 19.8297 32.8514 20.9817ZM12.1063 20.9817C12.1063 19.3452 12.1977 17.7452 12.3714 16.2092C13.5417 15.4412 14.7851 14.7189 16.0834 14.0423C17.2811 13.4206 18.488 12.8629 19.6857 12.3783C20.8834 12.8629 22.0903 13.4206 23.288 14.0423C24.7783 14.8195 26.1954 15.6606 27.512 16.5475C27.6583 17.9829 27.7405 19.464 27.7405 20.9817C27.7405 22.4903 27.6674 23.9806 27.512 25.416C26.1954 26.3029 24.7783 27.1532 23.288 27.9212C22.0903 28.5429 20.8834 29.1006 19.6857 29.5852C18.488 29.1006 17.2811 28.5429 16.0834 27.9212C14.7851 27.2446 13.5417 26.5223 12.3714 25.7543C12.1977 24.2183 12.1063 22.6183 12.1063 20.9817ZM27.2834 14.7097C26.2228 14.0332 25.0983 13.3932 23.9463 12.7897C23.1691 12.3875 22.3828 12.0035 21.5965 11.656C23.224 11.0892 24.8148 10.6595 26.3325 10.376C26.7348 11.7292 27.0548 13.1829 27.2834 14.7097ZM14.5474 7.55089C15.2971 5.85031 16.1565 4.53374 17.0983 3.61946C18.0125 2.74174 18.9634 2.29374 19.9234 2.29374C20.8834 2.29374 21.8343 2.74174 22.7485 3.61946C23.6994 4.53374 24.5588 5.85946 25.2994 7.55089C25.5097 8.01717 25.7017 8.51088 25.8845 9.02288C23.9005 9.40688 21.8068 10.0286 19.6857 10.8606C17.72 10.0926 15.7725 9.50746 13.9257 9.11431C14.1177 8.57488 14.328 8.05374 14.5474 7.55089ZM13.496 10.4675C14.8765 10.7509 16.3211 11.1532 17.784 11.6652C16.9977 12.0126 16.2114 12.3966 15.4343 12.7989C14.4651 13.3017 13.5234 13.832 12.6183 14.3897C12.8377 13.0092 13.1303 11.6926 13.496 10.4675ZM10.8445 17.2606C10.744 18.4766 10.6891 19.72 10.6891 20.9817C10.6891 22.2435 10.744 23.4869 10.8445 24.7029C9.20797 23.5235 7.75425 22.2617 6.52911 20.9817C7.75425 19.7017 9.21711 18.44 10.8445 17.2606ZM9.07997 31.9897C6.02625 31.9897 3.90511 31.1395 3.10054 29.5943C2.65254 28.744 2.61597 27.6926 2.97254 26.4675C3.3474 25.2057 4.12454 23.8343 5.28568 22.3897C5.38625 22.2709 5.47768 22.152 5.57825 22.0332C7.09597 23.6149 8.95197 25.1509 11.0365 26.568C11.2743 28.3966 11.6308 30.1429 12.088 31.752C11.0457 31.9075 10.0308 31.9897 9.07997 31.9897ZM13.496 31.5052C13.1394 30.28 12.8468 28.9635 12.6183 27.5829C13.5234 28.1406 14.4651 28.6709 15.4343 29.1737C16.2114 29.576 16.9977 29.96 17.784 30.3075C16.3211 30.8195 14.8765 31.2217 13.496 31.5052ZM21.5965 30.3166C22.3828 29.9692 23.1691 29.5852 23.9463 29.1829C25.1074 28.5795 26.2228 27.9395 27.2834 27.2629C27.0457 28.7897 26.7257 30.2526 26.3325 31.5966C24.8148 31.3132 23.224 30.8743 21.5965 30.3166ZM36.28 29.6035C35.4754 31.1486 33.3543 31.9989 30.3005 31.9989C29.4868 31.9989 28.6365 31.9349 27.7405 31.8252C28.2434 30.0972 28.6183 28.2046 28.856 26.2206C30.7303 24.904 32.4034 23.496 33.7931 22.0423C33.8937 22.1612 33.9943 22.28 34.0857 22.3989C35.2468 23.8435 36.024 25.2149 36.3988 26.4766C36.7645 27.6926 36.7188 28.744 36.28 29.6035Z" fill="#DD1A5D"/>
<path d="M4.16121 18.056C4.55435 17.6628 4.7555 17.1874 4.7555 16.6297C4.7555 16.072 4.55435 15.5966 4.16121 15.2034C3.76807 14.8103 3.29264 14.6091 2.73493 14.6091C2.17721 14.6091 1.70178 14.8103 1.30864 15.2034C0.915498 15.5966 0.714355 16.072 0.714355 16.6297C0.714355 17.1966 0.915498 17.672 1.30864 18.056C1.70178 18.4583 2.17721 18.6594 2.73493 18.6594C3.30178 18.6503 3.77721 18.4491 4.16121 18.056Z" fill="#DD1A5D"/>
<path d="M36.1519 15.5874C35.5942 15.5874 35.1188 15.7885 34.7256 16.1817C34.3325 16.5748 34.1313 17.0503 34.1313 17.608C34.1313 18.1748 34.3325 18.6503 34.7256 19.0343C35.1188 19.4365 35.5942 19.6377 36.1519 19.6377C36.7188 19.6377 37.1942 19.4365 37.5782 19.0343C37.9713 18.6411 38.1725 18.1657 38.1725 17.608C38.1725 17.0503 37.9713 16.5748 37.5782 16.1817C37.1942 15.7885 36.7188 15.5874 36.1519 15.5874Z" fill="#DD1A5D"/>
<path d="M24.897 34.7875C24.3393 34.7875 23.8639 34.9886 23.4707 35.3818C23.0776 35.7749 22.8765 36.2503 22.8765 36.808C22.8765 37.3749 23.0776 37.8503 23.4707 38.2343C23.8639 38.6366 24.3393 38.8378 24.897 38.8378C25.4639 38.8378 25.9393 38.6366 26.3233 38.2343C26.7165 37.8412 26.9176 37.3658 26.9176 36.808C26.9176 36.2503 26.7165 35.7749 26.3233 35.3818C25.9393 34.9795 25.4639 34.7875 24.897 34.7875Z" fill="#DD1A5D"/>
</svg>
