<svg width="20" height="40" viewBox="0 0 20 40" fill="none" xmlns="http://www.w3.org/2000/svg">
<path d="M19.447 35.733C19.447 34.8724 19.0309 34.1065 18.3973 33.6148H18.4068C18.4068 33.6148 13.5841 30.1159 13.5841 19.4871V19.4776H14.473C15.7023 19.4776 16.7047 18.4753 16.7047 17.246C16.7047 16.0166 15.7023 15.0143 14.473 15.0143H5.54626C4.31694 15.0143 3.31458 16.0166 3.31458 17.246C3.31458 18.4753 4.31694 19.4776 5.54626 19.4776H6.4446V19.4871C6.4446 30.1254 1.61245 33.6148 1.61245 33.6148H1.62191C0.98834 34.1065 0.572266 34.8724 0.572266 35.733V36.8866C0.572266 36.9623 0.58172 37.0285 0.58172 37.0947C0.58172 37.1325 0.572266 37.1609 0.572266 37.1987V38.6644C0.572266 39.1561 0.969427 39.5533 1.46115 39.5533H3.24839H16.7803H18.5675C19.0593 39.5533 19.4564 39.1561 19.4564 38.6644V37.1987C19.4564 37.1609 19.447 37.1325 19.447 37.0947C19.4564 37.0285 19.4564 36.9528 19.4564 36.8866V35.733H19.447Z" fill="#DD1A5D"/>
<path d="M10.0002 5.0095C11.2295 5.0095 12.2319 4.00713 12.2319 2.77782C12.2319 1.54851 11.2295 0.546143 10.0002 0.546143C8.77092 0.546143 7.76855 1.54851 7.76855 2.77782C7.76855 4.00713 8.77092 5.0095 10.0002 5.0095Z" fill="#DD1A5D"/>
<path d="M6.69055 12.0165C6.74729 12.1962 6.9175 12.3191 7.11608 12.3191H12.8844C13.0735 12.3191 13.2437 12.1962 13.3099 12.0165L14.6433 7.95981C14.7284 7.68558 14.6906 7.39243 14.5203 7.15603C14.3501 6.91962 14.0854 6.78723 13.8017 6.78723H6.21774C5.93405 6.78723 5.65982 6.92908 5.49906 7.15603C5.32885 7.39243 5.28157 7.68558 5.37613 7.95981L6.69055 12.0165Z" fill="#DD1A5D"/>
</svg>
